%TF.GenerationSoftware,KiCad,Pcbnew,9.0.4*%
%TF.CreationDate,2025-09-16T00:43:47+09:00*%
%TF.ProjectId,vibration_module,76696272-6174-4696-9f6e-5f6d6f64756c,rev?*%
%TF.SameCoordinates,Original*%
%TF.FileFunction,Copper,L1,Top*%
%TF.FilePolarity,Positive*%
%FSLAX46Y46*%
G04 Gerber Fmt 4.6, Leading zero omitted, Abs format (unit mm)*
G04 Created by KiCad (PCBNEW 9.0.4) date 2025-09-16 00:43:47*
%MOMM*%
%LPD*%
G01*
G04 APERTURE LIST*
G04 Aperture macros list*
%AMRoundRect*
0 Rectangle with rounded corners*
0 $1 Rounding radius*
0 $2 $3 $4 $5 $6 $7 $8 $9 X,Y pos of 4 corners*
0 Add a 4 corners polygon primitive as box body*
4,1,4,$2,$3,$4,$5,$6,$7,$8,$9,$2,$3,0*
0 Add four circle primitives for the rounded corners*
1,1,$1+$1,$2,$3*
1,1,$1+$1,$4,$5*
1,1,$1+$1,$6,$7*
1,1,$1+$1,$8,$9*
0 Add four rect primitives between the rounded corners*
20,1,$1+$1,$2,$3,$4,$5,0*
20,1,$1+$1,$4,$5,$6,$7,0*
20,1,$1+$1,$6,$7,$8,$9,0*
20,1,$1+$1,$8,$9,$2,$3,0*%
%AMFreePoly0*
4,1,6,0.230000,-0.155000,-0.020711,-0.155000,-0.230000,0.054289,-0.230000,0.155000,0.230000,0.155000,0.230000,-0.155000,0.230000,-0.155000,$1*%
%AMFreePoly1*
4,1,6,0.230000,-0.155000,-0.230000,-0.155000,-0.230000,-0.054289,-0.020711,0.155000,0.230000,0.155000,0.230000,-0.155000,0.230000,-0.155000,$1*%
%AMFreePoly2*
4,1,6,0.230000,-0.054289,0.230000,-0.155000,-0.230000,-0.155000,-0.230000,0.155000,0.020711,0.155000,0.230000,-0.054289,0.230000,-0.054289,$1*%
%AMFreePoly3*
4,1,6,0.230000,0.054289,0.020711,-0.155000,-0.230000,-0.155000,-0.230000,0.155000,0.230000,0.155000,0.230000,0.054289,0.230000,0.054289,$1*%
%AMFreePoly4*
4,1,14,0.230680,0.111820,0.364320,-0.021820,0.377500,-0.053640,0.377500,-0.080000,0.364320,-0.111820,0.332500,-0.125000,-0.332500,-0.125000,-0.364320,-0.111820,-0.377500,-0.080000,-0.377500,0.080000,-0.364320,0.111820,-0.332500,0.125000,0.198860,0.125000,0.230680,0.111820,0.230680,0.111820,$1*%
%AMFreePoly5*
4,1,14,0.364320,0.111820,0.377500,0.080000,0.377500,0.053640,0.364320,0.021820,0.230680,-0.111820,0.198860,-0.125000,-0.332500,-0.125000,-0.364320,-0.111820,-0.377500,-0.080000,-0.377500,0.080000,-0.364320,0.111820,-0.332500,0.125000,0.332500,0.125000,0.364320,0.111820,0.364320,0.111820,$1*%
%AMFreePoly6*
4,1,14,0.111820,0.364320,0.125000,0.332500,0.125000,-0.332500,0.111820,-0.364320,0.080000,-0.377500,-0.080000,-0.377500,-0.111820,-0.364320,-0.125000,-0.332500,-0.125000,0.198860,-0.111820,0.230680,0.021820,0.364320,0.053640,0.377500,0.080000,0.377500,0.111820,0.364320,0.111820,0.364320,$1*%
%AMFreePoly7*
4,1,14,-0.021820,0.364320,0.111820,0.230680,0.125000,0.198860,0.125000,-0.332500,0.111820,-0.364320,0.080000,-0.377500,-0.080000,-0.377500,-0.111820,-0.364320,-0.125000,-0.332500,-0.125000,0.332500,-0.111820,0.364320,-0.080000,0.377500,-0.053640,0.377500,-0.021820,0.364320,-0.021820,0.364320,$1*%
%AMFreePoly8*
4,1,14,0.364320,0.111820,0.377500,0.080000,0.377500,-0.080000,0.364320,-0.111820,0.332500,-0.125000,-0.198860,-0.125000,-0.230680,-0.111820,-0.364320,0.021820,-0.377500,0.053640,-0.377500,0.080000,-0.364320,0.111820,-0.332500,0.125000,0.332500,0.125000,0.364320,0.111820,0.364320,0.111820,$1*%
%AMFreePoly9*
4,1,14,0.364320,0.111820,0.377500,0.080000,0.377500,-0.080000,0.364320,-0.111820,0.332500,-0.125000,-0.332500,-0.125000,-0.364320,-0.111820,-0.377500,-0.080000,-0.377500,-0.053640,-0.364320,-0.021820,-0.230680,0.111820,-0.198860,0.125000,0.332500,0.125000,0.364320,0.111820,0.364320,0.111820,$1*%
%AMFreePoly10*
4,1,14,0.111820,0.364320,0.125000,0.332500,0.125000,-0.198860,0.111820,-0.230680,-0.021820,-0.364320,-0.053640,-0.377500,-0.080000,-0.377500,-0.111820,-0.364320,-0.125000,-0.332500,-0.125000,0.332500,-0.111820,0.364320,-0.080000,0.377500,0.080000,0.377500,0.111820,0.364320,0.111820,0.364320,$1*%
%AMFreePoly11*
4,1,14,0.111820,0.364320,0.125000,0.332500,0.125000,-0.332500,0.111820,-0.364320,0.080000,-0.377500,0.053640,-0.377500,0.021820,-0.364320,-0.111820,-0.230680,-0.125000,-0.198860,-0.125000,0.332500,-0.111820,0.364320,-0.080000,0.377500,0.080000,0.377500,0.111820,0.364320,0.111820,0.364320,$1*%
G04 Aperture macros list end*
%TA.AperFunction,ComponentPad*%
%ADD10O,1.300000X0.800000*%
%TD*%
%TA.AperFunction,ComponentPad*%
%ADD11RoundRect,0.200000X0.450000X-0.200000X0.450000X0.200000X-0.450000X0.200000X-0.450000X-0.200000X0*%
%TD*%
%TA.AperFunction,ComponentPad*%
%ADD12C,2.000000*%
%TD*%
%TA.AperFunction,ComponentPad*%
%ADD13R,2.000000X2.000000*%
%TD*%
%TA.AperFunction,ComponentPad*%
%ADD14C,1.000000*%
%TD*%
%TA.AperFunction,ComponentPad*%
%ADD15R,1.000000X1.000000*%
%TD*%
%TA.AperFunction,SMDPad,CuDef*%
%ADD16RoundRect,0.140000X0.140000X0.170000X-0.140000X0.170000X-0.140000X-0.170000X0.140000X-0.170000X0*%
%TD*%
%TA.AperFunction,SMDPad,CuDef*%
%ADD17RoundRect,0.140000X-0.170000X0.140000X-0.170000X-0.140000X0.170000X-0.140000X0.170000X0.140000X0*%
%TD*%
%TA.AperFunction,SMDPad,CuDef*%
%ADD18RoundRect,0.145000X0.000000X-0.205061X0.205061X0.000000X0.000000X0.205061X-0.205061X0.000000X0*%
%TD*%
%TA.AperFunction,SMDPad,CuDef*%
%ADD19FreePoly0,0.000000*%
%TD*%
%TA.AperFunction,SMDPad,CuDef*%
%ADD20FreePoly1,0.000000*%
%TD*%
%TA.AperFunction,SMDPad,CuDef*%
%ADD21FreePoly2,0.000000*%
%TD*%
%TA.AperFunction,SMDPad,CuDef*%
%ADD22FreePoly3,0.000000*%
%TD*%
%TA.AperFunction,SMDPad,CuDef*%
%ADD23RoundRect,0.225000X0.225000X0.250000X-0.225000X0.250000X-0.225000X-0.250000X0.225000X-0.250000X0*%
%TD*%
%TA.AperFunction,SMDPad,CuDef*%
%ADD24RoundRect,0.075000X-0.650000X-0.075000X0.650000X-0.075000X0.650000X0.075000X-0.650000X0.075000X0*%
%TD*%
%TA.AperFunction,SMDPad,CuDef*%
%ADD25RoundRect,0.135000X-0.135000X-0.185000X0.135000X-0.185000X0.135000X0.185000X-0.135000X0.185000X0*%
%TD*%
%TA.AperFunction,SMDPad,CuDef*%
%ADD26RoundRect,0.135000X0.135000X0.185000X-0.135000X0.185000X-0.135000X-0.185000X0.135000X-0.185000X0*%
%TD*%
%TA.AperFunction,SMDPad,CuDef*%
%ADD27FreePoly4,0.000000*%
%TD*%
%TA.AperFunction,SMDPad,CuDef*%
%ADD28RoundRect,0.062500X-0.375000X-0.062500X0.375000X-0.062500X0.375000X0.062500X-0.375000X0.062500X0*%
%TD*%
%TA.AperFunction,SMDPad,CuDef*%
%ADD29FreePoly5,0.000000*%
%TD*%
%TA.AperFunction,SMDPad,CuDef*%
%ADD30FreePoly6,0.000000*%
%TD*%
%TA.AperFunction,SMDPad,CuDef*%
%ADD31RoundRect,0.062500X-0.062500X-0.375000X0.062500X-0.375000X0.062500X0.375000X-0.062500X0.375000X0*%
%TD*%
%TA.AperFunction,SMDPad,CuDef*%
%ADD32FreePoly7,0.000000*%
%TD*%
%TA.AperFunction,SMDPad,CuDef*%
%ADD33FreePoly8,0.000000*%
%TD*%
%TA.AperFunction,SMDPad,CuDef*%
%ADD34FreePoly9,0.000000*%
%TD*%
%TA.AperFunction,SMDPad,CuDef*%
%ADD35FreePoly10,0.000000*%
%TD*%
%TA.AperFunction,SMDPad,CuDef*%
%ADD36FreePoly11,0.000000*%
%TD*%
%TA.AperFunction,SMDPad,CuDef*%
%ADD37RoundRect,0.140000X0.170000X-0.140000X0.170000X0.140000X-0.170000X0.140000X-0.170000X-0.140000X0*%
%TD*%
%TA.AperFunction,SMDPad,CuDef*%
%ADD38RoundRect,0.225000X-0.225000X-0.250000X0.225000X-0.250000X0.225000X0.250000X-0.225000X0.250000X0*%
%TD*%
%TA.AperFunction,ViaPad*%
%ADD39C,0.500000*%
%TD*%
%TA.AperFunction,Conductor*%
%ADD40C,0.200000*%
%TD*%
%TA.AperFunction,Conductor*%
%ADD41C,0.500000*%
%TD*%
G04 APERTURE END LIST*
D10*
%TO.P,J1,4,Pin_4*%
%TO.N,VBUS*%
X166800000Y-71500000D03*
%TO.P,J1,3,Pin_3*%
%TO.N,/SDA*%
X166800000Y-72750000D03*
%TO.P,J1,2,Pin_2*%
%TO.N,/SCL*%
X166800000Y-74000000D03*
D11*
%TO.P,J1,1,Pin_1*%
%TO.N,GND*%
X166800000Y-75250000D03*
%TD*%
D12*
%TO.P,SW1,3,C*%
%TO.N,GND*%
X163250000Y-68000000D03*
%TO.P,SW1,2,B*%
%TO.N,Net-(SW1-B)*%
X163250000Y-73080000D03*
D13*
%TO.P,SW1,1,A*%
%TO.N,unconnected-(SW1-A-Pad1)*%
X163250000Y-78160000D03*
%TD*%
D14*
%TO.P,TP1,1,1*%
%TO.N,Net-(U3-PA14)*%
X166696099Y-68500000D03*
%TD*%
%TO.P,TP2,1,1*%
%TO.N,Net-(U3-PA13)*%
X168696099Y-68500000D03*
%TD*%
D15*
%TO.P,TP3,1,1*%
%TO.N,Net-(U2-OUT-)*%
X166696099Y-66500000D03*
%TD*%
%TO.P,TP4,1,1*%
%TO.N,Net-(U2-OUT+)*%
X168696099Y-66500000D03*
%TD*%
D16*
%TO.P,C8,1*%
%TO.N,VBUS*%
X168406099Y-79500000D03*
%TO.P,C8,2*%
%TO.N,GND*%
X167446099Y-79500000D03*
%TD*%
D17*
%TO.P,C9,1*%
%TO.N,+3.3V*%
X166446099Y-78000000D03*
%TO.P,C9,2*%
%TO.N,GND*%
X166446099Y-78960000D03*
%TD*%
D18*
%TO.P,U4,5,Pad*%
%TO.N,GND*%
X167946099Y-78175000D03*
D19*
%TO.P,U4,4,IN*%
%TO.N,VBUS*%
X168376099Y-77850000D03*
D20*
%TO.P,U4,3,EN*%
X168376099Y-78500000D03*
D21*
%TO.P,U4,2,GND*%
%TO.N,GND*%
X167516099Y-78500000D03*
D22*
%TO.P,U4,1,OUT*%
%TO.N,+3.3V*%
X167516099Y-77850000D03*
%TD*%
D23*
%TO.P,C7,2*%
%TO.N,GND*%
X155950000Y-79250000D03*
%TO.P,C7,1*%
%TO.N,+3.3V*%
X157500000Y-79250000D03*
%TD*%
D24*
%TO.P,U2,10,VDD*%
%TO.N,+3.3V*%
X160950000Y-68500000D03*
%TO.P,U2,9,OUT-*%
%TO.N,Net-(U2-OUT-)*%
X160950000Y-69000000D03*
%TO.P,U2,8,GND*%
%TO.N,GND*%
X160950000Y-69500000D03*
%TO.P,U2,7,OUT+*%
%TO.N,Net-(U2-OUT+)*%
X160950000Y-70000000D03*
%TO.P,U2,6,VDD/NC*%
%TO.N,+3.3V*%
X160950000Y-70500000D03*
%TO.P,U2,5,EN*%
%TO.N,Net-(U2-EN)*%
X156550000Y-70500000D03*
%TO.P,U2,4,IN/TRIG*%
%TO.N,Net-(U2-IN{slash}TRIG)*%
X156550000Y-70000000D03*
%TO.P,U2,3,SDA*%
%TO.N,Net-(U2-SDA)*%
X156550000Y-69500000D03*
%TO.P,U2,2,SCL*%
%TO.N,Net-(U2-SCL)*%
X156550000Y-69000000D03*
%TO.P,U2,1,REG*%
%TO.N,Net-(U2-REG)*%
X156550000Y-68500000D03*
%TD*%
D25*
%TO.P,R4,2*%
%TO.N,GND*%
X159270000Y-72000000D03*
%TO.P,R4,1*%
%TO.N,Net-(U2-SCL)*%
X158250000Y-72000000D03*
%TD*%
D26*
%TO.P,R3,2*%
%TO.N,GND*%
X156230000Y-72000000D03*
%TO.P,R3,1*%
%TO.N,Net-(U2-SDA)*%
X157250000Y-72000000D03*
%TD*%
D27*
%TO.P,U3,1,PC14*%
%TO.N,unconnected-(U3-PC14-Pad1)*%
X157315000Y-74062500D03*
D28*
%TO.P,U3,2,PC15*%
%TO.N,unconnected-(U3-PC15-Pad2)*%
X157375000Y-74562500D03*
%TO.P,U3,3,VDD*%
%TO.N,+3.3V*%
X157375000Y-75062500D03*
%TO.P,U3,4,VSS*%
%TO.N,GND*%
X157375000Y-75562500D03*
%TO.P,U3,5,PF2*%
%TO.N,unconnected-(U3-PF2-Pad5)*%
X157375000Y-76062500D03*
%TO.P,U3,6,PA0*%
%TO.N,unconnected-(U3-PA0-Pad6)*%
X157375000Y-76562500D03*
D29*
%TO.P,U3,7,PA1*%
%TO.N,Net-(SW1-B)*%
X157315000Y-77062500D03*
D30*
%TO.P,U3,8,PA2*%
%TO.N,unconnected-(U3-PA2-Pad8)*%
X157812500Y-77560000D03*
D31*
%TO.P,U3,9,PA3*%
%TO.N,unconnected-(U3-PA3-Pad9)*%
X158312500Y-77500000D03*
%TO.P,U3,10,PA4*%
%TO.N,unconnected-(U3-PA4-Pad10)*%
X158812500Y-77500000D03*
%TO.P,U3,11,PA5*%
%TO.N,unconnected-(U3-PA5-Pad11)*%
X159312500Y-77500000D03*
%TO.P,U3,12,PA6*%
%TO.N,unconnected-(U3-PA6-Pad12)*%
X159812500Y-77500000D03*
%TO.P,U3,13,PA7*%
%TO.N,unconnected-(U3-PA7-Pad13)*%
X160312500Y-77500000D03*
D32*
%TO.P,U3,14,PB0*%
%TO.N,unconnected-(U3-PB0-Pad14)*%
X160812500Y-77560000D03*
D33*
%TO.P,U3,15,PB1*%
%TO.N,unconnected-(U3-PB1-Pad15)*%
X161310000Y-77062500D03*
D28*
%TO.P,U3,16,PA8*%
%TO.N,unconnected-(U3-PA8-Pad16)*%
X161250000Y-76562500D03*
%TO.P,U3,17,PC6*%
%TO.N,unconnected-(U3-PC6-Pad17)*%
X161250000Y-76062500D03*
%TO.P,U3,18,PA9/PA11*%
%TO.N,/SCL*%
X161250000Y-75562500D03*
%TO.P,U3,19,PA10/PA12*%
%TO.N,/SDA*%
X161250000Y-75062500D03*
%TO.P,U3,20,PA13*%
%TO.N,Net-(U3-PA13)*%
X161250000Y-74562500D03*
D34*
%TO.P,U3,21,PA14*%
%TO.N,Net-(U3-PA14)*%
X161310000Y-74062500D03*
D35*
%TO.P,U3,22,PA15*%
%TO.N,unconnected-(U3-PA15-Pad22)*%
X160812500Y-73565000D03*
D31*
%TO.P,U3,23,PB3*%
%TO.N,unconnected-(U3-PB3-Pad23)*%
X160312500Y-73625000D03*
%TO.P,U3,24,PB4*%
%TO.N,Net-(U2-EN)*%
X159812500Y-73625000D03*
%TO.P,U3,25,PB5*%
%TO.N,Net-(U2-IN{slash}TRIG)*%
X159312500Y-73625000D03*
%TO.P,U3,26,PB6*%
%TO.N,Net-(U2-SCL)*%
X158812500Y-73625000D03*
%TO.P,U3,27,PB7*%
%TO.N,Net-(U2-SDA)*%
X158312500Y-73625000D03*
D36*
%TO.P,U3,28,PB8*%
%TO.N,unconnected-(U3-PB8-Pad28)*%
X157812500Y-73565000D03*
%TD*%
D37*
%TO.P,C6,1*%
%TO.N,+3.3V*%
X156000000Y-75000000D03*
%TO.P,C6,2*%
%TO.N,GND*%
X156000000Y-74040000D03*
%TD*%
D38*
%TO.P,C2,1*%
%TO.N,+3.3V*%
X162750000Y-71000000D03*
%TO.P,C2,2*%
%TO.N,GND*%
X164300000Y-71000000D03*
%TD*%
%TO.P,C1,1*%
%TO.N,GND*%
X157450000Y-67000000D03*
%TO.P,C1,2*%
%TO.N,Net-(U2-REG)*%
X159000000Y-67000000D03*
%TD*%
D39*
%TO.N,+3.3V*%
X167000000Y-70500000D03*
%TO.N,GND*%
X164500000Y-71750000D03*
%TO.N,+3.3V*%
X162750000Y-71750000D03*
X165250000Y-78000000D03*
%TO.N,Net-(SW1-B)*%
X158250000Y-78500000D03*
X160250000Y-74500000D03*
X158250000Y-76750000D03*
%TO.N,+3.3V*%
X168000000Y-77000000D03*
X169500000Y-77000000D03*
%TO.N,GND*%
X165860659Y-79200000D03*
X155550000Y-78060660D03*
%TO.N,+3.3V*%
X161500000Y-79000000D03*
%TO.N,GND*%
X156750000Y-67500000D03*
X162250000Y-69500000D03*
X158850000Y-71250000D03*
X158250000Y-75500000D03*
X156500000Y-72750000D03*
X156000000Y-73250000D03*
%TD*%
D40*
%TO.N,Net-(U2-SCL)*%
X158250000Y-72000000D02*
X158250000Y-72500000D01*
X158250000Y-72500000D02*
X158812500Y-73062500D01*
X158812500Y-73062500D02*
X158812500Y-73625000D01*
D41*
%TO.N,+3.3V*%
X167390959Y-70500000D02*
X167000000Y-70500000D01*
%TO.N,GND*%
X164300000Y-71550000D02*
X164500000Y-71750000D01*
X164300000Y-71000000D02*
X164300000Y-71550000D01*
%TO.N,+3.3V*%
X162750000Y-71750000D02*
X162750000Y-71000000D01*
D40*
%TO.N,Net-(SW1-B)*%
X160250000Y-74750000D02*
X160250000Y-74500000D01*
X158250000Y-76750000D02*
X160250000Y-74750000D01*
X158000000Y-78250000D02*
X158250000Y-78500000D01*
X157587078Y-78250000D02*
X158000000Y-78250000D01*
X157315000Y-77977922D02*
X157587078Y-78250000D01*
X157315000Y-77062500D02*
X157315000Y-77977922D01*
D41*
%TO.N,+3.3V*%
X161500000Y-79000000D02*
X161000000Y-79500000D01*
X161000000Y-79500000D02*
X157750000Y-79500000D01*
X157750000Y-79500000D02*
X157500000Y-79250000D01*
X157500000Y-79250000D02*
X157500000Y-78948585D01*
X157500000Y-78948585D02*
X156000707Y-77449292D01*
X169500000Y-77000000D02*
X169500000Y-72609041D01*
X168000000Y-77073165D02*
X168000000Y-77000000D01*
X167369632Y-77703533D02*
X168000000Y-77073165D01*
X169500000Y-72609041D02*
X167390959Y-70500000D01*
X166446099Y-78000000D02*
X165250000Y-78000000D01*
%TO.N,GND*%
X166100659Y-78960000D02*
X165860659Y-79200000D01*
X166446099Y-78960000D02*
X166100659Y-78960000D01*
X156000000Y-78510660D02*
X155550000Y-78060660D01*
X156000000Y-79000000D02*
X156000000Y-78510660D01*
%TO.N,+3.3V*%
X156000000Y-75000000D02*
X156000000Y-77450000D01*
D40*
%TO.N,GND*%
X157250000Y-67000000D02*
X156750000Y-67500000D01*
X157450000Y-67000000D02*
X157250000Y-67000000D01*
%TO.N,/SCL*%
X161250000Y-75562500D02*
X162191308Y-75562500D01*
X162191308Y-75562500D02*
X162279808Y-75651000D01*
X166550000Y-74000000D02*
X166800000Y-74000000D01*
X162279808Y-75651000D02*
X164899000Y-75651000D01*
X164899000Y-75651000D02*
X166550000Y-74000000D01*
%TO.N,Net-(U3-PA13)*%
X162545008Y-74782000D02*
X163968000Y-74782000D01*
X163968000Y-74782000D02*
X165849000Y-72901000D01*
X165849000Y-72901000D02*
X165849000Y-70639993D01*
%TO.N,/SDA*%
X161250000Y-75062500D02*
X162258408Y-75062500D01*
X164300000Y-75250000D02*
X166800000Y-72750000D01*
X162258408Y-75062500D02*
X162445908Y-75250000D01*
X162445908Y-75250000D02*
X164300000Y-75250000D01*
%TO.N,Net-(U3-PA13)*%
X161250000Y-74562500D02*
X162325508Y-74562500D01*
X162325508Y-74562500D02*
X162545008Y-74782000D01*
X165849000Y-70639993D02*
X167988993Y-68500000D01*
X167988993Y-68500000D02*
X168696099Y-68500000D01*
%TO.N,Net-(U3-PA14)*%
X166696099Y-68500000D02*
X165351000Y-69845099D01*
X165351000Y-69845099D02*
X165351000Y-72818892D01*
X165351000Y-72818892D02*
X163788892Y-74381000D01*
X163788892Y-74381000D02*
X162711108Y-74381000D01*
X162711108Y-74381000D02*
X162392608Y-74062500D01*
X162392608Y-74062500D02*
X161310000Y-74062500D01*
%TO.N,Net-(U2-OUT+)*%
X160950000Y-70000000D02*
X161900057Y-70000000D01*
X161900057Y-70000000D02*
X162001057Y-70101000D01*
X162001057Y-70101000D02*
X163962313Y-70101000D01*
X163962313Y-70101000D02*
X166563313Y-67500000D01*
X166563313Y-67500000D02*
X167696099Y-67500000D01*
X167696099Y-67500000D02*
X168696099Y-66500000D01*
%TO.N,Net-(U2-OUT-)*%
X160950000Y-69000000D02*
X161708824Y-69000000D01*
X161708824Y-69000000D02*
X161976000Y-68732824D01*
X161976000Y-68732824D02*
X161976000Y-68267176D01*
X161976000Y-68267176D02*
X161399000Y-67690176D01*
X161399000Y-67690176D02*
X161399000Y-67001057D01*
X161399000Y-67001057D02*
X161900057Y-66500000D01*
X161900057Y-66500000D02*
X166696099Y-66500000D01*
%TO.N,GND*%
X160950000Y-69500000D02*
X162250000Y-69500000D01*
%TO.N,+3.3V*%
X162750000Y-71025000D02*
X161475000Y-71025000D01*
X161475000Y-71025000D02*
X160950000Y-70500000D01*
%TO.N,Net-(U2-EN)*%
X159812500Y-72964940D02*
X160242000Y-72535440D01*
X160242000Y-71117924D02*
X159151000Y-70026924D01*
X159812500Y-73625000D02*
X159812500Y-72964940D01*
X159151000Y-70026924D02*
X159151000Y-68666100D01*
X160242000Y-72535440D02*
X160242000Y-71117924D01*
X160152000Y-66359790D02*
X159615210Y-65823000D01*
X156834790Y-65823000D02*
X155123000Y-67534790D01*
X155123000Y-67534790D02*
X155123000Y-69898924D01*
X160152000Y-67665100D02*
X160152000Y-66359790D01*
X159615210Y-65823000D02*
X156834790Y-65823000D01*
X159151000Y-68666100D02*
X160152000Y-67665100D01*
X155123000Y-69898924D02*
X155724076Y-70500000D01*
X155724076Y-70500000D02*
X156550000Y-70500000D01*
%TO.N,Net-(U2-IN{slash}TRIG)*%
X159751000Y-66525890D02*
X159751000Y-67499000D01*
X155524000Y-69732824D02*
X155524000Y-67700890D01*
X155524000Y-67700890D02*
X157000890Y-66224000D01*
X157000890Y-66224000D02*
X159449110Y-66224000D01*
X156550000Y-70000000D02*
X155791176Y-70000000D01*
X159449110Y-66224000D02*
X159751000Y-66525890D01*
X159841000Y-72369340D02*
X159312500Y-72897840D01*
X159751000Y-67499000D02*
X158750000Y-68500000D01*
X158750000Y-68500000D02*
X158750000Y-70300057D01*
X158750000Y-70300057D02*
X159841000Y-71391057D01*
X159841000Y-71391057D02*
X159841000Y-72369340D01*
X155791176Y-70000000D02*
X155524000Y-69732824D01*
X159312500Y-72897840D02*
X159312500Y-73625000D01*
%TO.N,GND*%
X159270000Y-71670000D02*
X158850000Y-71250000D01*
X159270000Y-72000000D02*
X159270000Y-71670000D01*
X158187500Y-75562500D02*
X158250000Y-75500000D01*
X157375000Y-75562500D02*
X158187500Y-75562500D01*
%TO.N,+3.3V*%
X160950000Y-70500000D02*
X160191176Y-70500000D01*
X160191176Y-70500000D02*
X159924000Y-70232824D01*
X160191176Y-68500000D02*
X160950000Y-68500000D01*
X159924000Y-70232824D02*
X159924000Y-68767176D01*
X159924000Y-68767176D02*
X160191176Y-68500000D01*
D41*
%TO.N,GND*%
X156230000Y-72480000D02*
X156500000Y-72750000D01*
X156230000Y-72000000D02*
X156230000Y-72480000D01*
X156000000Y-74040000D02*
X156000000Y-73250000D01*
D40*
X167946099Y-78175000D02*
X167841099Y-78175000D01*
X167841099Y-78175000D02*
X167516099Y-78500000D01*
D41*
X167446099Y-79500000D02*
X167446099Y-79350000D01*
X167446099Y-79350000D02*
X167056099Y-78960000D01*
X167446099Y-79500000D02*
X167446099Y-78570000D01*
X167446099Y-78570000D02*
X167516099Y-78500000D01*
X166446099Y-78960000D02*
X167056099Y-78960000D01*
X167056099Y-78960000D02*
X167516099Y-78500000D01*
%TO.N,+3.3V*%
X166446099Y-78000000D02*
X166742566Y-77703533D01*
X166742566Y-77703533D02*
X167369632Y-77703533D01*
%TO.N,VBUS*%
X167196099Y-71500000D02*
X167399595Y-71500000D01*
X167399595Y-71500000D02*
X168750000Y-72850405D01*
X168750000Y-72850405D02*
X168750000Y-79156099D01*
X168750000Y-79156099D02*
X168406099Y-79500000D01*
D40*
%TO.N,/SCL*%
X167082035Y-74000000D02*
X167196099Y-74000000D01*
%TO.N,Net-(U3-PA13)*%
X168696099Y-68589892D02*
X168696099Y-68500000D01*
%TO.N,Net-(U2-REG)*%
X156550000Y-68500000D02*
X157500000Y-68500000D01*
X157500000Y-68500000D02*
X159000000Y-67000000D01*
%TO.N,Net-(U2-SCL)*%
X158250000Y-72000000D02*
X158250000Y-69874076D01*
X158250000Y-69874076D02*
X157375924Y-69000000D01*
X157375924Y-69000000D02*
X156550000Y-69000000D01*
%TO.N,Net-(U2-SDA)*%
X157250000Y-72000000D02*
X157576000Y-71674000D01*
X157308824Y-69500000D02*
X156550000Y-69500000D01*
X157576000Y-71674000D02*
X157576000Y-69767176D01*
X157576000Y-69767176D02*
X157308824Y-69500000D01*
X158312500Y-73625000D02*
X158312500Y-73062500D01*
X158312500Y-73062500D02*
X157250000Y-72000000D01*
%TO.N,+3.3V*%
X156000000Y-75000000D02*
X157312500Y-75000000D01*
X157312500Y-75000000D02*
X157375000Y-75062500D01*
%TD*%
M02*
