%TF.GenerationSoftware,KiCad,Pcbnew,9.0.4*%
%TF.CreationDate,2025-09-16T00:43:47+09:00*%
%TF.ProjectId,vibration_module,76696272-6174-4696-9f6e-5f6d6f64756c,rev?*%
%TF.SameCoordinates,Original*%
%TF.FileFunction,Soldermask,Top*%
%TF.FilePolarity,Negative*%
%FSLAX46Y46*%
G04 Gerber Fmt 4.6, Leading zero omitted, Abs format (unit mm)*
G04 Created by KiCad (PCBNEW 9.0.4) date 2025-09-16 00:43:47*
%MOMM*%
%LPD*%
G01*
G04 APERTURE LIST*
G04 Aperture macros list*
%AMRoundRect*
0 Rectangle with rounded corners*
0 $1 Rounding radius*
0 $2 $3 $4 $5 $6 $7 $8 $9 X,Y pos of 4 corners*
0 Add a 4 corners polygon primitive as box body*
4,1,4,$2,$3,$4,$5,$6,$7,$8,$9,$2,$3,0*
0 Add four circle primitives for the rounded corners*
1,1,$1+$1,$2,$3*
1,1,$1+$1,$4,$5*
1,1,$1+$1,$6,$7*
1,1,$1+$1,$8,$9*
0 Add four rect primitives between the rounded corners*
20,1,$1+$1,$2,$3,$4,$5,0*
20,1,$1+$1,$4,$5,$6,$7,0*
20,1,$1+$1,$6,$7,$8,$9,0*
20,1,$1+$1,$8,$9,$2,$3,0*%
%AMFreePoly0*
4,1,6,0.180000,-0.105000,-0.180000,-0.105000,-0.180000,-0.075000,0.000000,0.105000,0.180000,0.105000,0.180000,-0.105000,0.180000,-0.105000,$1*%
%AMFreePoly1*
4,1,6,0.180000,-0.105000,0.000000,-0.105000,-0.180000,0.075000,-0.180000,0.105000,0.180000,0.105000,0.180000,-0.105000,0.180000,-0.105000,$1*%
%AMFreePoly2*
4,1,6,0.180000,-0.075000,0.180000,-0.105000,-0.180000,-0.105000,-0.180000,0.105000,0.000000,0.105000,0.180000,-0.075000,0.180000,-0.075000,$1*%
%AMFreePoly3*
4,1,6,0.180000,0.075000,0.000000,-0.105000,-0.180000,-0.105000,-0.180000,0.105000,0.180000,0.105000,0.180000,0.075000,0.180000,0.075000,$1*%
%AMFreePoly4*
4,1,14,0.230680,0.111820,0.364320,-0.021820,0.377500,-0.053640,0.377500,-0.080000,0.364320,-0.111820,0.332500,-0.125000,-0.332500,-0.125000,-0.364320,-0.111820,-0.377500,-0.080000,-0.377500,0.080000,-0.364320,0.111820,-0.332500,0.125000,0.198860,0.125000,0.230680,0.111820,0.230680,0.111820,$1*%
%AMFreePoly5*
4,1,14,0.364320,0.111820,0.377500,0.080000,0.377500,0.053640,0.364320,0.021820,0.230680,-0.111820,0.198860,-0.125000,-0.332500,-0.125000,-0.364320,-0.111820,-0.377500,-0.080000,-0.377500,0.080000,-0.364320,0.111820,-0.332500,0.125000,0.332500,0.125000,0.364320,0.111820,0.364320,0.111820,$1*%
%AMFreePoly6*
4,1,14,0.111820,0.364320,0.125000,0.332500,0.125000,-0.332500,0.111820,-0.364320,0.080000,-0.377500,-0.080000,-0.377500,-0.111820,-0.364320,-0.125000,-0.332500,-0.125000,0.198860,-0.111820,0.230680,0.021820,0.364320,0.053640,0.377500,0.080000,0.377500,0.111820,0.364320,0.111820,0.364320,$1*%
%AMFreePoly7*
4,1,14,-0.021820,0.364320,0.111820,0.230680,0.125000,0.198860,0.125000,-0.332500,0.111820,-0.364320,0.080000,-0.377500,-0.080000,-0.377500,-0.111820,-0.364320,-0.125000,-0.332500,-0.125000,0.332500,-0.111820,0.364320,-0.080000,0.377500,-0.053640,0.377500,-0.021820,0.364320,-0.021820,0.364320,$1*%
%AMFreePoly8*
4,1,14,0.364320,0.111820,0.377500,0.080000,0.377500,-0.080000,0.364320,-0.111820,0.332500,-0.125000,-0.198860,-0.125000,-0.230680,-0.111820,-0.364320,0.021820,-0.377500,0.053640,-0.377500,0.080000,-0.364320,0.111820,-0.332500,0.125000,0.332500,0.125000,0.364320,0.111820,0.364320,0.111820,$1*%
%AMFreePoly9*
4,1,14,0.364320,0.111820,0.377500,0.080000,0.377500,-0.080000,0.364320,-0.111820,0.332500,-0.125000,-0.332500,-0.125000,-0.364320,-0.111820,-0.377500,-0.080000,-0.377500,-0.053640,-0.364320,-0.021820,-0.230680,0.111820,-0.198860,0.125000,0.332500,0.125000,0.364320,0.111820,0.364320,0.111820,$1*%
%AMFreePoly10*
4,1,14,0.111820,0.364320,0.125000,0.332500,0.125000,-0.198860,0.111820,-0.230680,-0.021820,-0.364320,-0.053640,-0.377500,-0.080000,-0.377500,-0.111820,-0.364320,-0.125000,-0.332500,-0.125000,0.332500,-0.111820,0.364320,-0.080000,0.377500,0.080000,0.377500,0.111820,0.364320,0.111820,0.364320,$1*%
%AMFreePoly11*
4,1,14,0.111820,0.364320,0.125000,0.332500,0.125000,-0.332500,0.111820,-0.364320,0.080000,-0.377500,0.053640,-0.377500,0.021820,-0.364320,-0.111820,-0.230680,-0.125000,-0.198860,-0.125000,0.332500,-0.111820,0.364320,-0.080000,0.377500,0.080000,0.377500,0.111820,0.364320,0.111820,0.364320,$1*%
G04 Aperture macros list end*
%ADD10O,1.300000X0.800000*%
%ADD11RoundRect,0.200000X0.450000X-0.200000X0.450000X0.200000X-0.450000X0.200000X-0.450000X-0.200000X0*%
%ADD12C,2.000000*%
%ADD13R,2.000000X2.000000*%
%ADD14C,1.000000*%
%ADD15R,1.000000X1.000000*%
%ADD16RoundRect,0.140000X0.140000X0.170000X-0.140000X0.170000X-0.140000X-0.170000X0.140000X-0.170000X0*%
%ADD17RoundRect,0.140000X-0.170000X0.140000X-0.170000X-0.140000X0.170000X-0.140000X0.170000X0.140000X0*%
%ADD18RoundRect,0.120000X0.000000X-0.169706X0.169706X0.000000X0.000000X0.169706X-0.169706X0.000000X0*%
%ADD19FreePoly0,0.000000*%
%ADD20FreePoly1,0.000000*%
%ADD21FreePoly2,0.000000*%
%ADD22FreePoly3,0.000000*%
%ADD23RoundRect,0.225000X0.225000X0.250000X-0.225000X0.250000X-0.225000X-0.250000X0.225000X-0.250000X0*%
%ADD24RoundRect,0.075000X-0.650000X-0.075000X0.650000X-0.075000X0.650000X0.075000X-0.650000X0.075000X0*%
%ADD25RoundRect,0.135000X-0.135000X-0.185000X0.135000X-0.185000X0.135000X0.185000X-0.135000X0.185000X0*%
%ADD26RoundRect,0.135000X0.135000X0.185000X-0.135000X0.185000X-0.135000X-0.185000X0.135000X-0.185000X0*%
%ADD27FreePoly4,0.000000*%
%ADD28RoundRect,0.062500X-0.375000X-0.062500X0.375000X-0.062500X0.375000X0.062500X-0.375000X0.062500X0*%
%ADD29FreePoly5,0.000000*%
%ADD30FreePoly6,0.000000*%
%ADD31RoundRect,0.062500X-0.062500X-0.375000X0.062500X-0.375000X0.062500X0.375000X-0.062500X0.375000X0*%
%ADD32FreePoly7,0.000000*%
%ADD33FreePoly8,0.000000*%
%ADD34FreePoly9,0.000000*%
%ADD35FreePoly10,0.000000*%
%ADD36FreePoly11,0.000000*%
%ADD37RoundRect,0.140000X0.170000X-0.140000X0.170000X0.140000X-0.170000X0.140000X-0.170000X-0.140000X0*%
%ADD38RoundRect,0.225000X-0.225000X-0.250000X0.225000X-0.250000X0.225000X0.250000X-0.225000X0.250000X0*%
G04 APERTURE END LIST*
D10*
%TO.C,J1*%
X166800000Y-71500000D03*
X166800000Y-72750000D03*
X166800000Y-74000000D03*
D11*
X166800000Y-75250000D03*
%TD*%
D12*
%TO.C,SW1*%
X163250000Y-68000000D03*
X163250000Y-73080000D03*
D13*
X163250000Y-78160000D03*
%TD*%
D14*
%TO.C,TP1*%
X166696099Y-68500000D03*
%TD*%
%TO.C,TP2*%
X168696099Y-68500000D03*
%TD*%
D15*
%TO.C,TP3*%
X166696099Y-66500000D03*
%TD*%
%TO.C,TP4*%
X168696099Y-66500000D03*
%TD*%
D16*
%TO.C,C8*%
X168406099Y-79500000D03*
X167446099Y-79500000D03*
%TD*%
D17*
%TO.C,C9*%
X166446099Y-78000000D03*
X166446099Y-78960000D03*
%TD*%
D18*
%TO.C,U4*%
X167946099Y-78175000D03*
D19*
X168376099Y-78500000D03*
D20*
X168376099Y-77850000D03*
D21*
X167516099Y-78500000D03*
D22*
X167516099Y-77850000D03*
%TD*%
D23*
%TO.C,C7*%
X155950000Y-79250000D03*
X157500000Y-79250000D03*
%TD*%
D24*
%TO.C,U2*%
X160950000Y-68500000D03*
X160950000Y-69000000D03*
X160950000Y-69500000D03*
X160950000Y-70000000D03*
X160950000Y-70500000D03*
X156550000Y-70500000D03*
X156550000Y-70000000D03*
X156550000Y-69500000D03*
X156550000Y-69000000D03*
X156550000Y-68500000D03*
%TD*%
D25*
%TO.C,R4*%
X159270000Y-72000000D03*
X158250000Y-72000000D03*
%TD*%
D26*
%TO.C,R3*%
X156230000Y-72000000D03*
X157250000Y-72000000D03*
%TD*%
D27*
%TO.C,U3*%
X157315000Y-74062500D03*
D28*
X157375000Y-74562500D03*
X157375000Y-75062500D03*
X157375000Y-75562500D03*
X157375000Y-76062500D03*
X157375000Y-76562500D03*
D29*
X157315000Y-77062500D03*
D30*
X157812500Y-77560000D03*
D31*
X158312500Y-77500000D03*
X158812500Y-77500000D03*
X159312500Y-77500000D03*
X159812500Y-77500000D03*
X160312500Y-77500000D03*
D32*
X160812500Y-77560000D03*
D33*
X161310000Y-77062500D03*
D28*
X161250000Y-76562500D03*
X161250000Y-76062500D03*
X161250000Y-75562500D03*
X161250000Y-75062500D03*
X161250000Y-74562500D03*
D34*
X161310000Y-74062500D03*
D35*
X160812500Y-73565000D03*
D31*
X160312500Y-73625000D03*
X159812500Y-73625000D03*
X159312500Y-73625000D03*
X158812500Y-73625000D03*
X158312500Y-73625000D03*
D36*
X157812500Y-73565000D03*
%TD*%
D37*
%TO.C,C6*%
X156000000Y-75000000D03*
X156000000Y-74040000D03*
%TD*%
D38*
%TO.C,C2*%
X162750000Y-71000000D03*
X164300000Y-71000000D03*
%TD*%
%TO.C,C1*%
X157450000Y-67000000D03*
X159000000Y-67000000D03*
%TD*%
M02*
