%TF.GenerationSoftware,KiCad,Pcbnew,9.0.4*%
%TF.CreationDate,2025-09-16T00:43:47+09:00*%
%TF.ProjectId,vibration_module,76696272-6174-4696-9f6e-5f6d6f64756c,rev?*%
%TF.SameCoordinates,Original*%
%TF.FileFunction,Legend,Top*%
%TF.FilePolarity,Positive*%
%FSLAX46Y46*%
G04 Gerber Fmt 4.6, Leading zero omitted, Abs format (unit mm)*
G04 Created by KiCad (PCBNEW 9.0.4) date 2025-09-16 00:43:47*
%MOMM*%
%LPD*%
G01*
G04 APERTURE LIST*
%ADD10C,0.120000*%
%ADD11C,0.140357*%
G04 APERTURE END LIST*
D10*
%TO.C,J1*%
X165940000Y-70960000D02*
X165640000Y-70960000D01*
X165640000Y-70960000D02*
X165640000Y-69890000D01*
X165940000Y-73375000D02*
X165940000Y-70960000D01*
X165940000Y-73375000D02*
X165940000Y-75790000D01*
X165650000Y-75500000D02*
X165350000Y-75500000D01*
X165350000Y-75500000D02*
X165350000Y-76000000D01*
X165940000Y-75790000D02*
X165640000Y-75790000D01*
X165640000Y-75790000D02*
X165640000Y-76860000D01*
%TO.C,C8*%
X168033935Y-79860000D02*
X167818263Y-79860000D01*
X168033935Y-79140000D02*
X167818263Y-79140000D01*
%TO.C,C9*%
X166806099Y-78372164D02*
X166806099Y-78587836D01*
X166086099Y-78372164D02*
X166086099Y-78587836D01*
%TO.C,U4*%
D11*
X167016277Y-77725000D02*
G75*
G02*
X166875921Y-77725000I-70178J0D01*
G01*
X166875921Y-77725000D02*
G75*
G02*
X167016277Y-77725000I70178J0D01*
G01*
D10*
X167446099Y-78915000D02*
X168446099Y-78915000D01*
X167446099Y-77435000D02*
X168446099Y-77435000D01*
%TO.C,C7*%
X156865580Y-78740000D02*
X156584420Y-78740000D01*
X156865580Y-79760000D02*
X156584420Y-79760000D01*
%TO.C,U2*%
X156537500Y-68090000D02*
X156297500Y-67760000D01*
X156777500Y-67760000D01*
X156537500Y-68090000D01*
G36*
X156537500Y-68090000D02*
G01*
X156297500Y-67760000D01*
X156777500Y-67760000D01*
X156537500Y-68090000D01*
G37*
X158750000Y-71110000D02*
X160250000Y-71110000D01*
X158750000Y-71110000D02*
X157250000Y-71110000D01*
X158750000Y-67890000D02*
X160250000Y-67890000D01*
X158750000Y-67890000D02*
X157250000Y-67890000D01*
%TO.C,R4*%
X158606359Y-72380000D02*
X158913641Y-72380000D01*
X158606359Y-71620000D02*
X158913641Y-71620000D01*
%TO.C,R3*%
X156893641Y-71620000D02*
X156586359Y-71620000D01*
X156893641Y-72380000D02*
X156586359Y-72380000D01*
%TO.C,U3*%
X157202500Y-77672500D02*
X157202500Y-77447500D01*
X157427500Y-77672500D02*
X157202500Y-77672500D01*
X161197500Y-73452500D02*
X161422500Y-73452500D01*
X161197500Y-77672500D02*
X161422500Y-77672500D01*
X161422500Y-73452500D02*
X161422500Y-73677500D01*
X161422500Y-77672500D02*
X161422500Y-77447500D01*
X157182500Y-73452500D02*
X156942500Y-73122500D01*
X157422500Y-73122500D01*
X157182500Y-73452500D01*
G36*
X157182500Y-73452500D02*
G01*
X156942500Y-73122500D01*
X157422500Y-73122500D01*
X157182500Y-73452500D01*
G37*
%TO.C,C6*%
X155640000Y-74627836D02*
X155640000Y-74412164D01*
X156360000Y-74627836D02*
X156360000Y-74412164D01*
%TO.C,C2*%
X163384420Y-70490000D02*
X163665580Y-70490000D01*
X163384420Y-71510000D02*
X163665580Y-71510000D01*
%TO.C,C1*%
X158084420Y-66490000D02*
X158365580Y-66490000D01*
X158084420Y-67510000D02*
X158365580Y-67510000D01*
%TD*%
M02*
