%TF.GenerationSoftware,KiCad,Pcbnew,9.0.4*%
%TF.CreationDate,2025-09-16T00:43:47+09:00*%
%TF.ProjectId,vibration_module,76696272-6174-4696-9f6e-5f6d6f64756c,rev?*%
%TF.SameCoordinates,Original*%
%TF.FileFunction,Copper,L4,Bot*%
%TF.FilePolarity,Positive*%
%FSLAX46Y46*%
G04 Gerber Fmt 4.6, Leading zero omitted, Abs format (unit mm)*
G04 Created by KiCad (PCBNEW 9.0.4) date 2025-09-16 00:43:47*
%MOMM*%
%LPD*%
G01*
G04 APERTURE LIST*
G04 Aperture macros list*
%AMRoundRect*
0 Rectangle with rounded corners*
0 $1 Rounding radius*
0 $2 $3 $4 $5 $6 $7 $8 $9 X,Y pos of 4 corners*
0 Add a 4 corners polygon primitive as box body*
4,1,4,$2,$3,$4,$5,$6,$7,$8,$9,$2,$3,0*
0 Add four circle primitives for the rounded corners*
1,1,$1+$1,$2,$3*
1,1,$1+$1,$4,$5*
1,1,$1+$1,$6,$7*
1,1,$1+$1,$8,$9*
0 Add four rect primitives between the rounded corners*
20,1,$1+$1,$2,$3,$4,$5,0*
20,1,$1+$1,$4,$5,$6,$7,0*
20,1,$1+$1,$6,$7,$8,$9,0*
20,1,$1+$1,$8,$9,$2,$3,0*%
G04 Aperture macros list end*
%TA.AperFunction,ComponentPad*%
%ADD10O,1.300000X0.800000*%
%TD*%
%TA.AperFunction,ComponentPad*%
%ADD11RoundRect,0.200000X0.450000X-0.200000X0.450000X0.200000X-0.450000X0.200000X-0.450000X-0.200000X0*%
%TD*%
%TA.AperFunction,ComponentPad*%
%ADD12C,2.000000*%
%TD*%
%TA.AperFunction,ComponentPad*%
%ADD13R,2.000000X2.000000*%
%TD*%
%TA.AperFunction,ComponentPad*%
%ADD14C,1.000000*%
%TD*%
%TA.AperFunction,ComponentPad*%
%ADD15R,1.000000X1.000000*%
%TD*%
%TA.AperFunction,ViaPad*%
%ADD16C,0.500000*%
%TD*%
%TA.AperFunction,Conductor*%
%ADD17C,0.500000*%
%TD*%
%TA.AperFunction,Conductor*%
%ADD18C,0.200000*%
%TD*%
G04 APERTURE END LIST*
D10*
%TO.P,J1,4,Pin_4*%
%TO.N,VBUS*%
X166800000Y-71500000D03*
%TO.P,J1,3,Pin_3*%
%TO.N,/SDA*%
X166800000Y-72750000D03*
%TO.P,J1,2,Pin_2*%
%TO.N,/SCL*%
X166800000Y-74000000D03*
D11*
%TO.P,J1,1,Pin_1*%
%TO.N,GND*%
X166800000Y-75250000D03*
%TD*%
D12*
%TO.P,SW1,3,C*%
%TO.N,GND*%
X163250000Y-68000000D03*
%TO.P,SW1,2,B*%
%TO.N,Net-(SW1-B)*%
X163250000Y-73080000D03*
D13*
%TO.P,SW1,1,A*%
%TO.N,unconnected-(SW1-A-Pad1)*%
X163250000Y-78160000D03*
%TD*%
D14*
%TO.P,TP1,1,1*%
%TO.N,Net-(U3-PA14)*%
X166696099Y-68500000D03*
%TD*%
%TO.P,TP2,1,1*%
%TO.N,Net-(U3-PA13)*%
X168696099Y-68500000D03*
%TD*%
D15*
%TO.P,TP3,1,1*%
%TO.N,Net-(U2-OUT-)*%
X166696099Y-66500000D03*
%TD*%
%TO.P,TP4,1,1*%
%TO.N,Net-(U2-OUT+)*%
X168696099Y-66500000D03*
%TD*%
D16*
%TO.N,+3.3V*%
X167000000Y-70500000D03*
%TO.N,GND*%
X164500000Y-71750000D03*
%TO.N,+3.3V*%
X162750000Y-71750000D03*
X165250000Y-78000000D03*
%TO.N,Net-(SW1-B)*%
X158250000Y-78500000D03*
X160250000Y-74500000D03*
X158250000Y-76750000D03*
%TO.N,+3.3V*%
X168000000Y-77000000D03*
X169500000Y-77000000D03*
%TO.N,GND*%
X165860659Y-79200000D03*
X155550000Y-78060660D03*
%TO.N,+3.3V*%
X161500000Y-79000000D03*
%TO.N,GND*%
X156750000Y-67500000D03*
X162250000Y-69500000D03*
X158850000Y-71250000D03*
X158250000Y-75500000D03*
X156500000Y-72750000D03*
X156000000Y-73250000D03*
%TD*%
D17*
%TO.N,+3.3V*%
X167000000Y-70500000D02*
X164000000Y-70500000D01*
X164000000Y-70500000D02*
X162750000Y-71750000D01*
X165000000Y-77008000D02*
X165000000Y-77750000D01*
X165000000Y-77750000D02*
X165250000Y-78000000D01*
D18*
%TO.N,Net-(SW1-B)*%
X160250000Y-74500000D02*
X161830000Y-74500000D01*
X158250000Y-78500000D02*
X158250000Y-76750000D01*
X161830000Y-74500000D02*
X163250000Y-73080000D01*
D17*
%TO.N,+3.3V*%
X168000000Y-77000000D02*
X169500000Y-77000000D01*
X161500000Y-77008000D02*
X161500000Y-79000000D01*
X165000000Y-77008000D02*
X164701000Y-76709000D01*
X161799000Y-76709000D02*
X161500000Y-77008000D01*
X164701000Y-76709000D02*
X161799000Y-76709000D01*
D18*
%TO.N,GND*%
X163250000Y-68000000D02*
X162750000Y-68000000D01*
%TD*%
%TA.AperFunction,Conductor*%
%TO.N,GND*%
G36*
X162448027Y-66519685D02*
G01*
X162493782Y-66572489D01*
X162503726Y-66641647D01*
X162474701Y-66705203D01*
X162453873Y-66724318D01*
X162380894Y-66777339D01*
X162380894Y-66777340D01*
X163079766Y-67476212D01*
X163037708Y-67487482D01*
X162912292Y-67559890D01*
X162809890Y-67662292D01*
X162737482Y-67787708D01*
X162726212Y-67829765D01*
X162027340Y-67130894D01*
X161967084Y-67213830D01*
X161859897Y-67424197D01*
X161786934Y-67648752D01*
X161750000Y-67881947D01*
X161750000Y-68118052D01*
X161786934Y-68351247D01*
X161859897Y-68575802D01*
X161967087Y-68786174D01*
X162027338Y-68869104D01*
X162027340Y-68869105D01*
X162726212Y-68170233D01*
X162737482Y-68212292D01*
X162809890Y-68337708D01*
X162912292Y-68440110D01*
X163037708Y-68512518D01*
X163079765Y-68523787D01*
X162380893Y-69222658D01*
X162463828Y-69282914D01*
X162674197Y-69390102D01*
X162898752Y-69463065D01*
X162898751Y-69463065D01*
X163131948Y-69500000D01*
X163368052Y-69500000D01*
X163601247Y-69463065D01*
X163825802Y-69390102D01*
X164036163Y-69282918D01*
X164036169Y-69282914D01*
X164119104Y-69222658D01*
X164119105Y-69222658D01*
X163420233Y-68523787D01*
X163462292Y-68512518D01*
X163587708Y-68440110D01*
X163690110Y-68337708D01*
X163762518Y-68212292D01*
X163773787Y-68170233D01*
X164472658Y-68869105D01*
X164472658Y-68869104D01*
X164532914Y-68786169D01*
X164532918Y-68786163D01*
X164640102Y-68575802D01*
X164713065Y-68351247D01*
X164750000Y-68118052D01*
X164750000Y-67881947D01*
X164713065Y-67648752D01*
X164640102Y-67424197D01*
X164532914Y-67213828D01*
X164472658Y-67130894D01*
X164472658Y-67130893D01*
X163773787Y-67829765D01*
X163762518Y-67787708D01*
X163690110Y-67662292D01*
X163587708Y-67559890D01*
X163462292Y-67487482D01*
X163420234Y-67476212D01*
X164119105Y-66777340D01*
X164119104Y-66777339D01*
X164046127Y-66724318D01*
X164003461Y-66668989D01*
X163997482Y-66599375D01*
X164030087Y-66537580D01*
X164090926Y-66503223D01*
X164119012Y-66500000D01*
X165571600Y-66500000D01*
X165638639Y-66519685D01*
X165684394Y-66572489D01*
X165695600Y-66624000D01*
X165695600Y-67047876D01*
X165702007Y-67107483D01*
X165752301Y-67242328D01*
X165752305Y-67242335D01*
X165838551Y-67357544D01*
X165838554Y-67357547D01*
X165953763Y-67443793D01*
X165953770Y-67443797D01*
X166061879Y-67484119D01*
X166117813Y-67525990D01*
X166142230Y-67591454D01*
X166127379Y-67659727D01*
X166087437Y-67703403D01*
X166058317Y-67722860D01*
X166058313Y-67722863D01*
X165918962Y-67862214D01*
X165918959Y-67862218D01*
X165809470Y-68026079D01*
X165809463Y-68026092D01*
X165734049Y-68208160D01*
X165734046Y-68208170D01*
X165695599Y-68401456D01*
X165695599Y-68401459D01*
X165695599Y-68598541D01*
X165695599Y-68598543D01*
X165695598Y-68598543D01*
X165734046Y-68791829D01*
X165734049Y-68791839D01*
X165809463Y-68973907D01*
X165809470Y-68973920D01*
X165918959Y-69137781D01*
X165918962Y-69137785D01*
X166058313Y-69277136D01*
X166058317Y-69277139D01*
X166222178Y-69386628D01*
X166222191Y-69386635D01*
X166404259Y-69462049D01*
X166404264Y-69462051D01*
X166404268Y-69462051D01*
X166404269Y-69462052D01*
X166597555Y-69500500D01*
X166597558Y-69500500D01*
X166794642Y-69500500D01*
X166924681Y-69474632D01*
X166987934Y-69462051D01*
X167170013Y-69386632D01*
X167333881Y-69277139D01*
X167473238Y-69137782D01*
X167582731Y-68973914D01*
X167582733Y-68973907D01*
X167585601Y-68968544D01*
X167587409Y-68969510D01*
X167625371Y-68922397D01*
X167691663Y-68900326D01*
X167759364Y-68917600D01*
X167806978Y-68968734D01*
X167808621Y-68972331D01*
X167809470Y-68973920D01*
X167918959Y-69137781D01*
X167918962Y-69137785D01*
X168058313Y-69277136D01*
X168058317Y-69277139D01*
X168222178Y-69386628D01*
X168222191Y-69386635D01*
X168404259Y-69462049D01*
X168404264Y-69462051D01*
X168404268Y-69462051D01*
X168404269Y-69462052D01*
X168597555Y-69500500D01*
X168597558Y-69500500D01*
X168794642Y-69500500D01*
X168924681Y-69474632D01*
X168987934Y-69462051D01*
X169170013Y-69386632D01*
X169333881Y-69277139D01*
X169473238Y-69137782D01*
X169582731Y-68973914D01*
X169658150Y-68791835D01*
X169670731Y-68728582D01*
X169696599Y-68598543D01*
X169696599Y-68401456D01*
X169658151Y-68208170D01*
X169658150Y-68208169D01*
X169658150Y-68208165D01*
X169658148Y-68208160D01*
X169582734Y-68026092D01*
X169582727Y-68026079D01*
X169473238Y-67862218D01*
X169473235Y-67862214D01*
X169333883Y-67722862D01*
X169319500Y-67713252D01*
X169304760Y-67703403D01*
X169259956Y-67649792D01*
X169251248Y-67580467D01*
X169281402Y-67517439D01*
X169330318Y-67484119D01*
X169438427Y-67443797D01*
X169438426Y-67443797D01*
X169438430Y-67443796D01*
X169553645Y-67357546D01*
X169639895Y-67242331D01*
X169690190Y-67107483D01*
X169696599Y-67047873D01*
X169696598Y-66623997D01*
X169699148Y-66615313D01*
X169697860Y-66606353D01*
X169708837Y-66582316D01*
X169716282Y-66556961D01*
X169723124Y-66551032D01*
X169726885Y-66542797D01*
X169749116Y-66528510D01*
X169769086Y-66511206D01*
X169779601Y-66508918D01*
X169785663Y-66505023D01*
X169820598Y-66500000D01*
X169876000Y-66500000D01*
X169943039Y-66519685D01*
X169988794Y-66572489D01*
X170000000Y-66624000D01*
X170000000Y-76209192D01*
X169980315Y-76276231D01*
X169927511Y-76321986D01*
X169858353Y-76331930D01*
X169828548Y-76323753D01*
X169718917Y-76278343D01*
X169718907Y-76278340D01*
X169573920Y-76249500D01*
X169573918Y-76249500D01*
X168073918Y-76249500D01*
X167926082Y-76249500D01*
X167926080Y-76249500D01*
X167781092Y-76278340D01*
X167781082Y-76278343D01*
X167644511Y-76334912D01*
X167644498Y-76334919D01*
X167521584Y-76417048D01*
X167521580Y-76417051D01*
X167417051Y-76521580D01*
X167417048Y-76521584D01*
X167334919Y-76644498D01*
X167334912Y-76644511D01*
X167278343Y-76781082D01*
X167278340Y-76781092D01*
X167249500Y-76926079D01*
X167249500Y-76926082D01*
X167249500Y-77073918D01*
X167249500Y-77073920D01*
X167249499Y-77073920D01*
X167278340Y-77218907D01*
X167278343Y-77218917D01*
X167334912Y-77355488D01*
X167334919Y-77355501D01*
X167417048Y-77478415D01*
X167417051Y-77478419D01*
X167521580Y-77582948D01*
X167521584Y-77582951D01*
X167644498Y-77665080D01*
X167644511Y-77665087D01*
X167728925Y-77700052D01*
X167781087Y-77721658D01*
X167781091Y-77721658D01*
X167781092Y-77721659D01*
X167926079Y-77750500D01*
X167926082Y-77750500D01*
X169573920Y-77750500D01*
X169671462Y-77731096D01*
X169718913Y-77721658D01*
X169828547Y-77676245D01*
X169898017Y-77668777D01*
X169960496Y-77700052D01*
X169996148Y-77760141D01*
X170000000Y-77790807D01*
X170000000Y-79626000D01*
X169980315Y-79693039D01*
X169927511Y-79738794D01*
X169876000Y-79750000D01*
X164669584Y-79750000D01*
X164602545Y-79730315D01*
X164556790Y-79677511D01*
X164546846Y-79608353D01*
X164575871Y-79544797D01*
X164595273Y-79526734D01*
X164600940Y-79522490D01*
X164607546Y-79517546D01*
X164693796Y-79402331D01*
X164744091Y-79267483D01*
X164750500Y-79207873D01*
X164750499Y-78791012D01*
X164770183Y-78723975D01*
X164822987Y-78678220D01*
X164892146Y-78668276D01*
X164921951Y-78676453D01*
X165031082Y-78721656D01*
X165031087Y-78721658D01*
X165031091Y-78721658D01*
X165031092Y-78721659D01*
X165176079Y-78750500D01*
X165176082Y-78750500D01*
X165323920Y-78750500D01*
X165421462Y-78731096D01*
X165468913Y-78721658D01*
X165605495Y-78665084D01*
X165728416Y-78582951D01*
X165832951Y-78478416D01*
X165915084Y-78355495D01*
X165971658Y-78218913D01*
X165981096Y-78171462D01*
X166000500Y-78073920D01*
X166000500Y-77926079D01*
X165971659Y-77781092D01*
X165971658Y-77781091D01*
X165971658Y-77781087D01*
X165962982Y-77760141D01*
X165915087Y-77644511D01*
X165915080Y-77644498D01*
X165832951Y-77521584D01*
X165832948Y-77521580D01*
X165786819Y-77475451D01*
X165753334Y-77414128D01*
X165750500Y-77387770D01*
X165750500Y-76934079D01*
X165721659Y-76789092D01*
X165721658Y-76789091D01*
X165721658Y-76789087D01*
X165665084Y-76652505D01*
X165620200Y-76585331D01*
X165583960Y-76531092D01*
X165582954Y-76529586D01*
X165582952Y-76529584D01*
X165179421Y-76126052D01*
X165179414Y-76126046D01*
X165105729Y-76076812D01*
X165105729Y-76076813D01*
X165056491Y-76043913D01*
X164919917Y-75987343D01*
X164919907Y-75987340D01*
X164774920Y-75958500D01*
X164774918Y-75958500D01*
X161725082Y-75958500D01*
X161725080Y-75958500D01*
X161580092Y-75987340D01*
X161580086Y-75987342D01*
X161443508Y-76043914D01*
X161443496Y-76043921D01*
X161394269Y-76076813D01*
X161320588Y-76126044D01*
X161320580Y-76126050D01*
X160917047Y-76529584D01*
X160917045Y-76529586D01*
X160890422Y-76569433D01*
X160879800Y-76585331D01*
X160857280Y-76619033D01*
X160834914Y-76652507D01*
X160778343Y-76789082D01*
X160778340Y-76789092D01*
X160749500Y-76934079D01*
X160749500Y-76934082D01*
X160749500Y-78926082D01*
X160749500Y-79073918D01*
X160749500Y-79073920D01*
X160749499Y-79073920D01*
X160778340Y-79218907D01*
X160778343Y-79218917D01*
X160834912Y-79355488D01*
X160834919Y-79355501D01*
X160917048Y-79478415D01*
X160917051Y-79478419D01*
X160976951Y-79538319D01*
X161010436Y-79599642D01*
X161005452Y-79669334D01*
X160963580Y-79725267D01*
X160898116Y-79749684D01*
X160889270Y-79750000D01*
X155124000Y-79750000D01*
X155056961Y-79730315D01*
X155011206Y-79677511D01*
X155000000Y-79626000D01*
X155000000Y-76823920D01*
X157499499Y-76823920D01*
X157528340Y-76968907D01*
X157528343Y-76968917D01*
X157584912Y-77105488D01*
X157584919Y-77105501D01*
X157628602Y-77170876D01*
X157649480Y-77237553D01*
X157649500Y-77239767D01*
X157649500Y-78010232D01*
X157629815Y-78077271D01*
X157628603Y-78079122D01*
X157584914Y-78144508D01*
X157528343Y-78281082D01*
X157528340Y-78281092D01*
X157499500Y-78426079D01*
X157499500Y-78426082D01*
X157499500Y-78573918D01*
X157499500Y-78573920D01*
X157499499Y-78573920D01*
X157528340Y-78718907D01*
X157528343Y-78718917D01*
X157584912Y-78855488D01*
X157584919Y-78855501D01*
X157667048Y-78978415D01*
X157667051Y-78978419D01*
X157771580Y-79082948D01*
X157771584Y-79082951D01*
X157894498Y-79165080D01*
X157894511Y-79165087D01*
X158031082Y-79221656D01*
X158031087Y-79221658D01*
X158031091Y-79221658D01*
X158031092Y-79221659D01*
X158176079Y-79250500D01*
X158176082Y-79250500D01*
X158323920Y-79250500D01*
X158421462Y-79231096D01*
X158468913Y-79221658D01*
X158605495Y-79165084D01*
X158728416Y-79082951D01*
X158832951Y-78978416D01*
X158915084Y-78855495D01*
X158971658Y-78718913D01*
X158982366Y-78665080D01*
X159000500Y-78573920D01*
X159000500Y-78426079D01*
X158971659Y-78281092D01*
X158971658Y-78281091D01*
X158971658Y-78281087D01*
X158915084Y-78144505D01*
X158871396Y-78079121D01*
X158850520Y-78012444D01*
X158850500Y-78010232D01*
X158850500Y-77239767D01*
X158870185Y-77172728D01*
X158871398Y-77170876D01*
X158915080Y-77105501D01*
X158915080Y-77105500D01*
X158915084Y-77105495D01*
X158971658Y-76968913D01*
X159000500Y-76823918D01*
X159000500Y-76676082D01*
X159000500Y-76676079D01*
X158971659Y-76531092D01*
X158971658Y-76531091D01*
X158971658Y-76531087D01*
X158971036Y-76529586D01*
X158915087Y-76394511D01*
X158915080Y-76394498D01*
X158832951Y-76271584D01*
X158832948Y-76271580D01*
X158728419Y-76167051D01*
X158728415Y-76167048D01*
X158605501Y-76084919D01*
X158605488Y-76084912D01*
X158468917Y-76028343D01*
X158468907Y-76028340D01*
X158323920Y-75999500D01*
X158323918Y-75999500D01*
X158176082Y-75999500D01*
X158176080Y-75999500D01*
X158031092Y-76028340D01*
X158031082Y-76028343D01*
X157894511Y-76084912D01*
X157894498Y-76084919D01*
X157771584Y-76167048D01*
X157771580Y-76167051D01*
X157667051Y-76271580D01*
X157667048Y-76271584D01*
X157584919Y-76394498D01*
X157584912Y-76394511D01*
X157528343Y-76531082D01*
X157528340Y-76531092D01*
X157499500Y-76676079D01*
X157499500Y-76676082D01*
X157499500Y-76823918D01*
X157499500Y-76823920D01*
X157499499Y-76823920D01*
X155000000Y-76823920D01*
X155000000Y-75506582D01*
X165650001Y-75506582D01*
X165656408Y-75577102D01*
X165656409Y-75577107D01*
X165706981Y-75739396D01*
X165794927Y-75884877D01*
X165915122Y-76005072D01*
X166060604Y-76093019D01*
X166060603Y-76093019D01*
X166222894Y-76143590D01*
X166222893Y-76143590D01*
X166293427Y-76149999D01*
X166549999Y-76149999D01*
X167050000Y-76149999D01*
X167306581Y-76149999D01*
X167377102Y-76143591D01*
X167377107Y-76143590D01*
X167539396Y-76093018D01*
X167684877Y-76005072D01*
X167805072Y-75884877D01*
X167893019Y-75739395D01*
X167943590Y-75577106D01*
X167950000Y-75506572D01*
X167950000Y-75500000D01*
X167050000Y-75500000D01*
X167050000Y-76149999D01*
X166549999Y-76149999D01*
X166550000Y-76149998D01*
X166550000Y-75500000D01*
X165650001Y-75500000D01*
X165650001Y-75506582D01*
X155000000Y-75506582D01*
X155000000Y-74573920D01*
X159499499Y-74573920D01*
X159528340Y-74718907D01*
X159528343Y-74718917D01*
X159584912Y-74855488D01*
X159584919Y-74855501D01*
X159667048Y-74978415D01*
X159667051Y-74978419D01*
X159771580Y-75082948D01*
X159771584Y-75082951D01*
X159894498Y-75165080D01*
X159894511Y-75165087D01*
X160031082Y-75221656D01*
X160031087Y-75221658D01*
X160031091Y-75221658D01*
X160031092Y-75221659D01*
X160176079Y-75250500D01*
X160176082Y-75250500D01*
X160323920Y-75250500D01*
X160421462Y-75231096D01*
X160468913Y-75221658D01*
X160605495Y-75165084D01*
X160670876Y-75121398D01*
X160737553Y-75100520D01*
X160739767Y-75100500D01*
X161743331Y-75100500D01*
X161743347Y-75100501D01*
X161750943Y-75100501D01*
X161909054Y-75100501D01*
X161909057Y-75100501D01*
X162061785Y-75059577D01*
X162111904Y-75030639D01*
X162198716Y-74980520D01*
X162310520Y-74868716D01*
X162310520Y-74868714D01*
X162320728Y-74858507D01*
X162320730Y-74858504D01*
X162646437Y-74532796D01*
X162707758Y-74499313D01*
X162772433Y-74502547D01*
X162898632Y-74543553D01*
X162986110Y-74557408D01*
X163131903Y-74580500D01*
X163131908Y-74580500D01*
X163368097Y-74580500D01*
X163601368Y-74543553D01*
X163634468Y-74532798D01*
X163825992Y-74470568D01*
X164036433Y-74363343D01*
X164227510Y-74224517D01*
X164394517Y-74057510D01*
X164533343Y-73866433D01*
X164640568Y-73655992D01*
X164713553Y-73431368D01*
X164733392Y-73306109D01*
X164750500Y-73198097D01*
X164750500Y-72961902D01*
X164713553Y-72728631D01*
X164640566Y-72504003D01*
X164584002Y-72392991D01*
X164533343Y-72293567D01*
X164394517Y-72102490D01*
X164227510Y-71935483D01*
X164036433Y-71796657D01*
X164036432Y-71796656D01*
X164036430Y-71796655D01*
X164008495Y-71782421D01*
X163957699Y-71734446D01*
X163940905Y-71666625D01*
X163963443Y-71600490D01*
X163977097Y-71584269D01*
X164274551Y-71286816D01*
X164335872Y-71253334D01*
X164362230Y-71250500D01*
X165530392Y-71250500D01*
X165597431Y-71270185D01*
X165643186Y-71322989D01*
X165653130Y-71392147D01*
X165652010Y-71398690D01*
X165649500Y-71411309D01*
X165649500Y-71588695D01*
X165684103Y-71762658D01*
X165684106Y-71762667D01*
X165751983Y-71926540D01*
X165751990Y-71926553D01*
X165838557Y-72056109D01*
X165859435Y-72122787D01*
X165840950Y-72190167D01*
X165838557Y-72193891D01*
X165751990Y-72323446D01*
X165751983Y-72323459D01*
X165684106Y-72487332D01*
X165684103Y-72487341D01*
X165649500Y-72661304D01*
X165649500Y-72838695D01*
X165684103Y-73012658D01*
X165684106Y-73012667D01*
X165751983Y-73176540D01*
X165751990Y-73176553D01*
X165838557Y-73306109D01*
X165859435Y-73372787D01*
X165840950Y-73440167D01*
X165838557Y-73443891D01*
X165751990Y-73573446D01*
X165751983Y-73573459D01*
X165684106Y-73737332D01*
X165684103Y-73737341D01*
X165649500Y-73911304D01*
X165649500Y-74088695D01*
X165684103Y-74262658D01*
X165684106Y-74262667D01*
X165751984Y-74426542D01*
X165751985Y-74426543D01*
X165751987Y-74426547D01*
X165787080Y-74479067D01*
X165790573Y-74484294D01*
X165811451Y-74550971D01*
X165793588Y-74617334D01*
X165706982Y-74760599D01*
X165706980Y-74760603D01*
X165656409Y-74922893D01*
X165650000Y-74993427D01*
X165650000Y-75000000D01*
X166750272Y-75000000D01*
X166658386Y-75038060D01*
X166588060Y-75108386D01*
X166550000Y-75200272D01*
X166550000Y-75299728D01*
X166588060Y-75391614D01*
X166658386Y-75461940D01*
X166750272Y-75500000D01*
X166849728Y-75500000D01*
X166941614Y-75461940D01*
X167011940Y-75391614D01*
X167050000Y-75299728D01*
X167050000Y-75200272D01*
X167011940Y-75108386D01*
X166941614Y-75038060D01*
X166849728Y-75000000D01*
X167949999Y-75000000D01*
X167949999Y-74993417D01*
X167943591Y-74922897D01*
X167943590Y-74922892D01*
X167893018Y-74760603D01*
X167806410Y-74617336D01*
X167788574Y-74549782D01*
X167809424Y-74484298D01*
X167848013Y-74426547D01*
X167915894Y-74262666D01*
X167923483Y-74224517D01*
X167950499Y-74088695D01*
X167950500Y-74088693D01*
X167950500Y-73911306D01*
X167950499Y-73911304D01*
X167915896Y-73737341D01*
X167915893Y-73737332D01*
X167848016Y-73573459D01*
X167848014Y-73573455D01*
X167848013Y-73573453D01*
X167761442Y-73443891D01*
X167740564Y-73377214D01*
X167759048Y-73309834D01*
X167761442Y-73306109D01*
X167777352Y-73282296D01*
X167848013Y-73176547D01*
X167915894Y-73012666D01*
X167925991Y-72961908D01*
X167950499Y-72838695D01*
X167950500Y-72838693D01*
X167950500Y-72661306D01*
X167950499Y-72661304D01*
X167915896Y-72487341D01*
X167915893Y-72487332D01*
X167848016Y-72323459D01*
X167848014Y-72323455D01*
X167848013Y-72323453D01*
X167761442Y-72193891D01*
X167740564Y-72127214D01*
X167759048Y-72059834D01*
X167761442Y-72056109D01*
X167819702Y-71968917D01*
X167848013Y-71926547D01*
X167915894Y-71762666D01*
X167921508Y-71734446D01*
X167950499Y-71588695D01*
X167950500Y-71588693D01*
X167950500Y-71411306D01*
X167950499Y-71411304D01*
X167915896Y-71237341D01*
X167915893Y-71237332D01*
X167848016Y-71073459D01*
X167848009Y-71073446D01*
X167749464Y-70925965D01*
X167749461Y-70925961D01*
X167727745Y-70904245D01*
X167694260Y-70842922D01*
X167699244Y-70773230D01*
X167700865Y-70769111D01*
X167721658Y-70718913D01*
X167750500Y-70573918D01*
X167750500Y-70426082D01*
X167750500Y-70426079D01*
X167721659Y-70281092D01*
X167721658Y-70281091D01*
X167721658Y-70281087D01*
X167721656Y-70281082D01*
X167665087Y-70144511D01*
X167665080Y-70144498D01*
X167582951Y-70021584D01*
X167582948Y-70021580D01*
X167478419Y-69917051D01*
X167478415Y-69917048D01*
X167355501Y-69834919D01*
X167355488Y-69834912D01*
X167218917Y-69778343D01*
X167218907Y-69778340D01*
X167073920Y-69749500D01*
X167073918Y-69749500D01*
X163926082Y-69749500D01*
X163926080Y-69749500D01*
X163781092Y-69778340D01*
X163781086Y-69778342D01*
X163644508Y-69834914D01*
X163644496Y-69834921D01*
X163595269Y-69867813D01*
X163521588Y-69917044D01*
X163521580Y-69917050D01*
X162167048Y-71271583D01*
X162156869Y-71286818D01*
X162124455Y-71335331D01*
X162104685Y-71364918D01*
X162084916Y-71394504D01*
X162084912Y-71394511D01*
X162028343Y-71531082D01*
X162028340Y-71531092D01*
X161999500Y-71676079D01*
X161999500Y-71676082D01*
X161999500Y-71823918D01*
X161999500Y-71823920D01*
X161999499Y-71823920D01*
X162028340Y-71968907D01*
X162028343Y-71968917D01*
X162065016Y-72057453D01*
X162072485Y-72126922D01*
X162050773Y-72177790D01*
X161966659Y-72293563D01*
X161859433Y-72504003D01*
X161786446Y-72728631D01*
X161749500Y-72961902D01*
X161749500Y-73198097D01*
X161786447Y-73431369D01*
X161786447Y-73431372D01*
X161827450Y-73557564D01*
X161829445Y-73627405D01*
X161797200Y-73683563D01*
X161617582Y-73863182D01*
X161556262Y-73896666D01*
X161529903Y-73899500D01*
X160739767Y-73899500D01*
X160672728Y-73879815D01*
X160670876Y-73878602D01*
X160605501Y-73834919D01*
X160605488Y-73834912D01*
X160468917Y-73778343D01*
X160468907Y-73778340D01*
X160323920Y-73749500D01*
X160323918Y-73749500D01*
X160176082Y-73749500D01*
X160176080Y-73749500D01*
X160031092Y-73778340D01*
X160031082Y-73778343D01*
X159894511Y-73834912D01*
X159894498Y-73834919D01*
X159771584Y-73917048D01*
X159771580Y-73917051D01*
X159667051Y-74021580D01*
X159667048Y-74021584D01*
X159584919Y-74144498D01*
X159584912Y-74144511D01*
X159528343Y-74281082D01*
X159528340Y-74281092D01*
X159499500Y-74426079D01*
X159499500Y-74426082D01*
X159499500Y-74573918D01*
X159499500Y-74573920D01*
X159499499Y-74573920D01*
X155000000Y-74573920D01*
X155000000Y-66624000D01*
X155019685Y-66556961D01*
X155072489Y-66511206D01*
X155124000Y-66500000D01*
X162380988Y-66500000D01*
X162448027Y-66519685D01*
G37*
%TD.AperFunction*%
%TD*%
M02*
