M48
; DRILL file {KiCad 9.0.4} date 2025-09-21T15:40:18+0900
; FORMAT={-:-/ absolute / metric / decimal}
; #@! TF.CreationDate,2025-09-21T15:40:18+09:00
; #@! TF.GenerationSoftware,Kicad,Pcbnew,9.0.4
; #@! TF.FileFunction,Plated,1,2,PTH
FMAT,2
METRIC
; #@! TA.AperFunction,Plated,PTH,ViaDrill
T1C0.300
; #@! TA.AperFunction,Plated,PTH,ComponentDrill
T2C0.500
; #@! TA.AperFunction,Plated,PTH,ComponentDrill
T3C1.100
%
G90
G05
T1
X155.55Y-78.061
X156.0Y-73.25
X156.5Y-72.75
X156.75Y-67.5
X158.25Y-75.5
X158.25Y-76.75
X158.25Y-78.5
X158.85Y-71.25
X160.25Y-74.5
X161.5Y-79.0
X162.25Y-69.5
X162.75Y-71.75
X164.5Y-71.75
X165.25Y-78.0
X165.861Y-79.2
X167.0Y-70.5
X168.0Y-77.0
X169.5Y-77.0
T2
X166.696Y-66.5
X166.696Y-68.5
X166.8Y-71.5
X166.8Y-72.75
X166.8Y-74.0
X166.8Y-75.25
X168.696Y-66.5
X168.696Y-68.5
T3
X163.25Y-68.0
X163.25Y-73.08
X163.25Y-78.16
M30
