%TF.GenerationSoftware,KiCad,Pcbnew,9.0.4*%
%TF.CreationDate,2025-09-29T23:55:38+09:00*%
%TF.ProjectId,vibration_module,76696272-6174-4696-9f6e-5f6d6f64756c,rev?*%
%TF.SameCoordinates,Original*%
%TF.FileFunction,Legend,Top*%
%TF.FilePolarity,Positive*%
%FSLAX46Y46*%
G04 Gerber Fmt 4.6, Leading zero omitted, Abs format (unit mm)*
G04 Created by KiCad (PCBNEW 9.0.4) date 2025-09-29 23:55:38*
%MOMM*%
%LPD*%
G01*
G04 APERTURE LIST*
%ADD10C,0.120000*%
%ADD11C,0.140357*%
G04 APERTURE END LIST*
D10*
%TO.C,J1*%
X176390000Y-77690000D02*
X177340000Y-77690000D01*
X176390000Y-78140000D02*
X176390000Y-77690000D01*
X176390000Y-81660000D02*
X176390000Y-82110000D01*
X176390000Y-82110000D02*
X183360000Y-82110000D01*
X177340000Y-77690000D02*
X177340000Y-76200000D01*
X183360000Y-77690000D02*
X182410000Y-77690000D01*
X183360000Y-78140000D02*
X183360000Y-77690000D01*
X183360000Y-82110000D02*
X183360000Y-81660000D01*
%TO.C,C9*%
X181610000Y-67357836D02*
X181610000Y-67142164D01*
X180890000Y-67357836D02*
X180890000Y-67142164D01*
%TO.C,U4*%
X181320000Y-68185000D02*
X182320000Y-68185000D01*
X181320000Y-69665000D02*
X182320000Y-69665000D01*
D11*
X180890178Y-68475000D02*
G75*
G02*
X180749822Y-68475000I-70178J0D01*
G01*
X180749822Y-68475000D02*
G75*
G02*
X180890178Y-68475000I70178J0D01*
G01*
D10*
%TO.C,R3*%
X190586359Y-78380000D02*
X190893641Y-78380000D01*
X190586359Y-77620000D02*
X190893641Y-77620000D01*
%TO.C,U3*%
X190422500Y-66890000D02*
X190422500Y-67115000D01*
X190197500Y-66890000D02*
X190422500Y-66890000D01*
X186427500Y-71110000D02*
X186202500Y-71110000D01*
X186427500Y-66890000D02*
X186202500Y-66890000D01*
X186202500Y-71110000D02*
X186202500Y-70885000D01*
X186202500Y-66890000D02*
X186202500Y-67115000D01*
X190682500Y-71440000D02*
X190202500Y-71440000D01*
X190442500Y-71110000D01*
X190682500Y-71440000D01*
G36*
X190682500Y-71440000D02*
G01*
X190202500Y-71440000D01*
X190442500Y-71110000D01*
X190682500Y-71440000D01*
G37*
%TO.C,C8*%
X181857836Y-69890000D02*
X181642164Y-69890000D01*
X181857836Y-70610000D02*
X181642164Y-70610000D01*
%TO.C,C2*%
X190884420Y-74740000D02*
X191165580Y-74740000D01*
X190884420Y-75760000D02*
X191165580Y-75760000D01*
%TO.C,C7*%
X192260000Y-66865580D02*
X192260000Y-66584420D01*
X191240000Y-66865580D02*
X191240000Y-66584420D01*
%TO.C,U2*%
X186140000Y-76950000D02*
X186140000Y-78450000D01*
X186140000Y-76950000D02*
X186140000Y-75450000D01*
X189360000Y-76950000D02*
X189360000Y-78450000D01*
X189360000Y-76950000D02*
X189360000Y-75450000D01*
X186340000Y-79162500D02*
X186010000Y-79402500D01*
X186010000Y-78922500D01*
X186340000Y-79162500D01*
G36*
X186340000Y-79162500D02*
G01*
X186010000Y-79402500D01*
X186010000Y-78922500D01*
X186340000Y-79162500D01*
G37*
%TO.C,C6*%
X191140000Y-69357836D02*
X191140000Y-69142164D01*
X191860000Y-69357836D02*
X191860000Y-69142164D01*
%TO.C,R4*%
X190596359Y-76620000D02*
X190903641Y-76620000D01*
X190596359Y-77380000D02*
X190903641Y-77380000D01*
%TO.C,C1*%
X185760000Y-76109420D02*
X185760000Y-76390580D01*
X184740000Y-76109420D02*
X184740000Y-76390580D01*
%TD*%
M02*
