M48
; DRILL file {KiCad 9.0.4} date 2025-09-29T23:55:50+0900
; FORMAT={-:-/ absolute / metric / decimal}
; #@! TF.CreationDate,2025-09-29T23:55:50+09:00
; #@! TF.GenerationSoftware,Kicad,Pcbnew,9.0.4
; #@! TF.FileFunction,Plated,1,2,PTH
FMAT,2
METRIC
; #@! TA.AperFunction,Plated,PTH,ViaDrill
T1C0.400
; #@! TA.AperFunction,Plated,PTH,ComponentDrill
T2C0.500
; #@! TA.AperFunction,Plated,PTH,ComponentDrill
T3C1.200
%
G90
G05
T1
X178.0Y-76.0
X178.25Y-77.75
X179.457Y-70.871
X179.75Y-71.75
X180.0Y-68.0
X180.75Y-69.0
X184.0Y-75.5
X184.25Y-70.75
X185.021Y-70.236
X186.69Y-74.25
X187.0Y-76.75
X187.5Y-72.5
X187.75Y-73.5
X187.755Y-80.285
X189.0Y-76.25
X189.175Y-75.075
X189.25Y-79.75
X189.764Y-78.979
X190.75Y-71.25
X191.75Y-76.0
X192.0Y-68.75
X192.5Y-66.0
T2
X175.75Y-71.25
X175.75Y-73.5
X187.0Y-81.25
X189.0Y-81.25
T3
X179.5Y-69.2
X184.5Y-67.1
M30
