M48
; DRILL file {KiCad 9.0.5} date 2025-10-30T03:56:51+0900
; FORMAT={-:-/ absolute / inch / decimal}
; #@! TF.CreationDate,2025-10-30T03:56:51+09:00
; #@! TF.GenerationSoftware,Kicad,Pcbnew,9.0.5
; #@! TF.FileFunction,Plated,1,4,PTH
FMAT,2
INCH
; #@! TA.AperFunction,Plated,PTH,ViaDrill
T1C0.0157
; #@! TA.AperFunction,Plated,PTH,ComponentDrill
T2C0.0197
%
G90
G05
T1
X6.2441Y-2.5118
X6.2756Y-2.6496
X6.3061Y-2.9124
X6.3268Y-2.5669
X6.3425Y-2.6063
X6.3425Y-2.6654
X6.3425Y-2.8268
X6.3587Y-2.7138
X6.3587Y-2.7555
X6.374Y-2.4016
X6.374Y-2.9606
X6.378Y-2.8504
X6.4252Y-2.6299
X6.4665Y-2.4813
X6.4665Y-2.5207
X6.4764Y-2.9921
X6.4767Y-2.7719
X6.4843Y-2.9488
X6.5236Y-2.7165
X6.5392Y-2.4941
X6.5551Y-2.9646
X6.5551Y-3.0039
X6.5595Y-2.6191
X6.5945Y-2.9646
X6.6811Y-2.8386
X6.685Y-2.8701
X6.689Y-2.5748
X6.7047Y-2.8937
X6.748Y-2.688
X6.7795Y-2.4016
X6.8386Y-2.4882
X6.8386Y-2.563
X6.9291Y-2.3976
T2
X6.2598Y-2.4646
X6.3386Y-2.4646
M30
