M48
; DRILL file {KiCad 9.0.4} date 2025-09-30T01:46:27+0900
; FORMAT={-:-/ absolute / inch / decimal}
; #@! TF.CreationDate,2025-09-30T01:46:27+09:00
; #@! TF.GenerationSoftware,Kicad,Pcbnew,9.0.4
; #@! TF.FileFunction,Plated,1,2,PTH
FMAT,2
INCH
; #@! TA.AperFunction,Plated,PTH,ViaDrill
T1C0.0157
; #@! TA.AperFunction,Plated,PTH,ComponentDrill
T2C0.0197
; #@! TA.AperFunction,Plated,PTH,ComponentDrill
T3C0.0472
%
G90
G05
T1
X7.0079Y-2.9921
X7.0177Y-3.061
X7.0652Y-2.7902
X7.0768Y-2.8248
X7.0866Y-2.6772
X7.1161Y-2.7165
X7.2441Y-2.9724
X7.2539Y-2.7854
X7.2843Y-2.7652
X7.35Y-2.9232
X7.3622Y-3.0217
X7.3819Y-2.8543
X7.3917Y-2.8937
X7.3919Y-3.1608
X7.4409Y-3.002
X7.4479Y-2.9557
X7.4508Y-3.1398
X7.471Y-3.1094
X7.5098Y-2.8051
X7.5492Y-2.9921
X7.5591Y-2.7067
X7.5787Y-2.5984
T2
X6.9193Y-2.8051
X6.9193Y-2.8937
X7.3622Y-3.1988
X7.4409Y-3.1988
T3
X7.0669Y-2.7244
X7.2638Y-2.6417
M30
