%TF.GenerationSoftware,KiCad,Pcbnew,9.0.5*%
%TF.CreationDate,2025-10-30T03:56:51+09:00*%
%TF.ProjectId,vibration_module,76696272-6174-4696-9f6e-5f6d6f64756c,rev?*%
%TF.SameCoordinates,Original*%
%TF.FileFunction,Copper,L2,Inr*%
%TF.FilePolarity,Positive*%
%FSLAX46Y46*%
G04 Gerber Fmt 4.6, Leading zero omitted, Abs format (unit mm)*
G04 Created by KiCad (PCBNEW 9.0.5) date 2025-10-30 03:56:51*
%MOMM*%
%LPD*%
G01*
G04 APERTURE LIST*
%TA.AperFunction,ComponentPad*%
%ADD10R,1.000000X1.000000*%
%TD*%
%TA.AperFunction,ViaPad*%
%ADD11C,0.800000*%
%TD*%
G04 APERTURE END LIST*
D10*
%TO.N,Net-(U3-OUT-)*%
%TO.C,TP2*%
X159000000Y-62600000D03*
%TD*%
%TO.N,Net-(U3-OUT+)*%
%TO.C,TP1*%
X161000000Y-62600000D03*
%TD*%
D11*
%TO.N,+3.3V*%
X164700000Y-74900000D03*
X166612523Y-66525000D03*
X163200000Y-66800000D03*
X160700000Y-65200000D03*
%TO.N,IN{slash}TRIG*%
X166096014Y-63350473D03*
X165700000Y-69000000D03*
%TO.N,GND*%
X169900000Y-65400000D03*
X171400000Y-68275000D03*
%TO.N,+3.3V*%
X164250000Y-63025234D03*
%TO.N,GND*%
X164250000Y-64025234D03*
X161510000Y-69990000D03*
%TO.N,+3.3V*%
X161100000Y-67700000D03*
X161510000Y-68930000D03*
%TO.N,GND*%
X161900000Y-75200000D03*
X158600000Y-63800000D03*
X159400000Y-67300000D03*
X161100000Y-66200000D03*
X173700000Y-63200000D03*
X173700000Y-65100000D03*
%TO.N,+3.3V*%
X161900000Y-61000000D03*
%TO.N,GND*%
X169700000Y-72100000D03*
X169800000Y-72900000D03*
X170300000Y-73500000D03*
%TO.N,+3.3V*%
X176000000Y-60900000D03*
%TO.N,GND*%
X172200000Y-61000000D03*
%TO.N,+3.3V*%
X164500000Y-76000000D03*
%TO.N,GND*%
X167500000Y-75300000D03*
X166500000Y-75300000D03*
X166500000Y-76300000D03*
X162000000Y-72400000D03*
%TO.N,NRST*%
X160175000Y-73975000D03*
X164507582Y-70406640D03*
X161100000Y-71800000D03*
%TD*%
%TA.AperFunction,Conductor*%
%TO.N,GND*%
G36*
X161677120Y-60206069D02*
G01*
X161711687Y-60223682D01*
X161739120Y-60251115D01*
X161756733Y-60285682D01*
X161762802Y-60324000D01*
X161756733Y-60362318D01*
X161739120Y-60396885D01*
X161711687Y-60424318D01*
X161686258Y-60438559D01*
X161664547Y-60447552D01*
X161633836Y-60460272D01*
X161633824Y-60460278D01*
X161565677Y-60499624D01*
X161565655Y-60499638D01*
X161503215Y-60547550D01*
X161503208Y-60547556D01*
X161447556Y-60603208D01*
X161447550Y-60603215D01*
X161399638Y-60665655D01*
X161399624Y-60665677D01*
X161360278Y-60733824D01*
X161360272Y-60733837D01*
X161330148Y-60806565D01*
X161309774Y-60882600D01*
X161299500Y-60960633D01*
X161299500Y-61039366D01*
X161309774Y-61117399D01*
X161309775Y-61117403D01*
X161330149Y-61193438D01*
X161347084Y-61234322D01*
X161360272Y-61266162D01*
X161360278Y-61266175D01*
X161399624Y-61334322D01*
X161399638Y-61334344D01*
X161447550Y-61396784D01*
X161447556Y-61396791D01*
X161503208Y-61452443D01*
X161503215Y-61452449D01*
X161565655Y-61500361D01*
X161565660Y-61500364D01*
X161565665Y-61500368D01*
X161565675Y-61500374D01*
X161565677Y-61500375D01*
X161633824Y-61539721D01*
X161633832Y-61539724D01*
X161633836Y-61539727D01*
X161706562Y-61569851D01*
X161782597Y-61590225D01*
X161860641Y-61600500D01*
X161860648Y-61600500D01*
X161939352Y-61600500D01*
X161939359Y-61600500D01*
X162017403Y-61590225D01*
X162093438Y-61569851D01*
X162166164Y-61539727D01*
X162166171Y-61539722D01*
X162166175Y-61539721D01*
X162234106Y-61500500D01*
X162234335Y-61500368D01*
X162296786Y-61452448D01*
X162352448Y-61396786D01*
X162400368Y-61334335D01*
X162439727Y-61266164D01*
X162469851Y-61193438D01*
X162490225Y-61117403D01*
X162500500Y-61039359D01*
X162500500Y-60960641D01*
X162490225Y-60882597D01*
X162469851Y-60806562D01*
X162439727Y-60733836D01*
X162439724Y-60733832D01*
X162439721Y-60733824D01*
X162400375Y-60665677D01*
X162400374Y-60665675D01*
X162400368Y-60665665D01*
X162400364Y-60665660D01*
X162400361Y-60665655D01*
X162352449Y-60603215D01*
X162352443Y-60603208D01*
X162296791Y-60547556D01*
X162296784Y-60547550D01*
X162234344Y-60499638D01*
X162234322Y-60499624D01*
X162166175Y-60460278D01*
X162166163Y-60460272D01*
X162135462Y-60447556D01*
X162113743Y-60438559D01*
X162080668Y-60418292D01*
X162055472Y-60388791D01*
X162040625Y-60352949D01*
X162037580Y-60314273D01*
X162046636Y-60276549D01*
X162066906Y-60243470D01*
X162096407Y-60218274D01*
X162132249Y-60203427D01*
X162161198Y-60200000D01*
X175560538Y-60200000D01*
X175598856Y-60206069D01*
X175633423Y-60223682D01*
X175660856Y-60251115D01*
X175678469Y-60285682D01*
X175684538Y-60324000D01*
X175678469Y-60362318D01*
X175660856Y-60396885D01*
X175636023Y-60422377D01*
X175603213Y-60447552D01*
X175603208Y-60447556D01*
X175547556Y-60503208D01*
X175547550Y-60503215D01*
X175499638Y-60565655D01*
X175499624Y-60565677D01*
X175460278Y-60633824D01*
X175460272Y-60633837D01*
X175430148Y-60706565D01*
X175409774Y-60782600D01*
X175399500Y-60860633D01*
X175399500Y-60939366D01*
X175409774Y-61017399D01*
X175409775Y-61017403D01*
X175430149Y-61093438D01*
X175440074Y-61117399D01*
X175460272Y-61166162D01*
X175460278Y-61166175D01*
X175499624Y-61234322D01*
X175499638Y-61234344D01*
X175547550Y-61296784D01*
X175547556Y-61296791D01*
X175603208Y-61352443D01*
X175603215Y-61352449D01*
X175665655Y-61400361D01*
X175665660Y-61400364D01*
X175665665Y-61400368D01*
X175665675Y-61400374D01*
X175665677Y-61400375D01*
X175733824Y-61439721D01*
X175733832Y-61439724D01*
X175733836Y-61439727D01*
X175806562Y-61469851D01*
X175882597Y-61490225D01*
X175942837Y-61498156D01*
X175959691Y-61500375D01*
X175960641Y-61500500D01*
X175960648Y-61500500D01*
X176039352Y-61500500D01*
X176039359Y-61500500D01*
X176117403Y-61490225D01*
X176193438Y-61469851D01*
X176266164Y-61439727D01*
X176306298Y-61416554D01*
X176342514Y-61402651D01*
X176381257Y-61400620D01*
X176418731Y-61410660D01*
X176451269Y-61431789D01*
X176475684Y-61461938D01*
X176489589Y-61498156D01*
X176492297Y-61524662D01*
X176415217Y-74782600D01*
X176404827Y-76569851D01*
X176400717Y-77276721D01*
X176394425Y-77315003D01*
X176376612Y-77349467D01*
X176349020Y-77376740D01*
X176314351Y-77394152D01*
X176276719Y-77400000D01*
X158124000Y-77400000D01*
X158085682Y-77393931D01*
X158051115Y-77376318D01*
X158023682Y-77348885D01*
X158006069Y-77314318D01*
X158000000Y-77276000D01*
X158000000Y-75960633D01*
X163899500Y-75960633D01*
X163899500Y-76039366D01*
X163909774Y-76117399D01*
X163909775Y-76117403D01*
X163930149Y-76193438D01*
X163954033Y-76251099D01*
X163960272Y-76266162D01*
X163960278Y-76266175D01*
X163999624Y-76334322D01*
X163999638Y-76334344D01*
X164047550Y-76396784D01*
X164047556Y-76396791D01*
X164103208Y-76452443D01*
X164103215Y-76452449D01*
X164165655Y-76500361D01*
X164165660Y-76500364D01*
X164165665Y-76500368D01*
X164165675Y-76500374D01*
X164165677Y-76500375D01*
X164233824Y-76539721D01*
X164233832Y-76539724D01*
X164233836Y-76539727D01*
X164306562Y-76569851D01*
X164382597Y-76590225D01*
X164460641Y-76600500D01*
X164460648Y-76600500D01*
X164539352Y-76600500D01*
X164539359Y-76600500D01*
X164617403Y-76590225D01*
X164693438Y-76569851D01*
X164766164Y-76539727D01*
X164766171Y-76539722D01*
X164766175Y-76539721D01*
X164794094Y-76523601D01*
X164834335Y-76500368D01*
X164896786Y-76452448D01*
X164952448Y-76396786D01*
X165000368Y-76334335D01*
X165039727Y-76266164D01*
X165069851Y-76193438D01*
X165090225Y-76117403D01*
X165100500Y-76039359D01*
X165100500Y-75960641D01*
X165090225Y-75882597D01*
X165069851Y-75806562D01*
X165039727Y-75733836D01*
X165039724Y-75733832D01*
X165039721Y-75733824D01*
X165000375Y-75665677D01*
X165000374Y-75665675D01*
X165000368Y-75665665D01*
X165000364Y-75665660D01*
X165000361Y-75665655D01*
X164955800Y-75607582D01*
X164937288Y-75573488D01*
X164930218Y-75535341D01*
X164935283Y-75496878D01*
X164951985Y-75461861D01*
X164978690Y-75433720D01*
X164992170Y-75424711D01*
X165034335Y-75400368D01*
X165096786Y-75352448D01*
X165152448Y-75296786D01*
X165200368Y-75234335D01*
X165239727Y-75166164D01*
X165269851Y-75093438D01*
X165290225Y-75017403D01*
X165300500Y-74939359D01*
X165300500Y-74860641D01*
X165290225Y-74782597D01*
X165269851Y-74706562D01*
X165239727Y-74633836D01*
X165239724Y-74633832D01*
X165239721Y-74633824D01*
X165200375Y-74565677D01*
X165200374Y-74565675D01*
X165200368Y-74565665D01*
X165200364Y-74565660D01*
X165200361Y-74565655D01*
X165152449Y-74503215D01*
X165152443Y-74503208D01*
X165096791Y-74447556D01*
X165096784Y-74447550D01*
X165034344Y-74399638D01*
X165034322Y-74399624D01*
X164966175Y-74360278D01*
X164966162Y-74360272D01*
X164951099Y-74354033D01*
X164893438Y-74330149D01*
X164817403Y-74309775D01*
X164817402Y-74309774D01*
X164817399Y-74309774D01*
X164739366Y-74299500D01*
X164739359Y-74299500D01*
X164660641Y-74299500D01*
X164660633Y-74299500D01*
X164582600Y-74309774D01*
X164506565Y-74330148D01*
X164506563Y-74330148D01*
X164506562Y-74330149D01*
X164485263Y-74338971D01*
X164433837Y-74360272D01*
X164433824Y-74360278D01*
X164365677Y-74399624D01*
X164365655Y-74399638D01*
X164303215Y-74447550D01*
X164303208Y-74447556D01*
X164247556Y-74503208D01*
X164247550Y-74503215D01*
X164199638Y-74565655D01*
X164199624Y-74565677D01*
X164160278Y-74633824D01*
X164160272Y-74633837D01*
X164130148Y-74706565D01*
X164109774Y-74782600D01*
X164099500Y-74860633D01*
X164099500Y-74939366D01*
X164109774Y-75017399D01*
X164109775Y-75017403D01*
X164130149Y-75093438D01*
X164154033Y-75151099D01*
X164160272Y-75166162D01*
X164160278Y-75166175D01*
X164199624Y-75234322D01*
X164199638Y-75234344D01*
X164244199Y-75292417D01*
X164262711Y-75326512D01*
X164269781Y-75364658D01*
X164264716Y-75403122D01*
X164248014Y-75438138D01*
X164221309Y-75466279D01*
X164207827Y-75475288D01*
X164165670Y-75499629D01*
X164165655Y-75499638D01*
X164103215Y-75547550D01*
X164103208Y-75547556D01*
X164047556Y-75603208D01*
X164047550Y-75603215D01*
X163999638Y-75665655D01*
X163999624Y-75665677D01*
X163960278Y-75733824D01*
X163960272Y-75733837D01*
X163930148Y-75806565D01*
X163909774Y-75882600D01*
X163899500Y-75960633D01*
X158000000Y-75960633D01*
X158000000Y-73935633D01*
X159574500Y-73935633D01*
X159574500Y-74014366D01*
X159584774Y-74092399D01*
X159584775Y-74092403D01*
X159605149Y-74168438D01*
X159629033Y-74226099D01*
X159635272Y-74241162D01*
X159635278Y-74241175D01*
X159674624Y-74309322D01*
X159674638Y-74309344D01*
X159722550Y-74371784D01*
X159722556Y-74371791D01*
X159778208Y-74427443D01*
X159778215Y-74427449D01*
X159840655Y-74475361D01*
X159840660Y-74475364D01*
X159840665Y-74475368D01*
X159840675Y-74475374D01*
X159840677Y-74475375D01*
X159908824Y-74514721D01*
X159908832Y-74514724D01*
X159908836Y-74514727D01*
X159981562Y-74544851D01*
X160057597Y-74565225D01*
X160135641Y-74575500D01*
X160135648Y-74575500D01*
X160214352Y-74575500D01*
X160214359Y-74575500D01*
X160292403Y-74565225D01*
X160368438Y-74544851D01*
X160441164Y-74514727D01*
X160441171Y-74514722D01*
X160441175Y-74514721D01*
X160469094Y-74498601D01*
X160509335Y-74475368D01*
X160571786Y-74427448D01*
X160627448Y-74371786D01*
X160675368Y-74309335D01*
X160714727Y-74241164D01*
X160744851Y-74168438D01*
X160765225Y-74092403D01*
X160775500Y-74014359D01*
X160775500Y-73935641D01*
X160765225Y-73857597D01*
X160744851Y-73781562D01*
X160714727Y-73708836D01*
X160714724Y-73708832D01*
X160714721Y-73708824D01*
X160675375Y-73640677D01*
X160675374Y-73640675D01*
X160675368Y-73640665D01*
X160675364Y-73640660D01*
X160675361Y-73640655D01*
X160627449Y-73578215D01*
X160627443Y-73578208D01*
X160571791Y-73522556D01*
X160571784Y-73522550D01*
X160509344Y-73474638D01*
X160509322Y-73474624D01*
X160441175Y-73435278D01*
X160441162Y-73435272D01*
X160426099Y-73429033D01*
X160368438Y-73405149D01*
X160292403Y-73384775D01*
X160292402Y-73384774D01*
X160292399Y-73384774D01*
X160214366Y-73374500D01*
X160214359Y-73374500D01*
X160135641Y-73374500D01*
X160135633Y-73374500D01*
X160057600Y-73384774D01*
X159981565Y-73405148D01*
X159981563Y-73405148D01*
X159981562Y-73405149D01*
X159960263Y-73413971D01*
X159908837Y-73435272D01*
X159908824Y-73435278D01*
X159840677Y-73474624D01*
X159840655Y-73474638D01*
X159778215Y-73522550D01*
X159778208Y-73522556D01*
X159722556Y-73578208D01*
X159722550Y-73578215D01*
X159674638Y-73640655D01*
X159674624Y-73640677D01*
X159635278Y-73708824D01*
X159635272Y-73708837D01*
X159605148Y-73781565D01*
X159584774Y-73857600D01*
X159574500Y-73935633D01*
X158000000Y-73935633D01*
X158000000Y-71760633D01*
X160499500Y-71760633D01*
X160499500Y-71839366D01*
X160509774Y-71917399D01*
X160509775Y-71917403D01*
X160530149Y-71993438D01*
X160554033Y-72051099D01*
X160560272Y-72066162D01*
X160560278Y-72066175D01*
X160599624Y-72134322D01*
X160599638Y-72134344D01*
X160647550Y-72196784D01*
X160647556Y-72196791D01*
X160703208Y-72252443D01*
X160703215Y-72252449D01*
X160765655Y-72300361D01*
X160765660Y-72300364D01*
X160765665Y-72300368D01*
X160765675Y-72300374D01*
X160765677Y-72300375D01*
X160833824Y-72339721D01*
X160833832Y-72339724D01*
X160833836Y-72339727D01*
X160906562Y-72369851D01*
X160982597Y-72390225D01*
X161060641Y-72400500D01*
X161060648Y-72400500D01*
X161139352Y-72400500D01*
X161139359Y-72400500D01*
X161217403Y-72390225D01*
X161293438Y-72369851D01*
X161366164Y-72339727D01*
X161366171Y-72339722D01*
X161366175Y-72339721D01*
X161394094Y-72323601D01*
X161434335Y-72300368D01*
X161496786Y-72252448D01*
X161552448Y-72196786D01*
X161600368Y-72134335D01*
X161639727Y-72066164D01*
X161669851Y-71993438D01*
X161690225Y-71917403D01*
X161700500Y-71839359D01*
X161700500Y-71760641D01*
X161690225Y-71682597D01*
X161669851Y-71606562D01*
X161639727Y-71533836D01*
X161639724Y-71533832D01*
X161639721Y-71533824D01*
X161600375Y-71465677D01*
X161600374Y-71465675D01*
X161600368Y-71465665D01*
X161600364Y-71465660D01*
X161600361Y-71465655D01*
X161552449Y-71403215D01*
X161552443Y-71403208D01*
X161496791Y-71347556D01*
X161496784Y-71347550D01*
X161434344Y-71299638D01*
X161434322Y-71299624D01*
X161366175Y-71260278D01*
X161366162Y-71260272D01*
X161351099Y-71254033D01*
X161293438Y-71230149D01*
X161217403Y-71209775D01*
X161217402Y-71209774D01*
X161217399Y-71209774D01*
X161139366Y-71199500D01*
X161139359Y-71199500D01*
X161060641Y-71199500D01*
X161060633Y-71199500D01*
X160982600Y-71209774D01*
X160906565Y-71230148D01*
X160906563Y-71230148D01*
X160906562Y-71230149D01*
X160885263Y-71238971D01*
X160833837Y-71260272D01*
X160833824Y-71260278D01*
X160765677Y-71299624D01*
X160765655Y-71299638D01*
X160703215Y-71347550D01*
X160703208Y-71347556D01*
X160647556Y-71403208D01*
X160647550Y-71403215D01*
X160599638Y-71465655D01*
X160599624Y-71465677D01*
X160560278Y-71533824D01*
X160560272Y-71533837D01*
X160530148Y-71606565D01*
X160509774Y-71682600D01*
X160499500Y-71760633D01*
X158000000Y-71760633D01*
X158000000Y-70367273D01*
X163907082Y-70367273D01*
X163907082Y-70446006D01*
X163917356Y-70524039D01*
X163917357Y-70524043D01*
X163937731Y-70600078D01*
X163961615Y-70657739D01*
X163967854Y-70672802D01*
X163967860Y-70672815D01*
X164007206Y-70740962D01*
X164007220Y-70740984D01*
X164055132Y-70803424D01*
X164055138Y-70803431D01*
X164110790Y-70859083D01*
X164110797Y-70859089D01*
X164173237Y-70907001D01*
X164173242Y-70907004D01*
X164173247Y-70907008D01*
X164173257Y-70907014D01*
X164173259Y-70907015D01*
X164241406Y-70946361D01*
X164241414Y-70946364D01*
X164241418Y-70946367D01*
X164314144Y-70976491D01*
X164390179Y-70996865D01*
X164468223Y-71007140D01*
X164468230Y-71007140D01*
X164546934Y-71007140D01*
X164546941Y-71007140D01*
X164624985Y-70996865D01*
X164701020Y-70976491D01*
X164773746Y-70946367D01*
X164773753Y-70946362D01*
X164773757Y-70946361D01*
X164801676Y-70930241D01*
X164841917Y-70907008D01*
X164904368Y-70859088D01*
X164960030Y-70803426D01*
X165007950Y-70740975D01*
X165047309Y-70672804D01*
X165077433Y-70600078D01*
X165097807Y-70524043D01*
X165108082Y-70445999D01*
X165108082Y-70367281D01*
X165097807Y-70289237D01*
X165077433Y-70213202D01*
X165047309Y-70140476D01*
X165047306Y-70140472D01*
X165047303Y-70140464D01*
X165007957Y-70072317D01*
X165007956Y-70072315D01*
X165007950Y-70072305D01*
X165007946Y-70072300D01*
X165007943Y-70072295D01*
X164960031Y-70009855D01*
X164960025Y-70009848D01*
X164904373Y-69954196D01*
X164904366Y-69954190D01*
X164841926Y-69906278D01*
X164841904Y-69906264D01*
X164773757Y-69866918D01*
X164773744Y-69866912D01*
X164758681Y-69860673D01*
X164701020Y-69836789D01*
X164624985Y-69816415D01*
X164624984Y-69816414D01*
X164624981Y-69816414D01*
X164546948Y-69806140D01*
X164546941Y-69806140D01*
X164468223Y-69806140D01*
X164468215Y-69806140D01*
X164390182Y-69816414D01*
X164314147Y-69836788D01*
X164314145Y-69836788D01*
X164314144Y-69836789D01*
X164292845Y-69845611D01*
X164241419Y-69866912D01*
X164241406Y-69866918D01*
X164173259Y-69906264D01*
X164173237Y-69906278D01*
X164110797Y-69954190D01*
X164110790Y-69954196D01*
X164055138Y-70009848D01*
X164055132Y-70009855D01*
X164007220Y-70072295D01*
X164007206Y-70072317D01*
X163967860Y-70140464D01*
X163967854Y-70140477D01*
X163937730Y-70213205D01*
X163917356Y-70289240D01*
X163907082Y-70367273D01*
X158000000Y-70367273D01*
X158000000Y-67660633D01*
X160499500Y-67660633D01*
X160499500Y-67739366D01*
X160509774Y-67817399D01*
X160509775Y-67817403D01*
X160530149Y-67893438D01*
X160554033Y-67951099D01*
X160560272Y-67966162D01*
X160560278Y-67966175D01*
X160599624Y-68034322D01*
X160599638Y-68034344D01*
X160647550Y-68096784D01*
X160647556Y-68096791D01*
X160703208Y-68152443D01*
X160703215Y-68152449D01*
X160765655Y-68200361D01*
X160765660Y-68200364D01*
X160765665Y-68200368D01*
X160765675Y-68200374D01*
X160765677Y-68200375D01*
X160833824Y-68239721D01*
X160833832Y-68239724D01*
X160833836Y-68239727D01*
X160906562Y-68269851D01*
X160982597Y-68290225D01*
X161014256Y-68294393D01*
X161051454Y-68305412D01*
X161083427Y-68327386D01*
X161107044Y-68358165D01*
X161119994Y-68394736D01*
X161121009Y-68433518D01*
X161109990Y-68470716D01*
X161088016Y-68502689D01*
X161085753Y-68505012D01*
X161057550Y-68533215D01*
X161009638Y-68595655D01*
X161009624Y-68595677D01*
X160970278Y-68663824D01*
X160970272Y-68663837D01*
X160940148Y-68736565D01*
X160919774Y-68812600D01*
X160909500Y-68890633D01*
X160909500Y-68969366D01*
X160919774Y-69047399D01*
X160919775Y-69047403D01*
X160940149Y-69123438D01*
X160964033Y-69181099D01*
X160970272Y-69196162D01*
X160970278Y-69196175D01*
X161009624Y-69264322D01*
X161009638Y-69264344D01*
X161057550Y-69326784D01*
X161057556Y-69326791D01*
X161113208Y-69382443D01*
X161113215Y-69382449D01*
X161175655Y-69430361D01*
X161175660Y-69430364D01*
X161175665Y-69430368D01*
X161175675Y-69430374D01*
X161175677Y-69430375D01*
X161243824Y-69469721D01*
X161243832Y-69469724D01*
X161243836Y-69469727D01*
X161316562Y-69499851D01*
X161392597Y-69520225D01*
X161470641Y-69530500D01*
X161470648Y-69530500D01*
X161549352Y-69530500D01*
X161549359Y-69530500D01*
X161627403Y-69520225D01*
X161703438Y-69499851D01*
X161776164Y-69469727D01*
X161776171Y-69469722D01*
X161776175Y-69469721D01*
X161806100Y-69452443D01*
X161844335Y-69430368D01*
X161906786Y-69382448D01*
X161962448Y-69326786D01*
X162010368Y-69264335D01*
X162049727Y-69196164D01*
X162079851Y-69123438D01*
X162100225Y-69047403D01*
X162110500Y-68969359D01*
X162110500Y-68960633D01*
X165099500Y-68960633D01*
X165099500Y-69039366D01*
X165109774Y-69117399D01*
X165109775Y-69117403D01*
X165130149Y-69193438D01*
X165131283Y-69196175D01*
X165160272Y-69266162D01*
X165160278Y-69266175D01*
X165199624Y-69334322D01*
X165199638Y-69334344D01*
X165247550Y-69396784D01*
X165247556Y-69396791D01*
X165303208Y-69452443D01*
X165303215Y-69452449D01*
X165365655Y-69500361D01*
X165365660Y-69500364D01*
X165365665Y-69500368D01*
X165365675Y-69500374D01*
X165365677Y-69500375D01*
X165433824Y-69539721D01*
X165433832Y-69539724D01*
X165433836Y-69539727D01*
X165506562Y-69569851D01*
X165582597Y-69590225D01*
X165660641Y-69600500D01*
X165660648Y-69600500D01*
X165739352Y-69600500D01*
X165739359Y-69600500D01*
X165817403Y-69590225D01*
X165893438Y-69569851D01*
X165966164Y-69539727D01*
X165966171Y-69539722D01*
X165966175Y-69539721D01*
X165999942Y-69520225D01*
X166034335Y-69500368D01*
X166096786Y-69452448D01*
X166152448Y-69396786D01*
X166200368Y-69334335D01*
X166239727Y-69266164D01*
X166269851Y-69193438D01*
X166290225Y-69117403D01*
X166300500Y-69039359D01*
X166300500Y-68960641D01*
X166290225Y-68882597D01*
X166269851Y-68806562D01*
X166239727Y-68733836D01*
X166239724Y-68733832D01*
X166239721Y-68733824D01*
X166200375Y-68665677D01*
X166200374Y-68665675D01*
X166200368Y-68665665D01*
X166200364Y-68665660D01*
X166200361Y-68665655D01*
X166152449Y-68603215D01*
X166152443Y-68603208D01*
X166096791Y-68547556D01*
X166096784Y-68547550D01*
X166034344Y-68499638D01*
X166034322Y-68499624D01*
X165966175Y-68460278D01*
X165966162Y-68460272D01*
X165951099Y-68454033D01*
X165893438Y-68430149D01*
X165817403Y-68409775D01*
X165817402Y-68409774D01*
X165817399Y-68409774D01*
X165739366Y-68399500D01*
X165739359Y-68399500D01*
X165660641Y-68399500D01*
X165660633Y-68399500D01*
X165582600Y-68409774D01*
X165506565Y-68430148D01*
X165506563Y-68430148D01*
X165506562Y-68430149D01*
X165485263Y-68438971D01*
X165433837Y-68460272D01*
X165433824Y-68460278D01*
X165365677Y-68499624D01*
X165365655Y-68499638D01*
X165303215Y-68547550D01*
X165303208Y-68547556D01*
X165247556Y-68603208D01*
X165247550Y-68603215D01*
X165199638Y-68665655D01*
X165199624Y-68665677D01*
X165160278Y-68733824D01*
X165160272Y-68733837D01*
X165130148Y-68806565D01*
X165109774Y-68882600D01*
X165099500Y-68960633D01*
X162110500Y-68960633D01*
X162110500Y-68890641D01*
X162100225Y-68812597D01*
X162079851Y-68736562D01*
X162049727Y-68663836D01*
X162049724Y-68663832D01*
X162049721Y-68663824D01*
X162010375Y-68595677D01*
X162010374Y-68595675D01*
X162010368Y-68595665D01*
X162010364Y-68595660D01*
X162010361Y-68595655D01*
X161962449Y-68533215D01*
X161962443Y-68533208D01*
X161906791Y-68477556D01*
X161906784Y-68477550D01*
X161844344Y-68429638D01*
X161844322Y-68429624D01*
X161776175Y-68390278D01*
X161776162Y-68390272D01*
X161761099Y-68384033D01*
X161703438Y-68360149D01*
X161627403Y-68339775D01*
X161614030Y-68338014D01*
X161595740Y-68335606D01*
X161558542Y-68324586D01*
X161526570Y-68302611D01*
X161502954Y-68271831D01*
X161490005Y-68235260D01*
X161488990Y-68196478D01*
X161500010Y-68159280D01*
X161521985Y-68127308D01*
X161524211Y-68125022D01*
X161552448Y-68096786D01*
X161600368Y-68034335D01*
X161639727Y-67966164D01*
X161669851Y-67893438D01*
X161690225Y-67817403D01*
X161700500Y-67739359D01*
X161700500Y-67660641D01*
X161690225Y-67582597D01*
X161669851Y-67506562D01*
X161639727Y-67433836D01*
X161639724Y-67433832D01*
X161639721Y-67433824D01*
X161600375Y-67365677D01*
X161600374Y-67365675D01*
X161600368Y-67365665D01*
X161600364Y-67365660D01*
X161600361Y-67365655D01*
X161552449Y-67303215D01*
X161552443Y-67303208D01*
X161496791Y-67247556D01*
X161496784Y-67247550D01*
X161434344Y-67199638D01*
X161434322Y-67199624D01*
X161366175Y-67160278D01*
X161366162Y-67160272D01*
X161351099Y-67154033D01*
X161293438Y-67130149D01*
X161217403Y-67109775D01*
X161217402Y-67109774D01*
X161217399Y-67109774D01*
X161139366Y-67099500D01*
X161139359Y-67099500D01*
X161060641Y-67099500D01*
X161060633Y-67099500D01*
X160982600Y-67109774D01*
X160906565Y-67130148D01*
X160906563Y-67130148D01*
X160906562Y-67130149D01*
X160885263Y-67138971D01*
X160833837Y-67160272D01*
X160833824Y-67160278D01*
X160765677Y-67199624D01*
X160765655Y-67199638D01*
X160703215Y-67247550D01*
X160703208Y-67247556D01*
X160647556Y-67303208D01*
X160647550Y-67303215D01*
X160599638Y-67365655D01*
X160599624Y-67365677D01*
X160560278Y-67433824D01*
X160560272Y-67433837D01*
X160530148Y-67506565D01*
X160509774Y-67582600D01*
X160499500Y-67660633D01*
X158000000Y-67660633D01*
X158000000Y-66760633D01*
X162599500Y-66760633D01*
X162599500Y-66839366D01*
X162609774Y-66917399D01*
X162609775Y-66917403D01*
X162630149Y-66993438D01*
X162643372Y-67025361D01*
X162660272Y-67066162D01*
X162660278Y-67066175D01*
X162699624Y-67134322D01*
X162699638Y-67134344D01*
X162747550Y-67196784D01*
X162747556Y-67196791D01*
X162803208Y-67252443D01*
X162803215Y-67252449D01*
X162865655Y-67300361D01*
X162865660Y-67300364D01*
X162865665Y-67300368D01*
X162865675Y-67300374D01*
X162865677Y-67300375D01*
X162933824Y-67339721D01*
X162933832Y-67339724D01*
X162933836Y-67339727D01*
X163006562Y-67369851D01*
X163082597Y-67390225D01*
X163160641Y-67400500D01*
X163160648Y-67400500D01*
X163239352Y-67400500D01*
X163239359Y-67400500D01*
X163317403Y-67390225D01*
X163393438Y-67369851D01*
X163466164Y-67339727D01*
X163466171Y-67339722D01*
X163466175Y-67339721D01*
X163494094Y-67323601D01*
X163534335Y-67300368D01*
X163596786Y-67252448D01*
X163652448Y-67196786D01*
X163700368Y-67134335D01*
X163739727Y-67066164D01*
X163769851Y-66993438D01*
X163790225Y-66917403D01*
X163800500Y-66839359D01*
X163800500Y-66760641D01*
X163790225Y-66682597D01*
X163769851Y-66606562D01*
X163739727Y-66533836D01*
X163739726Y-66533834D01*
X163739722Y-66533826D01*
X163711897Y-66485633D01*
X166012023Y-66485633D01*
X166012023Y-66564366D01*
X166022297Y-66642399D01*
X166022298Y-66642403D01*
X166042672Y-66718438D01*
X166066556Y-66776099D01*
X166072795Y-66791162D01*
X166072801Y-66791175D01*
X166112147Y-66859322D01*
X166112161Y-66859344D01*
X166160073Y-66921784D01*
X166160079Y-66921791D01*
X166215731Y-66977443D01*
X166215738Y-66977449D01*
X166278178Y-67025361D01*
X166278183Y-67025364D01*
X166278188Y-67025368D01*
X166278198Y-67025374D01*
X166278200Y-67025375D01*
X166346347Y-67064721D01*
X166346355Y-67064724D01*
X166346359Y-67064727D01*
X166419085Y-67094851D01*
X166495120Y-67115225D01*
X166573164Y-67125500D01*
X166573171Y-67125500D01*
X166651875Y-67125500D01*
X166651882Y-67125500D01*
X166729926Y-67115225D01*
X166805961Y-67094851D01*
X166878687Y-67064727D01*
X166878694Y-67064722D01*
X166878698Y-67064721D01*
X166906617Y-67048601D01*
X166946858Y-67025368D01*
X167009309Y-66977448D01*
X167064971Y-66921786D01*
X167112891Y-66859335D01*
X167152250Y-66791164D01*
X167182374Y-66718438D01*
X167202748Y-66642403D01*
X167213023Y-66564359D01*
X167213023Y-66485641D01*
X167202748Y-66407597D01*
X167182374Y-66331562D01*
X167152250Y-66258836D01*
X167152247Y-66258832D01*
X167152244Y-66258824D01*
X167112898Y-66190677D01*
X167112897Y-66190675D01*
X167112891Y-66190665D01*
X167112887Y-66190660D01*
X167112884Y-66190655D01*
X167064972Y-66128215D01*
X167064966Y-66128208D01*
X167009314Y-66072556D01*
X167009307Y-66072550D01*
X166946867Y-66024638D01*
X166946845Y-66024624D01*
X166878698Y-65985278D01*
X166878685Y-65985272D01*
X166863622Y-65979033D01*
X166805961Y-65955149D01*
X166729926Y-65934775D01*
X166729925Y-65934774D01*
X166729922Y-65934774D01*
X166651889Y-65924500D01*
X166651882Y-65924500D01*
X166573164Y-65924500D01*
X166573156Y-65924500D01*
X166495123Y-65934774D01*
X166419088Y-65955148D01*
X166419086Y-65955148D01*
X166419085Y-65955149D01*
X166397786Y-65963971D01*
X166346360Y-65985272D01*
X166346347Y-65985278D01*
X166278200Y-66024624D01*
X166278178Y-66024638D01*
X166215738Y-66072550D01*
X166215731Y-66072556D01*
X166160079Y-66128208D01*
X166160073Y-66128215D01*
X166112161Y-66190655D01*
X166112147Y-66190677D01*
X166072801Y-66258824D01*
X166072795Y-66258837D01*
X166042671Y-66331565D01*
X166022297Y-66407600D01*
X166012023Y-66485633D01*
X163711897Y-66485633D01*
X163700375Y-66465677D01*
X163700374Y-66465675D01*
X163700368Y-66465665D01*
X163700364Y-66465660D01*
X163700361Y-66465655D01*
X163652449Y-66403215D01*
X163652443Y-66403208D01*
X163596791Y-66347556D01*
X163596784Y-66347550D01*
X163534344Y-66299638D01*
X163534322Y-66299624D01*
X163466175Y-66260278D01*
X163466162Y-66260272D01*
X163451099Y-66254033D01*
X163393438Y-66230149D01*
X163317403Y-66209775D01*
X163317402Y-66209774D01*
X163317399Y-66209774D01*
X163239366Y-66199500D01*
X163239359Y-66199500D01*
X163160641Y-66199500D01*
X163160633Y-66199500D01*
X163082600Y-66209774D01*
X163006565Y-66230148D01*
X163006563Y-66230148D01*
X163006562Y-66230149D01*
X162985263Y-66238971D01*
X162933837Y-66260272D01*
X162933824Y-66260278D01*
X162865677Y-66299624D01*
X162865655Y-66299638D01*
X162803215Y-66347550D01*
X162803208Y-66347556D01*
X162747556Y-66403208D01*
X162747550Y-66403215D01*
X162699638Y-66465655D01*
X162699624Y-66465677D01*
X162660278Y-66533824D01*
X162660272Y-66533837D01*
X162630148Y-66606565D01*
X162609774Y-66682600D01*
X162599500Y-66760633D01*
X158000000Y-66760633D01*
X158000000Y-65160633D01*
X160099500Y-65160633D01*
X160099500Y-65239366D01*
X160109774Y-65317399D01*
X160109775Y-65317403D01*
X160130149Y-65393438D01*
X160154033Y-65451099D01*
X160160272Y-65466162D01*
X160160278Y-65466175D01*
X160199624Y-65534322D01*
X160199638Y-65534344D01*
X160247550Y-65596784D01*
X160247556Y-65596791D01*
X160303208Y-65652443D01*
X160303215Y-65652449D01*
X160365655Y-65700361D01*
X160365660Y-65700364D01*
X160365665Y-65700368D01*
X160365675Y-65700374D01*
X160365677Y-65700375D01*
X160433824Y-65739721D01*
X160433832Y-65739724D01*
X160433836Y-65739727D01*
X160506562Y-65769851D01*
X160582597Y-65790225D01*
X160660641Y-65800500D01*
X160660648Y-65800500D01*
X160739352Y-65800500D01*
X160739359Y-65800500D01*
X160817403Y-65790225D01*
X160893438Y-65769851D01*
X160966164Y-65739727D01*
X160966171Y-65739722D01*
X160966175Y-65739721D01*
X160994094Y-65723601D01*
X161034335Y-65700368D01*
X161096786Y-65652448D01*
X161152448Y-65596786D01*
X161200368Y-65534335D01*
X161239727Y-65466164D01*
X161269851Y-65393438D01*
X161290225Y-65317403D01*
X161300500Y-65239359D01*
X161300500Y-65160641D01*
X161290225Y-65082597D01*
X161269851Y-65006562D01*
X161239727Y-64933836D01*
X161239724Y-64933832D01*
X161239721Y-64933824D01*
X161200375Y-64865677D01*
X161200374Y-64865675D01*
X161200368Y-64865665D01*
X161200364Y-64865660D01*
X161200361Y-64865655D01*
X161152449Y-64803215D01*
X161152443Y-64803208D01*
X161096791Y-64747556D01*
X161096784Y-64747550D01*
X161034344Y-64699638D01*
X161034322Y-64699624D01*
X160966175Y-64660278D01*
X160966162Y-64660272D01*
X160951099Y-64654033D01*
X160893438Y-64630149D01*
X160817403Y-64609775D01*
X160817402Y-64609774D01*
X160817399Y-64609774D01*
X160739366Y-64599500D01*
X160739359Y-64599500D01*
X160660641Y-64599500D01*
X160660633Y-64599500D01*
X160582600Y-64609774D01*
X160506565Y-64630148D01*
X160506563Y-64630148D01*
X160506562Y-64630149D01*
X160485263Y-64638971D01*
X160433837Y-64660272D01*
X160433824Y-64660278D01*
X160365677Y-64699624D01*
X160365655Y-64699638D01*
X160303215Y-64747550D01*
X160303208Y-64747556D01*
X160247556Y-64803208D01*
X160247550Y-64803215D01*
X160199638Y-64865655D01*
X160199624Y-64865677D01*
X160160278Y-64933824D01*
X160160272Y-64933837D01*
X160130148Y-65006565D01*
X160109774Y-65082600D01*
X160099500Y-65160633D01*
X158000000Y-65160633D01*
X158000000Y-62083780D01*
X158299500Y-62083780D01*
X158299500Y-63116208D01*
X158301335Y-63136408D01*
X158301336Y-63136413D01*
X158315821Y-63182893D01*
X158341007Y-63224558D01*
X158375441Y-63258992D01*
X158417107Y-63284179D01*
X158432603Y-63289007D01*
X158463593Y-63298665D01*
X158463595Y-63298665D01*
X158463597Y-63298666D01*
X158479287Y-63300090D01*
X158483789Y-63300500D01*
X159516210Y-63300499D01*
X159536407Y-63298665D01*
X159582892Y-63284179D01*
X159611206Y-63267062D01*
X159624558Y-63258992D01*
X159624558Y-63258991D01*
X159624561Y-63258990D01*
X159658990Y-63224561D01*
X159684179Y-63182892D01*
X159698665Y-63136407D01*
X159698665Y-63136403D01*
X159698666Y-63136402D01*
X159700499Y-63116219D01*
X159700500Y-63116211D01*
X159700499Y-62083790D01*
X159700498Y-62083780D01*
X160299500Y-62083780D01*
X160299500Y-63116208D01*
X160301335Y-63136408D01*
X160301336Y-63136413D01*
X160315821Y-63182893D01*
X160341007Y-63224558D01*
X160375441Y-63258992D01*
X160417107Y-63284179D01*
X160432603Y-63289007D01*
X160463593Y-63298665D01*
X160463595Y-63298665D01*
X160463597Y-63298666D01*
X160479287Y-63300090D01*
X160483789Y-63300500D01*
X161516210Y-63300499D01*
X161536407Y-63298665D01*
X161582892Y-63284179D01*
X161611206Y-63267062D01*
X161624558Y-63258992D01*
X161624558Y-63258991D01*
X161624561Y-63258990D01*
X161658990Y-63224561D01*
X161684179Y-63182892D01*
X161698665Y-63136407D01*
X161698665Y-63136403D01*
X161698666Y-63136402D01*
X161700500Y-63116219D01*
X161700500Y-62985867D01*
X163649500Y-62985867D01*
X163649500Y-63064600D01*
X163659774Y-63142633D01*
X163659775Y-63142637D01*
X163680149Y-63218672D01*
X163696849Y-63258990D01*
X163710272Y-63291396D01*
X163710278Y-63291409D01*
X163749624Y-63359556D01*
X163749638Y-63359578D01*
X163797550Y-63422018D01*
X163797556Y-63422025D01*
X163853208Y-63477677D01*
X163853215Y-63477683D01*
X163915655Y-63525595D01*
X163915660Y-63525598D01*
X163915665Y-63525602D01*
X163915675Y-63525608D01*
X163915677Y-63525609D01*
X163983824Y-63564955D01*
X163983832Y-63564958D01*
X163983836Y-63564961D01*
X164056562Y-63595085D01*
X164132597Y-63615459D01*
X164210641Y-63625734D01*
X164210648Y-63625734D01*
X164289352Y-63625734D01*
X164289359Y-63625734D01*
X164367403Y-63615459D01*
X164443438Y-63595085D01*
X164516164Y-63564961D01*
X164516171Y-63564956D01*
X164516175Y-63564955D01*
X164552630Y-63543907D01*
X164584335Y-63525602D01*
X164646786Y-63477682D01*
X164702448Y-63422020D01*
X164750368Y-63359569D01*
X164778344Y-63311114D01*
X164778349Y-63311106D01*
X165495514Y-63311106D01*
X165495514Y-63389839D01*
X165499752Y-63422025D01*
X165505789Y-63467876D01*
X165526163Y-63543911D01*
X165547360Y-63595085D01*
X165556286Y-63616635D01*
X165556292Y-63616648D01*
X165595638Y-63684795D01*
X165595652Y-63684817D01*
X165643564Y-63747257D01*
X165643570Y-63747264D01*
X165699222Y-63802916D01*
X165699229Y-63802922D01*
X165761669Y-63850834D01*
X165761674Y-63850837D01*
X165761679Y-63850841D01*
X165761689Y-63850847D01*
X165761691Y-63850848D01*
X165829838Y-63890194D01*
X165829846Y-63890197D01*
X165829850Y-63890200D01*
X165902576Y-63920324D01*
X165978611Y-63940698D01*
X166056655Y-63950973D01*
X166056662Y-63950973D01*
X166135366Y-63950973D01*
X166135373Y-63950973D01*
X166213417Y-63940698D01*
X166289452Y-63920324D01*
X166362178Y-63890200D01*
X166362185Y-63890195D01*
X166362189Y-63890194D01*
X166390108Y-63874074D01*
X166430349Y-63850841D01*
X166492800Y-63802921D01*
X166548462Y-63747259D01*
X166596382Y-63684808D01*
X166630489Y-63625734D01*
X166635735Y-63616648D01*
X166635736Y-63616644D01*
X166635741Y-63616637D01*
X166665865Y-63543911D01*
X166686239Y-63467876D01*
X166696514Y-63389832D01*
X166696514Y-63311114D01*
X166686239Y-63233070D01*
X166665865Y-63157035D01*
X166635741Y-63084309D01*
X166635738Y-63084305D01*
X166635735Y-63084297D01*
X166596389Y-63016150D01*
X166596388Y-63016148D01*
X166596382Y-63016138D01*
X166596378Y-63016133D01*
X166596375Y-63016128D01*
X166548463Y-62953688D01*
X166548457Y-62953681D01*
X166492805Y-62898029D01*
X166492798Y-62898023D01*
X166430358Y-62850111D01*
X166430336Y-62850097D01*
X166362189Y-62810751D01*
X166362176Y-62810745D01*
X166347113Y-62804506D01*
X166289452Y-62780622D01*
X166213417Y-62760248D01*
X166213416Y-62760247D01*
X166213413Y-62760247D01*
X166135380Y-62749973D01*
X166135373Y-62749973D01*
X166056655Y-62749973D01*
X166056647Y-62749973D01*
X165978614Y-62760247D01*
X165902579Y-62780621D01*
X165902577Y-62780621D01*
X165902576Y-62780622D01*
X165881277Y-62789444D01*
X165829851Y-62810745D01*
X165829838Y-62810751D01*
X165761691Y-62850097D01*
X165761669Y-62850111D01*
X165699229Y-62898023D01*
X165699222Y-62898029D01*
X165643570Y-62953681D01*
X165643564Y-62953688D01*
X165595652Y-63016128D01*
X165595638Y-63016150D01*
X165556292Y-63084297D01*
X165556286Y-63084310D01*
X165543074Y-63116208D01*
X165532129Y-63142633D01*
X165526162Y-63157038D01*
X165505788Y-63233073D01*
X165495514Y-63311106D01*
X164778349Y-63311106D01*
X164789721Y-63291409D01*
X164789727Y-63291397D01*
X164819851Y-63218672D01*
X164840225Y-63142637D01*
X164850500Y-63064593D01*
X164850500Y-62985875D01*
X164840225Y-62907831D01*
X164819851Y-62831796D01*
X164789727Y-62759070D01*
X164789724Y-62759066D01*
X164789721Y-62759058D01*
X164750375Y-62690911D01*
X164750374Y-62690909D01*
X164750368Y-62690899D01*
X164750364Y-62690894D01*
X164750361Y-62690889D01*
X164702449Y-62628449D01*
X164702443Y-62628442D01*
X164646791Y-62572790D01*
X164646784Y-62572784D01*
X164584344Y-62524872D01*
X164584322Y-62524858D01*
X164516175Y-62485512D01*
X164516162Y-62485506D01*
X164501099Y-62479267D01*
X164443438Y-62455383D01*
X164367403Y-62435009D01*
X164367402Y-62435008D01*
X164367399Y-62435008D01*
X164289366Y-62424734D01*
X164289359Y-62424734D01*
X164210641Y-62424734D01*
X164210633Y-62424734D01*
X164132600Y-62435008D01*
X164056565Y-62455382D01*
X164056563Y-62455382D01*
X164056562Y-62455383D01*
X164035263Y-62464205D01*
X163983837Y-62485506D01*
X163983824Y-62485512D01*
X163915677Y-62524858D01*
X163915655Y-62524872D01*
X163853215Y-62572784D01*
X163853208Y-62572790D01*
X163797556Y-62628442D01*
X163797550Y-62628449D01*
X163749638Y-62690889D01*
X163749624Y-62690911D01*
X163710278Y-62759058D01*
X163710272Y-62759071D01*
X163680148Y-62831799D01*
X163659774Y-62907834D01*
X163649500Y-62985867D01*
X161700500Y-62985867D01*
X161700500Y-62981816D01*
X161700499Y-62083791D01*
X161698665Y-62063597D01*
X161698665Y-62063593D01*
X161684179Y-62017108D01*
X161684178Y-62017106D01*
X161658992Y-61975441D01*
X161624558Y-61941007D01*
X161582892Y-61915820D01*
X161536404Y-61901334D01*
X161536402Y-61901333D01*
X161516219Y-61899500D01*
X160483791Y-61899500D01*
X160463591Y-61901335D01*
X160463586Y-61901336D01*
X160417106Y-61915821D01*
X160375441Y-61941007D01*
X160341007Y-61975441D01*
X160315820Y-62017107D01*
X160301334Y-62063595D01*
X160301333Y-62063597D01*
X160299500Y-62083780D01*
X159700498Y-62083780D01*
X159698665Y-62063593D01*
X159684179Y-62017108D01*
X159684178Y-62017106D01*
X159658992Y-61975441D01*
X159624558Y-61941007D01*
X159582892Y-61915820D01*
X159536404Y-61901334D01*
X159536402Y-61901333D01*
X159516219Y-61899500D01*
X158483791Y-61899500D01*
X158463591Y-61901335D01*
X158463586Y-61901336D01*
X158417106Y-61915821D01*
X158375441Y-61941007D01*
X158341007Y-61975441D01*
X158315820Y-62017107D01*
X158301334Y-62063595D01*
X158301333Y-62063597D01*
X158299500Y-62083780D01*
X158000000Y-62083780D01*
X158000000Y-60324000D01*
X158006069Y-60285682D01*
X158023682Y-60251115D01*
X158051115Y-60223682D01*
X158085682Y-60206069D01*
X158124000Y-60200000D01*
X161638802Y-60200000D01*
X161677120Y-60206069D01*
G37*
%TD.AperFunction*%
%TD*%
M02*
