%TF.GenerationSoftware,KiCad,Pcbnew,9.0.4*%
%TF.CreationDate,2025-09-30T01:46:27+09:00*%
%TF.ProjectId,vibration_module,76696272-6174-4696-9f6e-5f6d6f64756c,rev?*%
%TF.SameCoordinates,Original*%
%TF.FileFunction,Legend,Top*%
%TF.FilePolarity,Positive*%
%FSLAX46Y46*%
G04 Gerber Fmt 4.6, Leading zero omitted, Abs format (unit mm)*
G04 Created by KiCad (PCBNEW 9.0.4) date 2025-09-30 01:46:27*
%MOMM*%
%LPD*%
G01*
G04 APERTURE LIST*
G04 Aperture macros list*
%AMRoundRect*
0 Rectangle with rounded corners*
0 $1 Rounding radius*
0 $2 $3 $4 $5 $6 $7 $8 $9 X,Y pos of 4 corners*
0 Add a 4 corners polygon primitive as box body*
4,1,4,$2,$3,$4,$5,$6,$7,$8,$9,$2,$3,0*
0 Add four circle primitives for the rounded corners*
1,1,$1+$1,$2,$3*
1,1,$1+$1,$4,$5*
1,1,$1+$1,$6,$7*
1,1,$1+$1,$8,$9*
0 Add four rect primitives between the rounded corners*
20,1,$1+$1,$2,$3,$4,$5,0*
20,1,$1+$1,$4,$5,$6,$7,0*
20,1,$1+$1,$6,$7,$8,$9,0*
20,1,$1+$1,$8,$9,$2,$3,0*%
%AMFreePoly0*
4,1,6,0.180000,0.075000,0.000000,-0.105000,-0.180000,-0.105000,-0.180000,0.105000,0.180000,0.105000,0.180000,0.075000,0.180000,0.075000,$1*%
%AMFreePoly1*
4,1,6,0.180000,-0.075000,0.180000,-0.105000,-0.180000,-0.105000,-0.180000,0.105000,0.000000,0.105000,0.180000,-0.075000,0.180000,-0.075000,$1*%
%AMFreePoly2*
4,1,6,0.180000,-0.105000,0.000000,-0.105000,-0.180000,0.075000,-0.180000,0.105000,0.180000,0.105000,0.180000,-0.105000,0.180000,-0.105000,$1*%
%AMFreePoly3*
4,1,6,0.180000,-0.105000,-0.180000,-0.105000,-0.180000,-0.075000,0.000000,0.105000,0.180000,0.105000,0.180000,-0.105000,0.180000,-0.105000,$1*%
%AMFreePoly4*
4,1,14,0.230680,0.111820,0.364320,-0.021820,0.377500,-0.053640,0.377500,-0.080000,0.364320,-0.111820,0.332500,-0.125000,-0.332500,-0.125000,-0.364320,-0.111820,-0.377500,-0.080000,-0.377500,0.080000,-0.364320,0.111820,-0.332500,0.125000,0.198860,0.125000,0.230680,0.111820,0.230680,0.111820,$1*%
%AMFreePoly5*
4,1,14,0.364320,0.111820,0.377500,0.080000,0.377500,0.053640,0.364320,0.021820,0.230680,-0.111820,0.198860,-0.125000,-0.332500,-0.125000,-0.364320,-0.111820,-0.377500,-0.080000,-0.377500,0.080000,-0.364320,0.111820,-0.332500,0.125000,0.332500,0.125000,0.364320,0.111820,0.364320,0.111820,$1*%
%AMFreePoly6*
4,1,14,0.111820,0.364320,0.125000,0.332500,0.125000,-0.332500,0.111820,-0.364320,0.080000,-0.377500,-0.080000,-0.377500,-0.111820,-0.364320,-0.125000,-0.332500,-0.125000,0.198860,-0.111820,0.230680,0.021820,0.364320,0.053640,0.377500,0.080000,0.377500,0.111820,0.364320,0.111820,0.364320,$1*%
%AMFreePoly7*
4,1,14,-0.021820,0.364320,0.111820,0.230680,0.125000,0.198860,0.125000,-0.332500,0.111820,-0.364320,0.080000,-0.377500,-0.080000,-0.377500,-0.111820,-0.364320,-0.125000,-0.332500,-0.125000,0.332500,-0.111820,0.364320,-0.080000,0.377500,-0.053640,0.377500,-0.021820,0.364320,-0.021820,0.364320,$1*%
%AMFreePoly8*
4,1,14,0.364320,0.111820,0.377500,0.080000,0.377500,-0.080000,0.364320,-0.111820,0.332500,-0.125000,-0.198860,-0.125000,-0.230680,-0.111820,-0.364320,0.021820,-0.377500,0.053640,-0.377500,0.080000,-0.364320,0.111820,-0.332500,0.125000,0.332500,0.125000,0.364320,0.111820,0.364320,0.111820,$1*%
%AMFreePoly9*
4,1,14,0.364320,0.111820,0.377500,0.080000,0.377500,-0.080000,0.364320,-0.111820,0.332500,-0.125000,-0.332500,-0.125000,-0.364320,-0.111820,-0.377500,-0.080000,-0.377500,-0.053640,-0.364320,-0.021820,-0.230680,0.111820,-0.198860,0.125000,0.332500,0.125000,0.364320,0.111820,0.364320,0.111820,$1*%
%AMFreePoly10*
4,1,14,0.111820,0.364320,0.125000,0.332500,0.125000,-0.198860,0.111820,-0.230680,-0.021820,-0.364320,-0.053640,-0.377500,-0.080000,-0.377500,-0.111820,-0.364320,-0.125000,-0.332500,-0.125000,0.332500,-0.111820,0.364320,-0.080000,0.377500,0.080000,0.377500,0.111820,0.364320,0.111820,0.364320,$1*%
%AMFreePoly11*
4,1,14,0.111820,0.364320,0.125000,0.332500,0.125000,-0.332500,0.111820,-0.364320,0.080000,-0.377500,0.053640,-0.377500,0.021820,-0.364320,-0.111820,-0.230680,-0.125000,-0.198860,-0.125000,0.332500,-0.111820,0.364320,-0.080000,0.377500,0.080000,0.377500,0.111820,0.364320,0.111820,0.364320,$1*%
G04 Aperture macros list end*
%ADD10C,0.120000*%
%ADD11C,0.140357*%
%ADD12RoundRect,0.140000X0.170000X-0.140000X0.170000X0.140000X-0.170000X0.140000X-0.170000X-0.140000X0*%
%ADD13RoundRect,0.200000X-0.200000X-0.600000X0.200000X-0.600000X0.200000X0.600000X-0.200000X0.600000X0*%
%ADD14RoundRect,0.250001X-0.799999X-1.249999X0.799999X-1.249999X0.799999X1.249999X-0.799999X1.249999X0*%
%ADD15FreePoly0,0.000000*%
%ADD16FreePoly1,0.000000*%
%ADD17FreePoly2,0.000000*%
%ADD18FreePoly3,0.000000*%
%ADD19RoundRect,0.120000X0.000000X-0.169706X0.169706X0.000000X0.000000X0.169706X-0.169706X0.000000X0*%
%ADD20RoundRect,0.135000X-0.135000X-0.185000X0.135000X-0.185000X0.135000X0.185000X-0.135000X0.185000X0*%
%ADD21FreePoly4,180.000000*%
%ADD22RoundRect,0.062500X0.375000X0.062500X-0.375000X0.062500X-0.375000X-0.062500X0.375000X-0.062500X0*%
%ADD23FreePoly5,180.000000*%
%ADD24FreePoly6,180.000000*%
%ADD25RoundRect,0.062500X0.062500X0.375000X-0.062500X0.375000X-0.062500X-0.375000X0.062500X-0.375000X0*%
%ADD26FreePoly7,180.000000*%
%ADD27FreePoly8,180.000000*%
%ADD28FreePoly9,180.000000*%
%ADD29FreePoly10,180.000000*%
%ADD30FreePoly11,180.000000*%
%ADD31RoundRect,0.140000X0.140000X0.170000X-0.140000X0.170000X-0.140000X-0.170000X0.140000X-0.170000X0*%
%ADD32R,1.000000X1.000000*%
%ADD33RoundRect,0.225000X-0.225000X-0.250000X0.225000X-0.250000X0.225000X0.250000X-0.225000X0.250000X0*%
%ADD34C,1.000000*%
%ADD35RoundRect,0.225000X0.250000X-0.225000X0.250000X0.225000X-0.250000X0.225000X-0.250000X-0.225000X0*%
%ADD36RoundRect,0.075000X0.075000X-0.650000X0.075000X0.650000X-0.075000X0.650000X-0.075000X-0.650000X0*%
%ADD37RoundRect,0.225000X-0.250000X0.225000X-0.250000X-0.225000X0.250000X-0.225000X0.250000X0.225000X0*%
%ADD38C,1.900000*%
%ADD39C,3.450000*%
%ADD40C,2.200000*%
G04 APERTURE END LIST*
D10*
%TO.C,C9*%
X180890000Y-67357836D02*
X180890000Y-67142164D01*
X181610000Y-67357836D02*
X181610000Y-67142164D01*
%TO.C,J1*%
X176390000Y-77690000D02*
X177340000Y-77690000D01*
X176390000Y-78140000D02*
X176390000Y-77690000D01*
X176390000Y-81660000D02*
X176390000Y-82110000D01*
X176390000Y-82110000D02*
X183360000Y-82110000D01*
X177340000Y-77690000D02*
X177340000Y-76200000D01*
X183360000Y-77690000D02*
X182410000Y-77690000D01*
X183360000Y-78140000D02*
X183360000Y-77690000D01*
X183360000Y-82110000D02*
X183360000Y-81660000D01*
%TO.C,U4*%
X181320000Y-68185000D02*
X182320000Y-68185000D01*
X181320000Y-69665000D02*
X182320000Y-69665000D01*
D11*
X180890178Y-68475000D02*
G75*
G02*
X180749822Y-68475000I-70178J0D01*
G01*
X180749822Y-68475000D02*
G75*
G02*
X180890178Y-68475000I70178J0D01*
G01*
D10*
%TO.C,R3*%
X190586359Y-77620000D02*
X190893641Y-77620000D01*
X190586359Y-78380000D02*
X190893641Y-78380000D01*
%TO.C,U3*%
X186202500Y-66890000D02*
X186202500Y-67115000D01*
X186202500Y-71110000D02*
X186202500Y-70885000D01*
X186427500Y-66890000D02*
X186202500Y-66890000D01*
X186427500Y-71110000D02*
X186202500Y-71110000D01*
X190197500Y-66890000D02*
X190422500Y-66890000D01*
X190422500Y-66890000D02*
X190422500Y-67115000D01*
X190682500Y-71440000D02*
X190202500Y-71440000D01*
X190442500Y-71110000D01*
X190682500Y-71440000D01*
G36*
X190682500Y-71440000D02*
G01*
X190202500Y-71440000D01*
X190442500Y-71110000D01*
X190682500Y-71440000D01*
G37*
%TO.C,C8*%
X181857836Y-69890000D02*
X181642164Y-69890000D01*
X181857836Y-70610000D02*
X181642164Y-70610000D01*
%TO.C,C2*%
X190884420Y-74740000D02*
X191165580Y-74740000D01*
X190884420Y-75760000D02*
X191165580Y-75760000D01*
%TO.C,C7*%
X191240000Y-66865580D02*
X191240000Y-66584420D01*
X192260000Y-66865580D02*
X192260000Y-66584420D01*
%TO.C,U2*%
X186140000Y-76950000D02*
X186140000Y-75450000D01*
X186140000Y-76950000D02*
X186140000Y-78450000D01*
X189360000Y-76950000D02*
X189360000Y-75450000D01*
X189360000Y-76950000D02*
X189360000Y-78450000D01*
X186340000Y-79162500D02*
X186010000Y-79402500D01*
X186010000Y-78922500D01*
X186340000Y-79162500D01*
G36*
X186340000Y-79162500D02*
G01*
X186010000Y-79402500D01*
X186010000Y-78922500D01*
X186340000Y-79162500D01*
G37*
%TO.C,C6*%
X191140000Y-69357836D02*
X191140000Y-69142164D01*
X191860000Y-69357836D02*
X191860000Y-69142164D01*
%TO.C,R4*%
X190596359Y-76620000D02*
X190903641Y-76620000D01*
X190596359Y-77380000D02*
X190903641Y-77380000D01*
%TO.C,C1*%
X184740000Y-76109420D02*
X184740000Y-76390580D01*
X185760000Y-76109420D02*
X185760000Y-76390580D01*
%TD*%
%LPC*%
D12*
%TO.C,C9*%
X181250000Y-67730000D03*
X181250000Y-66770000D03*
%TD*%
D13*
%TO.C,J1*%
X178000000Y-77000000D03*
X179250000Y-77000000D03*
X180500000Y-77000000D03*
X181750000Y-77000000D03*
D14*
X175450000Y-79900000D03*
X184300000Y-79900000D03*
%TD*%
D15*
%TO.C,U4*%
X181390000Y-68600000D03*
D16*
X181390000Y-69250000D03*
D17*
X182250000Y-68600000D03*
D18*
X182250000Y-69250000D03*
D19*
X181820000Y-68925000D03*
%TD*%
D20*
%TO.C,R3*%
X190230000Y-78000000D03*
X191250000Y-78000000D03*
%TD*%
D21*
%TO.C,U3*%
X190310000Y-70500000D03*
D22*
X190250000Y-70000000D03*
X190250000Y-69500000D03*
X190250000Y-69000000D03*
X190250000Y-68500000D03*
X190250000Y-68000000D03*
D23*
X190310000Y-67500000D03*
D24*
X189812500Y-67002500D03*
D25*
X189312500Y-67062500D03*
X188812500Y-67062500D03*
X188312500Y-67062500D03*
X187812500Y-67062500D03*
X187312500Y-67062500D03*
D26*
X186812500Y-67002500D03*
D27*
X186315000Y-67500000D03*
D22*
X186375000Y-68000000D03*
X186375000Y-68500000D03*
X186375000Y-69000000D03*
X186375000Y-69500000D03*
X186375000Y-70000000D03*
D28*
X186315000Y-70500000D03*
D29*
X186812500Y-70997500D03*
D25*
X187312500Y-70937500D03*
X187812500Y-70937500D03*
X188312500Y-70937500D03*
X188812500Y-70937500D03*
X189312500Y-70937500D03*
D30*
X189812500Y-70997500D03*
%TD*%
D31*
%TO.C,C8*%
X182230000Y-70250000D03*
X181270000Y-70250000D03*
%TD*%
D32*
%TO.C,TP4*%
X189000000Y-81250000D03*
%TD*%
D33*
%TO.C,C2*%
X190250000Y-75250000D03*
X191800000Y-75250000D03*
%TD*%
D34*
%TO.C,TP2*%
X175750000Y-71250000D03*
%TD*%
%TO.C,TP1*%
X175750000Y-73500000D03*
%TD*%
D35*
%TO.C,C7*%
X191750000Y-67500000D03*
X191750000Y-65950000D03*
%TD*%
D36*
%TO.C,U2*%
X186750000Y-79150000D03*
X187250000Y-79150000D03*
X187750000Y-79150000D03*
X188250000Y-79150000D03*
X188750000Y-79150000D03*
X188750000Y-74750000D03*
X188250000Y-74750000D03*
X187750000Y-74750000D03*
X187250000Y-74750000D03*
X186750000Y-74750000D03*
%TD*%
D32*
%TO.C,TP3*%
X187000000Y-81250000D03*
%TD*%
D12*
%TO.C,C6*%
X191500000Y-69730000D03*
X191500000Y-68770000D03*
%TD*%
D20*
%TO.C,R4*%
X190240000Y-77000000D03*
X191260000Y-77000000D03*
%TD*%
D37*
%TO.C,C1*%
X185250000Y-75475000D03*
X185250000Y-77025000D03*
%TD*%
D38*
%TO.C,SW2*%
X190000000Y-73000000D03*
D39*
X184500000Y-73000000D03*
D38*
X179000000Y-73000000D03*
D40*
X184500000Y-67100000D03*
X179500000Y-69200000D03*
%TD*%
%LPD*%
M02*
