%TF.GenerationSoftware,KiCad,Pcbnew,9.0.5*%
%TF.CreationDate,2025-10-30T03:56:51+09:00*%
%TF.ProjectId,vibration_module,76696272-6174-4696-9f6e-5f6d6f64756c,rev?*%
%TF.SameCoordinates,Original*%
%TF.FileFunction,Legend,Bot*%
%TF.FilePolarity,Positive*%
%FSLAX46Y46*%
G04 Gerber Fmt 4.6, Leading zero omitted, Abs format (unit mm)*
G04 Created by KiCad (PCBNEW 9.0.5) date 2025-10-30 03:56:51*
%MOMM*%
%LPD*%
G01*
G04 APERTURE LIST*
%ADD10C,0.200000*%
%ADD11R,1.000000X1.000000*%
G04 APERTURE END LIST*
D10*
X165474612Y-60897219D02*
X165474612Y-61611504D01*
X165474612Y-61611504D02*
X165522231Y-61754361D01*
X165522231Y-61754361D02*
X165617469Y-61849600D01*
X165617469Y-61849600D02*
X165760326Y-61897219D01*
X165760326Y-61897219D02*
X165855564Y-61897219D01*
X164522231Y-61897219D02*
X164998421Y-61897219D01*
X164998421Y-61897219D02*
X164998421Y-60897219D01*
X163617469Y-61801980D02*
X163665088Y-61849600D01*
X163665088Y-61849600D02*
X163807945Y-61897219D01*
X163807945Y-61897219D02*
X163903183Y-61897219D01*
X163903183Y-61897219D02*
X164046040Y-61849600D01*
X164046040Y-61849600D02*
X164141278Y-61754361D01*
X164141278Y-61754361D02*
X164188897Y-61659123D01*
X164188897Y-61659123D02*
X164236516Y-61468647D01*
X164236516Y-61468647D02*
X164236516Y-61325790D01*
X164236516Y-61325790D02*
X164188897Y-61135314D01*
X164188897Y-61135314D02*
X164141278Y-61040076D01*
X164141278Y-61040076D02*
X164046040Y-60944838D01*
X164046040Y-60944838D02*
X163903183Y-60897219D01*
X163903183Y-60897219D02*
X163807945Y-60897219D01*
X163807945Y-60897219D02*
X163665088Y-60944838D01*
X163665088Y-60944838D02*
X163617469Y-60992457D01*
X162903183Y-60897219D02*
X162903183Y-61611504D01*
X162903183Y-61611504D02*
X162950802Y-61754361D01*
X162950802Y-61754361D02*
X163046040Y-61849600D01*
X163046040Y-61849600D02*
X163188897Y-61897219D01*
X163188897Y-61897219D02*
X163284135Y-61897219D01*
X161950802Y-61897219D02*
X162426992Y-61897219D01*
X162426992Y-61897219D02*
X162426992Y-60897219D01*
X161046040Y-61801980D02*
X161093659Y-61849600D01*
X161093659Y-61849600D02*
X161236516Y-61897219D01*
X161236516Y-61897219D02*
X161331754Y-61897219D01*
X161331754Y-61897219D02*
X161474611Y-61849600D01*
X161474611Y-61849600D02*
X161569849Y-61754361D01*
X161569849Y-61754361D02*
X161617468Y-61659123D01*
X161617468Y-61659123D02*
X161665087Y-61468647D01*
X161665087Y-61468647D02*
X161665087Y-61325790D01*
X161665087Y-61325790D02*
X161617468Y-61135314D01*
X161617468Y-61135314D02*
X161569849Y-61040076D01*
X161569849Y-61040076D02*
X161474611Y-60944838D01*
X161474611Y-60944838D02*
X161331754Y-60897219D01*
X161331754Y-60897219D02*
X161236516Y-60897219D01*
X161236516Y-60897219D02*
X161093659Y-60944838D01*
X161093659Y-60944838D02*
X161046040Y-60992457D01*
X160331754Y-60897219D02*
X160331754Y-61611504D01*
X160331754Y-61611504D02*
X160379373Y-61754361D01*
X160379373Y-61754361D02*
X160474611Y-61849600D01*
X160474611Y-61849600D02*
X160617468Y-61897219D01*
X160617468Y-61897219D02*
X160712706Y-61897219D01*
X159379373Y-61897219D02*
X159855563Y-61897219D01*
X159855563Y-61897219D02*
X159855563Y-60897219D01*
X158474611Y-61801980D02*
X158522230Y-61849600D01*
X158522230Y-61849600D02*
X158665087Y-61897219D01*
X158665087Y-61897219D02*
X158760325Y-61897219D01*
X158760325Y-61897219D02*
X158903182Y-61849600D01*
X158903182Y-61849600D02*
X158998420Y-61754361D01*
X158998420Y-61754361D02*
X159046039Y-61659123D01*
X159046039Y-61659123D02*
X159093658Y-61468647D01*
X159093658Y-61468647D02*
X159093658Y-61325790D01*
X159093658Y-61325790D02*
X159046039Y-61135314D01*
X159046039Y-61135314D02*
X158998420Y-61040076D01*
X158998420Y-61040076D02*
X158903182Y-60944838D01*
X158903182Y-60944838D02*
X158760325Y-60897219D01*
X158760325Y-60897219D02*
X158665087Y-60897219D01*
X158665087Y-60897219D02*
X158522230Y-60944838D01*
X158522230Y-60944838D02*
X158474611Y-60992457D01*
X175839850Y-71577331D02*
X175649374Y-71577331D01*
X175649374Y-71577331D02*
X175554136Y-71624950D01*
X175554136Y-71624950D02*
X175458898Y-71720188D01*
X175458898Y-71720188D02*
X175411279Y-71910664D01*
X175411279Y-71910664D02*
X175411279Y-72243997D01*
X175411279Y-72243997D02*
X175458898Y-72434473D01*
X175458898Y-72434473D02*
X175554136Y-72529712D01*
X175554136Y-72529712D02*
X175649374Y-72577331D01*
X175649374Y-72577331D02*
X175839850Y-72577331D01*
X175839850Y-72577331D02*
X175935088Y-72529712D01*
X175935088Y-72529712D02*
X176030326Y-72434473D01*
X176030326Y-72434473D02*
X176077945Y-72243997D01*
X176077945Y-72243997D02*
X176077945Y-71910664D01*
X176077945Y-71910664D02*
X176030326Y-71720188D01*
X176030326Y-71720188D02*
X175935088Y-71624950D01*
X175935088Y-71624950D02*
X175839850Y-71577331D01*
X174649374Y-72053521D02*
X174982707Y-72053521D01*
X174982707Y-72577331D02*
X174982707Y-71577331D01*
X174982707Y-71577331D02*
X174506517Y-71577331D01*
X173792231Y-72053521D02*
X173649374Y-72101140D01*
X173649374Y-72101140D02*
X173601755Y-72148759D01*
X173601755Y-72148759D02*
X173554136Y-72243997D01*
X173554136Y-72243997D02*
X173554136Y-72386854D01*
X173554136Y-72386854D02*
X173601755Y-72482092D01*
X173601755Y-72482092D02*
X173649374Y-72529712D01*
X173649374Y-72529712D02*
X173744612Y-72577331D01*
X173744612Y-72577331D02*
X174125564Y-72577331D01*
X174125564Y-72577331D02*
X174125564Y-71577331D01*
X174125564Y-71577331D02*
X173792231Y-71577331D01*
X173792231Y-71577331D02*
X173696993Y-71624950D01*
X173696993Y-71624950D02*
X173649374Y-71672569D01*
X173649374Y-71672569D02*
X173601755Y-71767807D01*
X173601755Y-71767807D02*
X173601755Y-71863045D01*
X173601755Y-71863045D02*
X173649374Y-71958283D01*
X173649374Y-71958283D02*
X173696993Y-72005902D01*
X173696993Y-72005902D02*
X173792231Y-72053521D01*
X173792231Y-72053521D02*
X174125564Y-72053521D01*
X172601755Y-71624950D02*
X172696993Y-71577331D01*
X172696993Y-71577331D02*
X172839850Y-71577331D01*
X172839850Y-71577331D02*
X172982707Y-71624950D01*
X172982707Y-71624950D02*
X173077945Y-71720188D01*
X173077945Y-71720188D02*
X173125564Y-71815426D01*
X173125564Y-71815426D02*
X173173183Y-72005902D01*
X173173183Y-72005902D02*
X173173183Y-72148759D01*
X173173183Y-72148759D02*
X173125564Y-72339235D01*
X173125564Y-72339235D02*
X173077945Y-72434473D01*
X173077945Y-72434473D02*
X172982707Y-72529712D01*
X172982707Y-72529712D02*
X172839850Y-72577331D01*
X172839850Y-72577331D02*
X172744612Y-72577331D01*
X172744612Y-72577331D02*
X172601755Y-72529712D01*
X172601755Y-72529712D02*
X172554136Y-72482092D01*
X172554136Y-72482092D02*
X172554136Y-72148759D01*
X172554136Y-72148759D02*
X172744612Y-72148759D01*
X171982707Y-72577331D02*
X172077945Y-72529712D01*
X172077945Y-72529712D02*
X172125564Y-72434473D01*
X172125564Y-72434473D02*
X172125564Y-71577331D01*
X171458897Y-72577331D02*
X171554135Y-72529712D01*
X171554135Y-72529712D02*
X171601754Y-72482092D01*
X171601754Y-72482092D02*
X171649373Y-72386854D01*
X171649373Y-72386854D02*
X171649373Y-72101140D01*
X171649373Y-72101140D02*
X171601754Y-72005902D01*
X171601754Y-72005902D02*
X171554135Y-71958283D01*
X171554135Y-71958283D02*
X171458897Y-71910664D01*
X171458897Y-71910664D02*
X171316040Y-71910664D01*
X171316040Y-71910664D02*
X171220802Y-71958283D01*
X171220802Y-71958283D02*
X171173183Y-72005902D01*
X171173183Y-72005902D02*
X171125564Y-72101140D01*
X171125564Y-72101140D02*
X171125564Y-72386854D01*
X171125564Y-72386854D02*
X171173183Y-72482092D01*
X171173183Y-72482092D02*
X171220802Y-72529712D01*
X171220802Y-72529712D02*
X171316040Y-72577331D01*
X171316040Y-72577331D02*
X171458897Y-72577331D01*
X170792230Y-71910664D02*
X170554135Y-72577331D01*
X170554135Y-72577331D02*
X170316040Y-71910664D01*
X169554135Y-72529712D02*
X169649373Y-72577331D01*
X169649373Y-72577331D02*
X169839849Y-72577331D01*
X169839849Y-72577331D02*
X169935087Y-72529712D01*
X169935087Y-72529712D02*
X169982706Y-72434473D01*
X169982706Y-72434473D02*
X169982706Y-72053521D01*
X169982706Y-72053521D02*
X169935087Y-71958283D01*
X169935087Y-71958283D02*
X169839849Y-71910664D01*
X169839849Y-71910664D02*
X169649373Y-71910664D01*
X169649373Y-71910664D02*
X169554135Y-71958283D01*
X169554135Y-71958283D02*
X169506516Y-72053521D01*
X169506516Y-72053521D02*
X169506516Y-72148759D01*
X169506516Y-72148759D02*
X169982706Y-72243997D01*
X176173183Y-73187275D02*
X175839850Y-74187275D01*
X175839850Y-74187275D02*
X175506517Y-73187275D01*
X175173183Y-74187275D02*
X175173183Y-73520608D01*
X175173183Y-73187275D02*
X175220802Y-73234894D01*
X175220802Y-73234894D02*
X175173183Y-73282513D01*
X175173183Y-73282513D02*
X175125564Y-73234894D01*
X175125564Y-73234894D02*
X175173183Y-73187275D01*
X175173183Y-73187275D02*
X175173183Y-73282513D01*
X174696993Y-74187275D02*
X174696993Y-73187275D01*
X174696993Y-73568227D02*
X174601755Y-73520608D01*
X174601755Y-73520608D02*
X174411279Y-73520608D01*
X174411279Y-73520608D02*
X174316041Y-73568227D01*
X174316041Y-73568227D02*
X174268422Y-73615846D01*
X174268422Y-73615846D02*
X174220803Y-73711084D01*
X174220803Y-73711084D02*
X174220803Y-73996798D01*
X174220803Y-73996798D02*
X174268422Y-74092036D01*
X174268422Y-74092036D02*
X174316041Y-74139656D01*
X174316041Y-74139656D02*
X174411279Y-74187275D01*
X174411279Y-74187275D02*
X174601755Y-74187275D01*
X174601755Y-74187275D02*
X174696993Y-74139656D01*
X173792231Y-74187275D02*
X173792231Y-73520608D01*
X173792231Y-73711084D02*
X173744612Y-73615846D01*
X173744612Y-73615846D02*
X173696993Y-73568227D01*
X173696993Y-73568227D02*
X173601755Y-73520608D01*
X173601755Y-73520608D02*
X173506517Y-73520608D01*
X172744612Y-74187275D02*
X172744612Y-73663465D01*
X172744612Y-73663465D02*
X172792231Y-73568227D01*
X172792231Y-73568227D02*
X172887469Y-73520608D01*
X172887469Y-73520608D02*
X173077945Y-73520608D01*
X173077945Y-73520608D02*
X173173183Y-73568227D01*
X172744612Y-74139656D02*
X172839850Y-74187275D01*
X172839850Y-74187275D02*
X173077945Y-74187275D01*
X173077945Y-74187275D02*
X173173183Y-74139656D01*
X173173183Y-74139656D02*
X173220802Y-74044417D01*
X173220802Y-74044417D02*
X173220802Y-73949179D01*
X173220802Y-73949179D02*
X173173183Y-73853941D01*
X173173183Y-73853941D02*
X173077945Y-73806322D01*
X173077945Y-73806322D02*
X172839850Y-73806322D01*
X172839850Y-73806322D02*
X172744612Y-73758703D01*
X172411278Y-73520608D02*
X172030326Y-73520608D01*
X172268421Y-73187275D02*
X172268421Y-74044417D01*
X172268421Y-74044417D02*
X172220802Y-74139656D01*
X172220802Y-74139656D02*
X172125564Y-74187275D01*
X172125564Y-74187275D02*
X172030326Y-74187275D01*
X171696992Y-74187275D02*
X171696992Y-73520608D01*
X171696992Y-73187275D02*
X171744611Y-73234894D01*
X171744611Y-73234894D02*
X171696992Y-73282513D01*
X171696992Y-73282513D02*
X171649373Y-73234894D01*
X171649373Y-73234894D02*
X171696992Y-73187275D01*
X171696992Y-73187275D02*
X171696992Y-73282513D01*
X171077945Y-74187275D02*
X171173183Y-74139656D01*
X171173183Y-74139656D02*
X171220802Y-74092036D01*
X171220802Y-74092036D02*
X171268421Y-73996798D01*
X171268421Y-73996798D02*
X171268421Y-73711084D01*
X171268421Y-73711084D02*
X171220802Y-73615846D01*
X171220802Y-73615846D02*
X171173183Y-73568227D01*
X171173183Y-73568227D02*
X171077945Y-73520608D01*
X171077945Y-73520608D02*
X170935088Y-73520608D01*
X170935088Y-73520608D02*
X170839850Y-73568227D01*
X170839850Y-73568227D02*
X170792231Y-73615846D01*
X170792231Y-73615846D02*
X170744612Y-73711084D01*
X170744612Y-73711084D02*
X170744612Y-73996798D01*
X170744612Y-73996798D02*
X170792231Y-74092036D01*
X170792231Y-74092036D02*
X170839850Y-74139656D01*
X170839850Y-74139656D02*
X170935088Y-74187275D01*
X170935088Y-74187275D02*
X171077945Y-74187275D01*
X170316040Y-73520608D02*
X170316040Y-74187275D01*
X170316040Y-73615846D02*
X170268421Y-73568227D01*
X170268421Y-73568227D02*
X170173183Y-73520608D01*
X170173183Y-73520608D02*
X170030326Y-73520608D01*
X170030326Y-73520608D02*
X169935088Y-73568227D01*
X169935088Y-73568227D02*
X169887469Y-73663465D01*
X169887469Y-73663465D02*
X169887469Y-74187275D01*
X168649373Y-74187275D02*
X168649373Y-73187275D01*
X168649373Y-73187275D02*
X168316040Y-73901560D01*
X168316040Y-73901560D02*
X167982707Y-73187275D01*
X167982707Y-73187275D02*
X167982707Y-74187275D01*
X167363659Y-74187275D02*
X167458897Y-74139656D01*
X167458897Y-74139656D02*
X167506516Y-74092036D01*
X167506516Y-74092036D02*
X167554135Y-73996798D01*
X167554135Y-73996798D02*
X167554135Y-73711084D01*
X167554135Y-73711084D02*
X167506516Y-73615846D01*
X167506516Y-73615846D02*
X167458897Y-73568227D01*
X167458897Y-73568227D02*
X167363659Y-73520608D01*
X167363659Y-73520608D02*
X167220802Y-73520608D01*
X167220802Y-73520608D02*
X167125564Y-73568227D01*
X167125564Y-73568227D02*
X167077945Y-73615846D01*
X167077945Y-73615846D02*
X167030326Y-73711084D01*
X167030326Y-73711084D02*
X167030326Y-73996798D01*
X167030326Y-73996798D02*
X167077945Y-74092036D01*
X167077945Y-74092036D02*
X167125564Y-74139656D01*
X167125564Y-74139656D02*
X167220802Y-74187275D01*
X167220802Y-74187275D02*
X167363659Y-74187275D01*
X166173183Y-74187275D02*
X166173183Y-73187275D01*
X166173183Y-74139656D02*
X166268421Y-74187275D01*
X166268421Y-74187275D02*
X166458897Y-74187275D01*
X166458897Y-74187275D02*
X166554135Y-74139656D01*
X166554135Y-74139656D02*
X166601754Y-74092036D01*
X166601754Y-74092036D02*
X166649373Y-73996798D01*
X166649373Y-73996798D02*
X166649373Y-73711084D01*
X166649373Y-73711084D02*
X166601754Y-73615846D01*
X166601754Y-73615846D02*
X166554135Y-73568227D01*
X166554135Y-73568227D02*
X166458897Y-73520608D01*
X166458897Y-73520608D02*
X166268421Y-73520608D01*
X166268421Y-73520608D02*
X166173183Y-73568227D01*
X165268421Y-73520608D02*
X165268421Y-74187275D01*
X165696992Y-73520608D02*
X165696992Y-74044417D01*
X165696992Y-74044417D02*
X165649373Y-74139656D01*
X165649373Y-74139656D02*
X165554135Y-74187275D01*
X165554135Y-74187275D02*
X165411278Y-74187275D01*
X165411278Y-74187275D02*
X165316040Y-74139656D01*
X165316040Y-74139656D02*
X165268421Y-74092036D01*
X164649373Y-74187275D02*
X164744611Y-74139656D01*
X164744611Y-74139656D02*
X164792230Y-74044417D01*
X164792230Y-74044417D02*
X164792230Y-73187275D01*
X163887468Y-74139656D02*
X163982706Y-74187275D01*
X163982706Y-74187275D02*
X164173182Y-74187275D01*
X164173182Y-74187275D02*
X164268420Y-74139656D01*
X164268420Y-74139656D02*
X164316039Y-74044417D01*
X164316039Y-74044417D02*
X164316039Y-73663465D01*
X164316039Y-73663465D02*
X164268420Y-73568227D01*
X164268420Y-73568227D02*
X164173182Y-73520608D01*
X164173182Y-73520608D02*
X163982706Y-73520608D01*
X163982706Y-73520608D02*
X163887468Y-73568227D01*
X163887468Y-73568227D02*
X163839849Y-73663465D01*
X163839849Y-73663465D02*
X163839849Y-73758703D01*
X163839849Y-73758703D02*
X164316039Y-73853941D01*
X175601755Y-75130552D02*
X175601755Y-75940076D01*
X175601755Y-75940076D02*
X175649374Y-76035314D01*
X175649374Y-76035314D02*
X175696993Y-76082933D01*
X175696993Y-76082933D02*
X175792231Y-76130552D01*
X175792231Y-76130552D02*
X175935088Y-76130552D01*
X175935088Y-76130552D02*
X176030326Y-76082933D01*
X175601755Y-75749600D02*
X175696993Y-75797219D01*
X175696993Y-75797219D02*
X175887469Y-75797219D01*
X175887469Y-75797219D02*
X175982707Y-75749600D01*
X175982707Y-75749600D02*
X176030326Y-75701980D01*
X176030326Y-75701980D02*
X176077945Y-75606742D01*
X176077945Y-75606742D02*
X176077945Y-75321028D01*
X176077945Y-75321028D02*
X176030326Y-75225790D01*
X176030326Y-75225790D02*
X175982707Y-75178171D01*
X175982707Y-75178171D02*
X175887469Y-75130552D01*
X175887469Y-75130552D02*
X175696993Y-75130552D01*
X175696993Y-75130552D02*
X175601755Y-75178171D01*
X175125564Y-75797219D02*
X175125564Y-75130552D01*
X175125564Y-75225790D02*
X175077945Y-75178171D01*
X175077945Y-75178171D02*
X174982707Y-75130552D01*
X174982707Y-75130552D02*
X174839850Y-75130552D01*
X174839850Y-75130552D02*
X174744612Y-75178171D01*
X174744612Y-75178171D02*
X174696993Y-75273409D01*
X174696993Y-75273409D02*
X174696993Y-75797219D01*
X174696993Y-75273409D02*
X174649374Y-75178171D01*
X174649374Y-75178171D02*
X174554136Y-75130552D01*
X174554136Y-75130552D02*
X174411279Y-75130552D01*
X174411279Y-75130552D02*
X174316040Y-75178171D01*
X174316040Y-75178171D02*
X174268421Y-75273409D01*
X174268421Y-75273409D02*
X174268421Y-75797219D01*
X173792231Y-75797219D02*
X173792231Y-75130552D01*
X173792231Y-75225790D02*
X173744612Y-75178171D01*
X173744612Y-75178171D02*
X173649374Y-75130552D01*
X173649374Y-75130552D02*
X173506517Y-75130552D01*
X173506517Y-75130552D02*
X173411279Y-75178171D01*
X173411279Y-75178171D02*
X173363660Y-75273409D01*
X173363660Y-75273409D02*
X173363660Y-75797219D01*
X173363660Y-75273409D02*
X173316041Y-75178171D01*
X173316041Y-75178171D02*
X173220803Y-75130552D01*
X173220803Y-75130552D02*
X173077946Y-75130552D01*
X173077946Y-75130552D02*
X172982707Y-75178171D01*
X172982707Y-75178171D02*
X172935088Y-75273409D01*
X172935088Y-75273409D02*
X172935088Y-75797219D01*
X172554136Y-75130552D02*
X172316041Y-75797219D01*
X172077946Y-75130552D02*
X172316041Y-75797219D01*
X172316041Y-75797219D02*
X172411279Y-76035314D01*
X172411279Y-76035314D02*
X172458898Y-76082933D01*
X172458898Y-76082933D02*
X172554136Y-76130552D01*
X171268422Y-75130552D02*
X171268422Y-75797219D01*
X171696993Y-75130552D02*
X171696993Y-75654361D01*
X171696993Y-75654361D02*
X171649374Y-75749600D01*
X171649374Y-75749600D02*
X171554136Y-75797219D01*
X171554136Y-75797219D02*
X171411279Y-75797219D01*
X171411279Y-75797219D02*
X171316041Y-75749600D01*
X171316041Y-75749600D02*
X171268422Y-75701980D01*
X170792231Y-75130552D02*
X170792231Y-75797219D01*
X170792231Y-75225790D02*
X170744612Y-75178171D01*
X170744612Y-75178171D02*
X170649374Y-75130552D01*
X170649374Y-75130552D02*
X170506517Y-75130552D01*
X170506517Y-75130552D02*
X170411279Y-75178171D01*
X170411279Y-75178171D02*
X170363660Y-75273409D01*
X170363660Y-75273409D02*
X170363660Y-75797219D01*
X169458898Y-75130552D02*
X169458898Y-75940076D01*
X169458898Y-75940076D02*
X169506517Y-76035314D01*
X169506517Y-76035314D02*
X169554136Y-76082933D01*
X169554136Y-76082933D02*
X169649374Y-76130552D01*
X169649374Y-76130552D02*
X169792231Y-76130552D01*
X169792231Y-76130552D02*
X169887469Y-76082933D01*
X169458898Y-75749600D02*
X169554136Y-75797219D01*
X169554136Y-75797219D02*
X169744612Y-75797219D01*
X169744612Y-75797219D02*
X169839850Y-75749600D01*
X169839850Y-75749600D02*
X169887469Y-75701980D01*
X169887469Y-75701980D02*
X169935088Y-75606742D01*
X169935088Y-75606742D02*
X169935088Y-75321028D01*
X169935088Y-75321028D02*
X169887469Y-75225790D01*
X169887469Y-75225790D02*
X169839850Y-75178171D01*
X169839850Y-75178171D02*
X169744612Y-75130552D01*
X169744612Y-75130552D02*
X169554136Y-75130552D01*
X169554136Y-75130552D02*
X169458898Y-75178171D01*
X168363660Y-75321028D02*
X168411279Y-75273409D01*
X168411279Y-75273409D02*
X168506517Y-75225790D01*
X168506517Y-75225790D02*
X168601755Y-75225790D01*
X168601755Y-75225790D02*
X168696993Y-75273409D01*
X168696993Y-75273409D02*
X168744612Y-75321028D01*
X168744612Y-75321028D02*
X168792231Y-75416266D01*
X168792231Y-75416266D02*
X168792231Y-75511504D01*
X168792231Y-75511504D02*
X168744612Y-75606742D01*
X168744612Y-75606742D02*
X168696993Y-75654361D01*
X168696993Y-75654361D02*
X168601755Y-75701980D01*
X168601755Y-75701980D02*
X168506517Y-75701980D01*
X168506517Y-75701980D02*
X168411279Y-75654361D01*
X168411279Y-75654361D02*
X168363660Y-75606742D01*
X168363660Y-75225790D02*
X168363660Y-75606742D01*
X168363660Y-75606742D02*
X168316041Y-75654361D01*
X168316041Y-75654361D02*
X168268422Y-75654361D01*
X168268422Y-75654361D02*
X168173183Y-75606742D01*
X168173183Y-75606742D02*
X168125564Y-75511504D01*
X168125564Y-75511504D02*
X168125564Y-75273409D01*
X168125564Y-75273409D02*
X168220803Y-75130552D01*
X168220803Y-75130552D02*
X168363660Y-75035314D01*
X168363660Y-75035314D02*
X168554136Y-74987695D01*
X168554136Y-74987695D02*
X168744612Y-75035314D01*
X168744612Y-75035314D02*
X168887469Y-75130552D01*
X168887469Y-75130552D02*
X168982707Y-75273409D01*
X168982707Y-75273409D02*
X169030326Y-75463885D01*
X169030326Y-75463885D02*
X168982707Y-75654361D01*
X168982707Y-75654361D02*
X168887469Y-75797219D01*
X168887469Y-75797219D02*
X168744612Y-75892457D01*
X168744612Y-75892457D02*
X168554136Y-75940076D01*
X168554136Y-75940076D02*
X168363660Y-75892457D01*
X168363660Y-75892457D02*
X168220803Y-75797219D01*
X167696993Y-75797219D02*
X167696993Y-74797219D01*
X167601755Y-75416266D02*
X167316041Y-75797219D01*
X167316041Y-75130552D02*
X167696993Y-75511504D01*
X166458898Y-75797219D02*
X166458898Y-75273409D01*
X166458898Y-75273409D02*
X166506517Y-75178171D01*
X166506517Y-75178171D02*
X166601755Y-75130552D01*
X166601755Y-75130552D02*
X166792231Y-75130552D01*
X166792231Y-75130552D02*
X166887469Y-75178171D01*
X166458898Y-75749600D02*
X166554136Y-75797219D01*
X166554136Y-75797219D02*
X166792231Y-75797219D01*
X166792231Y-75797219D02*
X166887469Y-75749600D01*
X166887469Y-75749600D02*
X166935088Y-75654361D01*
X166935088Y-75654361D02*
X166935088Y-75559123D01*
X166935088Y-75559123D02*
X166887469Y-75463885D01*
X166887469Y-75463885D02*
X166792231Y-75416266D01*
X166792231Y-75416266D02*
X166554136Y-75416266D01*
X166554136Y-75416266D02*
X166458898Y-75368647D01*
X165982707Y-75797219D02*
X165982707Y-75130552D01*
X165982707Y-74797219D02*
X166030326Y-74844838D01*
X166030326Y-74844838D02*
X165982707Y-74892457D01*
X165982707Y-74892457D02*
X165935088Y-74844838D01*
X165935088Y-74844838D02*
X165982707Y-74797219D01*
X165982707Y-74797219D02*
X165982707Y-74892457D01*
X165554136Y-75749600D02*
X165458898Y-75797219D01*
X165458898Y-75797219D02*
X165268422Y-75797219D01*
X165268422Y-75797219D02*
X165173184Y-75749600D01*
X165173184Y-75749600D02*
X165125565Y-75654361D01*
X165125565Y-75654361D02*
X165125565Y-75606742D01*
X165125565Y-75606742D02*
X165173184Y-75511504D01*
X165173184Y-75511504D02*
X165268422Y-75463885D01*
X165268422Y-75463885D02*
X165411279Y-75463885D01*
X165411279Y-75463885D02*
X165506517Y-75416266D01*
X165506517Y-75416266D02*
X165554136Y-75321028D01*
X165554136Y-75321028D02*
X165554136Y-75273409D01*
X165554136Y-75273409D02*
X165506517Y-75178171D01*
X165506517Y-75178171D02*
X165411279Y-75130552D01*
X165411279Y-75130552D02*
X165268422Y-75130552D01*
X165268422Y-75130552D02*
X165173184Y-75178171D01*
X164839850Y-75130552D02*
X164458898Y-75130552D01*
X164696993Y-74797219D02*
X164696993Y-75654361D01*
X164696993Y-75654361D02*
X164649374Y-75749600D01*
X164649374Y-75749600D02*
X164554136Y-75797219D01*
X164554136Y-75797219D02*
X164458898Y-75797219D01*
X164125564Y-75701980D02*
X164077945Y-75749600D01*
X164077945Y-75749600D02*
X164125564Y-75797219D01*
X164125564Y-75797219D02*
X164173183Y-75749600D01*
X164173183Y-75749600D02*
X164125564Y-75701980D01*
X164125564Y-75701980D02*
X164125564Y-75797219D01*
X163220803Y-75797219D02*
X163220803Y-75273409D01*
X163220803Y-75273409D02*
X163268422Y-75178171D01*
X163268422Y-75178171D02*
X163363660Y-75130552D01*
X163363660Y-75130552D02*
X163554136Y-75130552D01*
X163554136Y-75130552D02*
X163649374Y-75178171D01*
X163220803Y-75749600D02*
X163316041Y-75797219D01*
X163316041Y-75797219D02*
X163554136Y-75797219D01*
X163554136Y-75797219D02*
X163649374Y-75749600D01*
X163649374Y-75749600D02*
X163696993Y-75654361D01*
X163696993Y-75654361D02*
X163696993Y-75559123D01*
X163696993Y-75559123D02*
X163649374Y-75463885D01*
X163649374Y-75463885D02*
X163554136Y-75416266D01*
X163554136Y-75416266D02*
X163316041Y-75416266D01*
X163316041Y-75416266D02*
X163220803Y-75368647D01*
X162316041Y-75749600D02*
X162411279Y-75797219D01*
X162411279Y-75797219D02*
X162601755Y-75797219D01*
X162601755Y-75797219D02*
X162696993Y-75749600D01*
X162696993Y-75749600D02*
X162744612Y-75701980D01*
X162744612Y-75701980D02*
X162792231Y-75606742D01*
X162792231Y-75606742D02*
X162792231Y-75321028D01*
X162792231Y-75321028D02*
X162744612Y-75225790D01*
X162744612Y-75225790D02*
X162696993Y-75178171D01*
X162696993Y-75178171D02*
X162601755Y-75130552D01*
X162601755Y-75130552D02*
X162411279Y-75130552D01*
X162411279Y-75130552D02*
X162316041Y-75178171D01*
X161887469Y-75701980D02*
X161839850Y-75749600D01*
X161839850Y-75749600D02*
X161887469Y-75797219D01*
X161887469Y-75797219D02*
X161935088Y-75749600D01*
X161935088Y-75749600D02*
X161887469Y-75701980D01*
X161887469Y-75701980D02*
X161887469Y-75797219D01*
X161411279Y-75797219D02*
X161411279Y-74797219D01*
X161316041Y-75416266D02*
X161030327Y-75797219D01*
X161030327Y-75130552D02*
X161411279Y-75511504D01*
X160601755Y-75797219D02*
X160601755Y-75130552D01*
X160601755Y-75321028D02*
X160554136Y-75225790D01*
X160554136Y-75225790D02*
X160506517Y-75178171D01*
X160506517Y-75178171D02*
X160411279Y-75130552D01*
X160411279Y-75130552D02*
X160316041Y-75130552D01*
%LPC*%
D11*
%TO.C,TP2*%
X159000000Y-62600000D03*
%TD*%
%TO.C,TP1*%
X161000000Y-62600000D03*
%TD*%
%LPD*%
M02*
