%TF.GenerationSoftware,KiCad,Pcbnew,9.0.5*%
%TF.CreationDate,2025-10-30T03:56:51+09:00*%
%TF.ProjectId,vibration_module,76696272-6174-4696-9f6e-5f6d6f64756c,rev?*%
%TF.SameCoordinates,Original*%
%TF.FileFunction,Copper,L3,Inr*%
%TF.FilePolarity,Positive*%
%FSLAX46Y46*%
G04 Gerber Fmt 4.6, Leading zero omitted, Abs format (unit mm)*
G04 Created by KiCad (PCBNEW 9.0.5) date 2025-10-30 03:56:51*
%MOMM*%
%LPD*%
G01*
G04 APERTURE LIST*
%TA.AperFunction,ComponentPad*%
%ADD10R,1.000000X1.000000*%
%TD*%
%TA.AperFunction,ViaPad*%
%ADD11C,0.800000*%
%TD*%
G04 APERTURE END LIST*
D10*
%TO.N,Net-(U3-OUT-)*%
%TO.C,TP2*%
X159000000Y-62600000D03*
%TD*%
%TO.N,Net-(U3-OUT+)*%
%TO.C,TP1*%
X161000000Y-62600000D03*
%TD*%
D11*
%TO.N,+3.3V*%
X164700000Y-74900000D03*
X166612523Y-66525000D03*
X163200000Y-66800000D03*
X160700000Y-65200000D03*
%TO.N,IN{slash}TRIG*%
X166096014Y-63350473D03*
X165700000Y-69000000D03*
%TO.N,GND*%
X169900000Y-65400000D03*
X171400000Y-68275000D03*
%TO.N,+3.3V*%
X164250000Y-63025234D03*
%TO.N,GND*%
X164250000Y-64025234D03*
X161510000Y-69990000D03*
%TO.N,+3.3V*%
X161100000Y-67700000D03*
X161510000Y-68930000D03*
%TO.N,GND*%
X161900000Y-75200000D03*
X158600000Y-63800000D03*
X159400000Y-67300000D03*
X161100000Y-66200000D03*
X173700000Y-63200000D03*
X173700000Y-65100000D03*
%TO.N,+3.3V*%
X161900000Y-61000000D03*
%TO.N,GND*%
X169700000Y-72100000D03*
X169800000Y-72900000D03*
X170300000Y-73500000D03*
%TO.N,+3.3V*%
X176000000Y-60900000D03*
%TO.N,GND*%
X172200000Y-61000000D03*
%TO.N,+3.3V*%
X164500000Y-76000000D03*
%TO.N,GND*%
X167500000Y-75300000D03*
X166500000Y-75300000D03*
X166500000Y-76300000D03*
X162000000Y-72400000D03*
%TO.N,NRST*%
X160175000Y-73975000D03*
X164507582Y-70406640D03*
X161100000Y-71800000D03*
%TD*%
%TA.AperFunction,Conductor*%
%TO.N,+3.3V*%
G36*
X171977120Y-60206069D02*
G01*
X172011687Y-60223682D01*
X172039120Y-60251115D01*
X172056733Y-60285682D01*
X172062802Y-60324000D01*
X172056733Y-60362318D01*
X172039120Y-60396885D01*
X172011687Y-60424318D01*
X171986258Y-60438559D01*
X171963560Y-60447960D01*
X171933836Y-60460272D01*
X171933824Y-60460278D01*
X171865677Y-60499624D01*
X171865655Y-60499638D01*
X171803215Y-60547550D01*
X171803208Y-60547556D01*
X171747556Y-60603208D01*
X171747550Y-60603215D01*
X171699638Y-60665655D01*
X171699624Y-60665677D01*
X171660278Y-60733824D01*
X171660272Y-60733837D01*
X171630148Y-60806565D01*
X171609774Y-60882600D01*
X171599500Y-60960633D01*
X171599500Y-61039366D01*
X171609774Y-61117399D01*
X171609775Y-61117403D01*
X171630149Y-61193438D01*
X171654033Y-61251099D01*
X171660272Y-61266162D01*
X171660278Y-61266175D01*
X171699624Y-61334322D01*
X171699638Y-61334344D01*
X171747550Y-61396784D01*
X171747556Y-61396791D01*
X171803208Y-61452443D01*
X171803215Y-61452449D01*
X171865655Y-61500361D01*
X171865660Y-61500364D01*
X171865665Y-61500368D01*
X171865675Y-61500374D01*
X171865677Y-61500375D01*
X171933824Y-61539721D01*
X171933832Y-61539724D01*
X171933836Y-61539727D01*
X172006562Y-61569851D01*
X172082597Y-61590225D01*
X172160641Y-61600500D01*
X172160648Y-61600500D01*
X172239352Y-61600500D01*
X172239359Y-61600500D01*
X172317403Y-61590225D01*
X172393438Y-61569851D01*
X172466164Y-61539727D01*
X172466171Y-61539722D01*
X172466175Y-61539721D01*
X172494094Y-61523601D01*
X172534335Y-61500368D01*
X172596786Y-61452448D01*
X172652448Y-61396786D01*
X172700368Y-61334335D01*
X172739727Y-61266164D01*
X172769851Y-61193438D01*
X172790225Y-61117403D01*
X172800500Y-61039359D01*
X172800500Y-60960641D01*
X172790225Y-60882597D01*
X172769851Y-60806562D01*
X172739727Y-60733836D01*
X172739724Y-60733832D01*
X172739721Y-60733824D01*
X172700375Y-60665677D01*
X172700374Y-60665675D01*
X172700368Y-60665665D01*
X172700364Y-60665660D01*
X172700361Y-60665655D01*
X172652449Y-60603215D01*
X172652443Y-60603208D01*
X172596791Y-60547556D01*
X172596784Y-60547550D01*
X172534344Y-60499638D01*
X172534322Y-60499624D01*
X172466175Y-60460278D01*
X172466163Y-60460272D01*
X172443405Y-60450846D01*
X172413743Y-60438559D01*
X172380668Y-60418292D01*
X172355472Y-60388791D01*
X172340625Y-60352949D01*
X172337580Y-60314273D01*
X172346636Y-60276549D01*
X172366906Y-60243470D01*
X172396407Y-60218274D01*
X172432249Y-60203427D01*
X172461198Y-60200000D01*
X176375277Y-60200000D01*
X176413595Y-60206069D01*
X176448162Y-60223682D01*
X176475595Y-60251115D01*
X176493208Y-60285682D01*
X176499277Y-60324000D01*
X176499275Y-60324680D01*
X176403083Y-76869851D01*
X176400717Y-77276721D01*
X176394425Y-77315003D01*
X176376612Y-77349467D01*
X176349020Y-77376740D01*
X176314351Y-77394152D01*
X176276719Y-77400000D01*
X158124000Y-77400000D01*
X158085682Y-77393931D01*
X158051115Y-77376318D01*
X158023682Y-77348885D01*
X158006069Y-77314318D01*
X158000000Y-77276000D01*
X158000000Y-75160633D01*
X161299500Y-75160633D01*
X161299500Y-75239366D01*
X161309774Y-75317399D01*
X161309774Y-75317402D01*
X161309775Y-75317403D01*
X161330149Y-75393438D01*
X161340074Y-75417399D01*
X161360272Y-75466162D01*
X161360278Y-75466175D01*
X161399624Y-75534322D01*
X161399638Y-75534344D01*
X161447550Y-75596784D01*
X161447556Y-75596791D01*
X161503208Y-75652443D01*
X161503215Y-75652449D01*
X161565655Y-75700361D01*
X161565660Y-75700364D01*
X161565665Y-75700368D01*
X161565675Y-75700374D01*
X161565677Y-75700375D01*
X161633824Y-75739721D01*
X161633832Y-75739724D01*
X161633836Y-75739727D01*
X161706562Y-75769851D01*
X161782597Y-75790225D01*
X161851362Y-75799278D01*
X161859691Y-75800375D01*
X161860641Y-75800500D01*
X161860648Y-75800500D01*
X161939352Y-75800500D01*
X161939359Y-75800500D01*
X162017403Y-75790225D01*
X162093438Y-75769851D01*
X162166164Y-75739727D01*
X162166171Y-75739722D01*
X162166175Y-75739721D01*
X162213635Y-75712319D01*
X162234335Y-75700368D01*
X162296786Y-75652448D01*
X162352448Y-75596786D01*
X162400368Y-75534335D01*
X162439727Y-75466164D01*
X162469851Y-75393438D01*
X162490225Y-75317403D01*
X162497699Y-75260633D01*
X165899500Y-75260633D01*
X165899500Y-75339366D01*
X165909774Y-75417399D01*
X165909775Y-75417403D01*
X165930149Y-75493438D01*
X165947084Y-75534322D01*
X165960272Y-75566162D01*
X165960278Y-75566175D01*
X165999624Y-75634322D01*
X165999638Y-75634344D01*
X166047550Y-75696784D01*
X166047556Y-75696791D01*
X166063084Y-75712319D01*
X166085888Y-75743705D01*
X166097876Y-75780602D01*
X166097876Y-75819398D01*
X166085888Y-75856295D01*
X166063084Y-75887681D01*
X166047556Y-75903208D01*
X166047550Y-75903215D01*
X165999638Y-75965655D01*
X165999624Y-75965677D01*
X165960278Y-76033824D01*
X165960272Y-76033837D01*
X165930148Y-76106565D01*
X165909774Y-76182600D01*
X165899500Y-76260633D01*
X165899500Y-76339366D01*
X165909774Y-76417399D01*
X165909775Y-76417403D01*
X165930149Y-76493438D01*
X165954033Y-76551099D01*
X165960272Y-76566162D01*
X165960278Y-76566175D01*
X165999624Y-76634322D01*
X165999638Y-76634344D01*
X166047550Y-76696784D01*
X166047556Y-76696791D01*
X166103208Y-76752443D01*
X166103215Y-76752449D01*
X166165655Y-76800361D01*
X166165660Y-76800364D01*
X166165665Y-76800368D01*
X166165675Y-76800374D01*
X166165677Y-76800375D01*
X166233824Y-76839721D01*
X166233832Y-76839724D01*
X166233836Y-76839727D01*
X166306562Y-76869851D01*
X166382597Y-76890225D01*
X166460641Y-76900500D01*
X166460648Y-76900500D01*
X166539352Y-76900500D01*
X166539359Y-76900500D01*
X166617403Y-76890225D01*
X166693438Y-76869851D01*
X166766164Y-76839727D01*
X166766171Y-76839722D01*
X166766175Y-76839721D01*
X166794094Y-76823601D01*
X166834335Y-76800368D01*
X166896786Y-76752448D01*
X166952448Y-76696786D01*
X167000368Y-76634335D01*
X167039727Y-76566164D01*
X167069851Y-76493438D01*
X167090225Y-76417403D01*
X167100500Y-76339359D01*
X167100500Y-76260641D01*
X167090225Y-76182597D01*
X167069851Y-76106562D01*
X167039727Y-76033836D01*
X167039724Y-76033832D01*
X167039721Y-76033824D01*
X167005956Y-75975343D01*
X166992052Y-75939125D01*
X166990021Y-75900382D01*
X167000062Y-75862908D01*
X167021191Y-75830371D01*
X167051341Y-75805956D01*
X167087559Y-75792052D01*
X167126302Y-75790021D01*
X167163776Y-75800062D01*
X167175343Y-75805956D01*
X167233824Y-75839721D01*
X167233832Y-75839724D01*
X167233836Y-75839727D01*
X167306562Y-75869851D01*
X167382597Y-75890225D01*
X167451362Y-75899278D01*
X167459744Y-75900382D01*
X167460641Y-75900500D01*
X167460648Y-75900500D01*
X167539352Y-75900500D01*
X167539359Y-75900500D01*
X167617403Y-75890225D01*
X167693438Y-75869851D01*
X167766164Y-75839727D01*
X167766171Y-75839722D01*
X167766175Y-75839721D01*
X167834106Y-75800500D01*
X167834335Y-75800368D01*
X167896786Y-75752448D01*
X167952448Y-75696786D01*
X168000368Y-75634335D01*
X168039727Y-75566164D01*
X168069851Y-75493438D01*
X168090225Y-75417403D01*
X168100500Y-75339359D01*
X168100500Y-75260641D01*
X168090225Y-75182597D01*
X168069851Y-75106562D01*
X168039727Y-75033836D01*
X168039724Y-75033832D01*
X168039721Y-75033824D01*
X168000375Y-74965677D01*
X168000374Y-74965675D01*
X168000368Y-74965665D01*
X168000364Y-74965660D01*
X168000361Y-74965655D01*
X167952449Y-74903215D01*
X167952443Y-74903208D01*
X167896791Y-74847556D01*
X167896784Y-74847550D01*
X167834344Y-74799638D01*
X167834322Y-74799624D01*
X167766175Y-74760278D01*
X167766162Y-74760272D01*
X167735462Y-74747556D01*
X167693438Y-74730149D01*
X167617403Y-74709775D01*
X167617402Y-74709774D01*
X167617399Y-74709774D01*
X167539366Y-74699500D01*
X167539359Y-74699500D01*
X167460641Y-74699500D01*
X167460633Y-74699500D01*
X167382600Y-74709774D01*
X167306565Y-74730148D01*
X167306563Y-74730148D01*
X167306562Y-74730149D01*
X167285263Y-74738971D01*
X167233837Y-74760272D01*
X167233824Y-74760278D01*
X167165677Y-74799624D01*
X167165655Y-74799638D01*
X167103215Y-74847550D01*
X167103208Y-74847556D01*
X167087681Y-74863084D01*
X167056295Y-74885888D01*
X167019398Y-74897876D01*
X166980602Y-74897876D01*
X166943705Y-74885888D01*
X166912319Y-74863084D01*
X166896791Y-74847556D01*
X166896784Y-74847550D01*
X166834344Y-74799638D01*
X166834322Y-74799624D01*
X166766175Y-74760278D01*
X166766162Y-74760272D01*
X166735462Y-74747556D01*
X166693438Y-74730149D01*
X166617403Y-74709775D01*
X166617402Y-74709774D01*
X166617399Y-74709774D01*
X166539366Y-74699500D01*
X166539359Y-74699500D01*
X166460641Y-74699500D01*
X166460633Y-74699500D01*
X166382600Y-74709774D01*
X166306565Y-74730148D01*
X166306563Y-74730148D01*
X166306562Y-74730149D01*
X166285263Y-74738971D01*
X166233837Y-74760272D01*
X166233824Y-74760278D01*
X166165677Y-74799624D01*
X166165655Y-74799638D01*
X166103215Y-74847550D01*
X166103208Y-74847556D01*
X166047556Y-74903208D01*
X166047550Y-74903215D01*
X165999638Y-74965655D01*
X165999624Y-74965677D01*
X165960278Y-75033824D01*
X165960272Y-75033837D01*
X165930148Y-75106565D01*
X165909774Y-75182600D01*
X165899500Y-75260633D01*
X162497699Y-75260633D01*
X162500364Y-75240395D01*
X162500365Y-75240391D01*
X162500498Y-75239378D01*
X162500499Y-75239366D01*
X162500500Y-75239359D01*
X162500500Y-75160641D01*
X162490225Y-75082597D01*
X162469851Y-75006562D01*
X162439727Y-74933836D01*
X162439724Y-74933832D01*
X162439721Y-74933824D01*
X162400375Y-74865677D01*
X162400374Y-74865675D01*
X162400368Y-74865665D01*
X162400364Y-74865660D01*
X162400361Y-74865655D01*
X162352449Y-74803215D01*
X162352443Y-74803208D01*
X162296791Y-74747556D01*
X162296784Y-74747550D01*
X162234344Y-74699638D01*
X162234322Y-74699624D01*
X162166175Y-74660278D01*
X162166162Y-74660272D01*
X162151099Y-74654033D01*
X162093438Y-74630149D01*
X162017403Y-74609775D01*
X162017402Y-74609774D01*
X162017399Y-74609774D01*
X161939366Y-74599500D01*
X161939359Y-74599500D01*
X161860641Y-74599500D01*
X161860633Y-74599500D01*
X161782600Y-74609774D01*
X161706565Y-74630148D01*
X161706563Y-74630148D01*
X161706562Y-74630149D01*
X161685263Y-74638971D01*
X161633837Y-74660272D01*
X161633824Y-74660278D01*
X161565677Y-74699624D01*
X161565655Y-74699638D01*
X161503215Y-74747550D01*
X161503208Y-74747556D01*
X161447556Y-74803208D01*
X161447550Y-74803215D01*
X161399638Y-74865655D01*
X161399624Y-74865677D01*
X161360278Y-74933824D01*
X161360272Y-74933837D01*
X161330148Y-75006565D01*
X161309774Y-75082600D01*
X161299500Y-75160633D01*
X158000000Y-75160633D01*
X158000000Y-73935633D01*
X159574500Y-73935633D01*
X159574500Y-74014366D01*
X159584488Y-74090225D01*
X159584775Y-74092403D01*
X159605149Y-74168438D01*
X159629033Y-74226099D01*
X159635272Y-74241162D01*
X159635278Y-74241175D01*
X159674624Y-74309322D01*
X159674638Y-74309344D01*
X159722550Y-74371784D01*
X159722556Y-74371791D01*
X159778208Y-74427443D01*
X159778215Y-74427449D01*
X159840655Y-74475361D01*
X159840660Y-74475364D01*
X159840665Y-74475368D01*
X159840675Y-74475374D01*
X159840677Y-74475375D01*
X159908824Y-74514721D01*
X159908832Y-74514724D01*
X159908836Y-74514727D01*
X159981562Y-74544851D01*
X160057597Y-74565225D01*
X160135641Y-74575500D01*
X160135648Y-74575500D01*
X160214352Y-74575500D01*
X160214359Y-74575500D01*
X160292403Y-74565225D01*
X160368438Y-74544851D01*
X160441164Y-74514727D01*
X160441171Y-74514722D01*
X160441175Y-74514721D01*
X160469094Y-74498601D01*
X160509335Y-74475368D01*
X160571786Y-74427448D01*
X160627448Y-74371786D01*
X160675368Y-74309335D01*
X160714727Y-74241164D01*
X160744851Y-74168438D01*
X160765225Y-74092403D01*
X160775500Y-74014359D01*
X160775500Y-73935641D01*
X160765225Y-73857597D01*
X160744851Y-73781562D01*
X160714727Y-73708836D01*
X160714724Y-73708832D01*
X160714721Y-73708824D01*
X160675375Y-73640677D01*
X160675374Y-73640675D01*
X160675368Y-73640665D01*
X160675364Y-73640660D01*
X160675361Y-73640655D01*
X160627449Y-73578215D01*
X160627443Y-73578208D01*
X160571791Y-73522556D01*
X160571784Y-73522550D01*
X160509344Y-73474638D01*
X160509322Y-73474624D01*
X160441175Y-73435278D01*
X160441162Y-73435272D01*
X160426099Y-73429033D01*
X160368438Y-73405149D01*
X160292403Y-73384775D01*
X160292402Y-73384774D01*
X160292399Y-73384774D01*
X160214366Y-73374500D01*
X160214359Y-73374500D01*
X160135641Y-73374500D01*
X160135633Y-73374500D01*
X160057600Y-73384774D01*
X159981565Y-73405148D01*
X159981563Y-73405148D01*
X159981562Y-73405149D01*
X159960263Y-73413971D01*
X159908837Y-73435272D01*
X159908824Y-73435278D01*
X159840677Y-73474624D01*
X159840655Y-73474638D01*
X159778215Y-73522550D01*
X159778208Y-73522556D01*
X159722556Y-73578208D01*
X159722550Y-73578215D01*
X159674638Y-73640655D01*
X159674624Y-73640677D01*
X159635278Y-73708824D01*
X159635272Y-73708837D01*
X159613971Y-73760263D01*
X159611523Y-73766175D01*
X159605148Y-73781565D01*
X159584774Y-73857600D01*
X159574500Y-73935633D01*
X158000000Y-73935633D01*
X158000000Y-71760633D01*
X160499500Y-71760633D01*
X160499500Y-71839366D01*
X160508348Y-71906565D01*
X160509775Y-71917403D01*
X160530149Y-71993438D01*
X160534199Y-72003215D01*
X160560272Y-72066162D01*
X160560278Y-72066175D01*
X160599624Y-72134322D01*
X160599638Y-72134344D01*
X160647550Y-72196784D01*
X160647556Y-72196791D01*
X160703208Y-72252443D01*
X160703215Y-72252449D01*
X160765655Y-72300361D01*
X160765660Y-72300364D01*
X160765665Y-72300368D01*
X160765675Y-72300374D01*
X160765677Y-72300375D01*
X160833824Y-72339721D01*
X160833832Y-72339724D01*
X160833836Y-72339727D01*
X160906562Y-72369851D01*
X160982597Y-72390225D01*
X161060641Y-72400500D01*
X161060648Y-72400500D01*
X161139352Y-72400500D01*
X161139359Y-72400500D01*
X161217403Y-72390225D01*
X161250474Y-72381363D01*
X161289052Y-72377309D01*
X161327000Y-72385375D01*
X161360598Y-72404772D01*
X161386558Y-72433603D01*
X161402338Y-72469044D01*
X161405502Y-72484950D01*
X161407399Y-72499357D01*
X161409775Y-72517403D01*
X161430149Y-72593438D01*
X161446883Y-72633837D01*
X161460272Y-72666162D01*
X161460278Y-72666175D01*
X161499624Y-72734322D01*
X161499638Y-72734344D01*
X161547550Y-72796784D01*
X161547556Y-72796791D01*
X161603208Y-72852443D01*
X161603215Y-72852449D01*
X161665655Y-72900361D01*
X161665660Y-72900364D01*
X161665665Y-72900368D01*
X161665675Y-72900374D01*
X161665677Y-72900375D01*
X161733824Y-72939721D01*
X161733832Y-72939724D01*
X161733836Y-72939727D01*
X161806562Y-72969851D01*
X161882597Y-72990225D01*
X161960641Y-73000500D01*
X161960648Y-73000500D01*
X162039352Y-73000500D01*
X162039359Y-73000500D01*
X162117403Y-72990225D01*
X162193438Y-72969851D01*
X162266164Y-72939727D01*
X162266171Y-72939722D01*
X162266175Y-72939721D01*
X162313258Y-72912537D01*
X162334335Y-72900368D01*
X162396786Y-72852448D01*
X162452448Y-72796786D01*
X162500368Y-72734335D01*
X162539727Y-72666164D01*
X162569851Y-72593438D01*
X162590225Y-72517403D01*
X162600500Y-72439359D01*
X162600500Y-72360641D01*
X162590225Y-72282597D01*
X162569851Y-72206562D01*
X162539727Y-72133836D01*
X162500368Y-72065665D01*
X162500363Y-72065659D01*
X162500361Y-72065655D01*
X162496507Y-72060633D01*
X169099500Y-72060633D01*
X169099500Y-72139366D01*
X169108348Y-72206565D01*
X169109775Y-72217403D01*
X169130149Y-72293438D01*
X169154033Y-72351099D01*
X169160272Y-72366162D01*
X169160278Y-72366175D01*
X169199624Y-72434322D01*
X169199638Y-72434344D01*
X169249524Y-72499357D01*
X169268036Y-72533452D01*
X169275106Y-72571598D01*
X169270041Y-72610062D01*
X169261529Y-72629927D01*
X169262069Y-72630194D01*
X169260272Y-72633837D01*
X169230148Y-72706565D01*
X169209774Y-72782600D01*
X169199500Y-72860633D01*
X169199500Y-72939366D01*
X169209774Y-73017399D01*
X169209775Y-73017403D01*
X169230149Y-73093438D01*
X169234199Y-73103215D01*
X169260272Y-73166162D01*
X169260278Y-73166175D01*
X169299624Y-73234322D01*
X169299638Y-73234344D01*
X169347550Y-73296784D01*
X169347556Y-73296791D01*
X169403208Y-73352443D01*
X169403215Y-73352449D01*
X169465655Y-73400361D01*
X169465660Y-73400364D01*
X169465665Y-73400368D01*
X169465675Y-73400374D01*
X169465677Y-73400375D01*
X169533824Y-73439721D01*
X169533832Y-73439724D01*
X169533836Y-73439727D01*
X169606562Y-73469851D01*
X169613382Y-73471678D01*
X169648823Y-73487458D01*
X169677654Y-73513417D01*
X169697052Y-73547015D01*
X169704227Y-73575265D01*
X169706974Y-73596132D01*
X169709775Y-73617403D01*
X169730149Y-73693438D01*
X169754033Y-73751099D01*
X169760272Y-73766162D01*
X169760278Y-73766175D01*
X169799624Y-73834322D01*
X169799638Y-73834344D01*
X169847550Y-73896784D01*
X169847556Y-73896791D01*
X169903208Y-73952443D01*
X169903215Y-73952449D01*
X169965655Y-74000361D01*
X169965660Y-74000364D01*
X169965665Y-74000368D01*
X169965675Y-74000374D01*
X169965677Y-74000375D01*
X170033824Y-74039721D01*
X170033832Y-74039724D01*
X170033836Y-74039727D01*
X170106562Y-74069851D01*
X170182597Y-74090225D01*
X170260641Y-74100500D01*
X170260648Y-74100500D01*
X170339352Y-74100500D01*
X170339359Y-74100500D01*
X170417403Y-74090225D01*
X170493438Y-74069851D01*
X170566164Y-74039727D01*
X170566171Y-74039722D01*
X170566175Y-74039721D01*
X170610114Y-74014352D01*
X170634335Y-74000368D01*
X170696786Y-73952448D01*
X170752448Y-73896786D01*
X170800368Y-73834335D01*
X170839727Y-73766164D01*
X170869851Y-73693438D01*
X170890225Y-73617403D01*
X170900500Y-73539359D01*
X170900500Y-73460641D01*
X170890225Y-73382597D01*
X170869851Y-73306562D01*
X170839727Y-73233836D01*
X170839724Y-73233832D01*
X170839721Y-73233824D01*
X170800375Y-73165677D01*
X170800374Y-73165675D01*
X170800368Y-73165665D01*
X170800364Y-73165660D01*
X170800361Y-73165655D01*
X170752449Y-73103215D01*
X170752443Y-73103208D01*
X170696791Y-73047556D01*
X170696784Y-73047550D01*
X170634344Y-72999638D01*
X170634322Y-72999624D01*
X170566175Y-72960278D01*
X170566162Y-72960272D01*
X170516561Y-72939727D01*
X170493438Y-72930149D01*
X170493434Y-72930148D01*
X170493432Y-72930147D01*
X170486610Y-72928319D01*
X170451170Y-72912537D01*
X170422340Y-72886576D01*
X170402944Y-72852977D01*
X170395772Y-72824731D01*
X170390225Y-72782597D01*
X170369851Y-72706562D01*
X170339727Y-72633836D01*
X170339724Y-72633832D01*
X170339721Y-72633824D01*
X170300375Y-72565677D01*
X170300374Y-72565675D01*
X170300368Y-72565665D01*
X170300364Y-72565660D01*
X170300361Y-72565655D01*
X170250475Y-72500642D01*
X170231963Y-72466547D01*
X170224893Y-72428401D01*
X170229958Y-72389937D01*
X170238492Y-72370083D01*
X170237931Y-72369806D01*
X170239720Y-72366175D01*
X170239727Y-72366164D01*
X170269851Y-72293438D01*
X170290225Y-72217403D01*
X170300500Y-72139359D01*
X170300500Y-72060641D01*
X170290225Y-71982597D01*
X170269851Y-71906562D01*
X170239727Y-71833836D01*
X170239724Y-71833832D01*
X170239721Y-71833824D01*
X170200375Y-71765677D01*
X170200374Y-71765675D01*
X170200368Y-71765665D01*
X170200364Y-71765660D01*
X170200361Y-71765655D01*
X170152449Y-71703215D01*
X170152443Y-71703208D01*
X170096791Y-71647556D01*
X170096784Y-71647550D01*
X170034344Y-71599638D01*
X170034322Y-71599624D01*
X169966175Y-71560278D01*
X169966162Y-71560272D01*
X169951099Y-71554033D01*
X169893438Y-71530149D01*
X169817403Y-71509775D01*
X169817402Y-71509774D01*
X169817399Y-71509774D01*
X169739366Y-71499500D01*
X169739359Y-71499500D01*
X169660641Y-71499500D01*
X169660633Y-71499500D01*
X169582600Y-71509774D01*
X169506565Y-71530148D01*
X169506563Y-71530148D01*
X169506562Y-71530149D01*
X169485263Y-71538971D01*
X169433837Y-71560272D01*
X169433824Y-71560278D01*
X169365677Y-71599624D01*
X169365655Y-71599638D01*
X169303215Y-71647550D01*
X169303208Y-71647556D01*
X169247556Y-71703208D01*
X169247550Y-71703215D01*
X169199638Y-71765655D01*
X169199624Y-71765677D01*
X169160278Y-71833824D01*
X169160272Y-71833837D01*
X169157985Y-71839359D01*
X169133020Y-71899632D01*
X169130148Y-71906565D01*
X169109774Y-71982600D01*
X169099500Y-72060633D01*
X162496507Y-72060633D01*
X162452449Y-72003215D01*
X162452443Y-72003208D01*
X162396791Y-71947556D01*
X162396784Y-71947550D01*
X162334344Y-71899638D01*
X162334322Y-71899624D01*
X162266175Y-71860278D01*
X162266162Y-71860272D01*
X162251099Y-71854033D01*
X162193438Y-71830149D01*
X162117403Y-71809775D01*
X162117402Y-71809774D01*
X162117399Y-71809774D01*
X162039366Y-71799500D01*
X162039359Y-71799500D01*
X161960641Y-71799500D01*
X161960633Y-71799500D01*
X161882600Y-71809774D01*
X161849527Y-71818636D01*
X161810944Y-71822690D01*
X161772996Y-71814623D01*
X161739398Y-71795224D01*
X161713439Y-71766393D01*
X161697660Y-71730951D01*
X161694497Y-71715046D01*
X161692939Y-71703214D01*
X161690225Y-71682597D01*
X161669851Y-71606562D01*
X161639727Y-71533836D01*
X161639724Y-71533832D01*
X161639721Y-71533824D01*
X161600375Y-71465677D01*
X161600374Y-71465675D01*
X161600368Y-71465665D01*
X161600364Y-71465660D01*
X161600361Y-71465655D01*
X161552449Y-71403215D01*
X161552443Y-71403208D01*
X161496791Y-71347556D01*
X161496784Y-71347550D01*
X161434344Y-71299638D01*
X161434322Y-71299624D01*
X161366175Y-71260278D01*
X161366162Y-71260272D01*
X161351099Y-71254033D01*
X161293438Y-71230149D01*
X161217403Y-71209775D01*
X161217402Y-71209774D01*
X161217399Y-71209774D01*
X161139366Y-71199500D01*
X161139359Y-71199500D01*
X161060641Y-71199500D01*
X161060633Y-71199500D01*
X160982600Y-71209774D01*
X160906565Y-71230148D01*
X160906563Y-71230148D01*
X160906562Y-71230149D01*
X160885263Y-71238971D01*
X160833837Y-71260272D01*
X160833824Y-71260278D01*
X160765677Y-71299624D01*
X160765655Y-71299638D01*
X160703215Y-71347550D01*
X160703208Y-71347556D01*
X160647556Y-71403208D01*
X160647550Y-71403215D01*
X160599638Y-71465655D01*
X160599624Y-71465677D01*
X160560278Y-71533824D01*
X160560272Y-71533837D01*
X160549323Y-71560272D01*
X160533020Y-71599632D01*
X160530148Y-71606565D01*
X160509774Y-71682600D01*
X160499500Y-71760633D01*
X158000000Y-71760633D01*
X158000000Y-69950633D01*
X160909500Y-69950633D01*
X160909500Y-70029366D01*
X160919774Y-70107399D01*
X160919775Y-70107403D01*
X160940149Y-70183438D01*
X160952478Y-70213202D01*
X160970272Y-70256162D01*
X160970278Y-70256175D01*
X161009624Y-70324322D01*
X161009638Y-70324344D01*
X161057550Y-70386784D01*
X161057556Y-70386791D01*
X161113208Y-70442443D01*
X161113215Y-70442449D01*
X161175655Y-70490361D01*
X161175660Y-70490364D01*
X161175665Y-70490368D01*
X161175675Y-70490374D01*
X161175677Y-70490375D01*
X161243824Y-70529721D01*
X161243832Y-70529724D01*
X161243836Y-70529727D01*
X161316562Y-70559851D01*
X161392597Y-70580225D01*
X161470641Y-70590500D01*
X161470648Y-70590500D01*
X161549352Y-70590500D01*
X161549359Y-70590500D01*
X161627403Y-70580225D01*
X161703438Y-70559851D01*
X161776164Y-70529727D01*
X161776171Y-70529722D01*
X161776175Y-70529721D01*
X161804094Y-70513601D01*
X161844335Y-70490368D01*
X161906786Y-70442448D01*
X161962448Y-70386786D01*
X161977421Y-70367273D01*
X163907082Y-70367273D01*
X163907082Y-70446006D01*
X163912923Y-70490368D01*
X163917357Y-70524043D01*
X163937731Y-70600078D01*
X163961615Y-70657739D01*
X163967854Y-70672802D01*
X163967860Y-70672815D01*
X164007206Y-70740962D01*
X164007220Y-70740984D01*
X164055132Y-70803424D01*
X164055138Y-70803431D01*
X164110790Y-70859083D01*
X164110797Y-70859089D01*
X164173237Y-70907001D01*
X164173242Y-70907004D01*
X164173247Y-70907008D01*
X164173257Y-70907014D01*
X164173259Y-70907015D01*
X164241406Y-70946361D01*
X164241414Y-70946364D01*
X164241418Y-70946367D01*
X164314144Y-70976491D01*
X164390179Y-70996865D01*
X164468223Y-71007140D01*
X164468230Y-71007140D01*
X164546934Y-71007140D01*
X164546941Y-71007140D01*
X164624985Y-70996865D01*
X164701020Y-70976491D01*
X164773746Y-70946367D01*
X164773753Y-70946362D01*
X164773757Y-70946361D01*
X164801676Y-70930241D01*
X164841917Y-70907008D01*
X164904368Y-70859088D01*
X164960030Y-70803426D01*
X165007950Y-70740975D01*
X165047309Y-70672804D01*
X165077433Y-70600078D01*
X165097807Y-70524043D01*
X165108082Y-70445999D01*
X165108082Y-70367281D01*
X165097807Y-70289237D01*
X165077433Y-70213202D01*
X165047309Y-70140476D01*
X165047306Y-70140472D01*
X165047303Y-70140464D01*
X165007957Y-70072317D01*
X165007956Y-70072315D01*
X165007950Y-70072305D01*
X165007946Y-70072300D01*
X165007943Y-70072295D01*
X164960031Y-70009855D01*
X164960025Y-70009848D01*
X164904373Y-69954196D01*
X164904366Y-69954190D01*
X164841926Y-69906278D01*
X164841904Y-69906264D01*
X164773757Y-69866918D01*
X164773744Y-69866912D01*
X164758681Y-69860673D01*
X164701020Y-69836789D01*
X164624985Y-69816415D01*
X164624984Y-69816414D01*
X164624981Y-69816414D01*
X164546948Y-69806140D01*
X164546941Y-69806140D01*
X164468223Y-69806140D01*
X164468215Y-69806140D01*
X164390182Y-69816414D01*
X164314147Y-69836788D01*
X164314145Y-69836788D01*
X164314144Y-69836789D01*
X164292845Y-69845611D01*
X164241419Y-69866912D01*
X164241406Y-69866918D01*
X164173259Y-69906264D01*
X164173237Y-69906278D01*
X164110797Y-69954190D01*
X164110790Y-69954196D01*
X164055138Y-70009848D01*
X164055132Y-70009855D01*
X164007220Y-70072295D01*
X164007206Y-70072317D01*
X163967860Y-70140464D01*
X163967854Y-70140477D01*
X163937730Y-70213205D01*
X163917356Y-70289240D01*
X163907082Y-70367273D01*
X161977421Y-70367273D01*
X162010368Y-70324335D01*
X162049727Y-70256164D01*
X162079851Y-70183438D01*
X162100225Y-70107403D01*
X162110500Y-70029359D01*
X162110500Y-69950641D01*
X162100225Y-69872597D01*
X162079851Y-69796562D01*
X162049727Y-69723836D01*
X162049724Y-69723832D01*
X162049721Y-69723824D01*
X162010375Y-69655677D01*
X162010374Y-69655675D01*
X162010368Y-69655665D01*
X162010364Y-69655660D01*
X162010361Y-69655655D01*
X161962449Y-69593215D01*
X161962443Y-69593208D01*
X161906791Y-69537556D01*
X161906784Y-69537550D01*
X161844344Y-69489638D01*
X161844322Y-69489624D01*
X161776175Y-69450278D01*
X161776162Y-69450272D01*
X161761099Y-69444033D01*
X161703438Y-69420149D01*
X161627403Y-69399775D01*
X161627402Y-69399774D01*
X161627399Y-69399774D01*
X161549366Y-69389500D01*
X161549359Y-69389500D01*
X161470641Y-69389500D01*
X161470633Y-69389500D01*
X161392600Y-69399774D01*
X161316565Y-69420148D01*
X161316563Y-69420148D01*
X161316562Y-69420149D01*
X161295263Y-69428971D01*
X161243837Y-69450272D01*
X161243824Y-69450278D01*
X161175677Y-69489624D01*
X161175655Y-69489638D01*
X161113215Y-69537550D01*
X161113208Y-69537556D01*
X161057556Y-69593208D01*
X161057550Y-69593215D01*
X161009638Y-69655655D01*
X161009624Y-69655677D01*
X160970278Y-69723824D01*
X160970272Y-69723837D01*
X160940148Y-69796565D01*
X160919774Y-69872600D01*
X160909500Y-69950633D01*
X158000000Y-69950633D01*
X158000000Y-68960633D01*
X165099500Y-68960633D01*
X165099500Y-69039366D01*
X165109774Y-69117399D01*
X165109775Y-69117403D01*
X165130149Y-69193438D01*
X165154033Y-69251099D01*
X165160272Y-69266162D01*
X165160278Y-69266175D01*
X165199624Y-69334322D01*
X165199638Y-69334344D01*
X165247550Y-69396784D01*
X165247556Y-69396791D01*
X165303208Y-69452443D01*
X165303215Y-69452449D01*
X165365655Y-69500361D01*
X165365660Y-69500364D01*
X165365665Y-69500368D01*
X165365675Y-69500374D01*
X165365677Y-69500375D01*
X165433824Y-69539721D01*
X165433832Y-69539724D01*
X165433836Y-69539727D01*
X165506562Y-69569851D01*
X165582597Y-69590225D01*
X165660641Y-69600500D01*
X165660648Y-69600500D01*
X165739352Y-69600500D01*
X165739359Y-69600500D01*
X165817403Y-69590225D01*
X165893438Y-69569851D01*
X165966164Y-69539727D01*
X165966171Y-69539722D01*
X165966175Y-69539721D01*
X165994094Y-69523601D01*
X166034335Y-69500368D01*
X166096786Y-69452448D01*
X166152448Y-69396786D01*
X166200368Y-69334335D01*
X166239727Y-69266164D01*
X166269851Y-69193438D01*
X166290225Y-69117403D01*
X166300500Y-69039359D01*
X166300500Y-68960641D01*
X166290225Y-68882597D01*
X166269851Y-68806562D01*
X166239727Y-68733836D01*
X166239724Y-68733832D01*
X166239721Y-68733824D01*
X166200375Y-68665677D01*
X166200374Y-68665675D01*
X166200368Y-68665665D01*
X166200364Y-68665660D01*
X166200361Y-68665655D01*
X166152449Y-68603215D01*
X166152443Y-68603208D01*
X166096791Y-68547556D01*
X166096784Y-68547550D01*
X166034344Y-68499638D01*
X166034322Y-68499624D01*
X165966175Y-68460278D01*
X165966162Y-68460272D01*
X165951099Y-68454033D01*
X165893438Y-68430149D01*
X165817403Y-68409775D01*
X165817402Y-68409774D01*
X165817399Y-68409774D01*
X165739366Y-68399500D01*
X165739359Y-68399500D01*
X165660641Y-68399500D01*
X165660633Y-68399500D01*
X165582600Y-68409774D01*
X165506565Y-68430148D01*
X165506563Y-68430148D01*
X165506562Y-68430149D01*
X165485263Y-68438971D01*
X165433837Y-68460272D01*
X165433824Y-68460278D01*
X165365677Y-68499624D01*
X165365655Y-68499638D01*
X165303215Y-68547550D01*
X165303208Y-68547556D01*
X165247556Y-68603208D01*
X165247550Y-68603215D01*
X165199638Y-68665655D01*
X165199624Y-68665677D01*
X165160278Y-68733824D01*
X165160272Y-68733837D01*
X165130148Y-68806565D01*
X165109774Y-68882600D01*
X165099500Y-68960633D01*
X158000000Y-68960633D01*
X158000000Y-68235633D01*
X170799500Y-68235633D01*
X170799500Y-68314366D01*
X170809774Y-68392399D01*
X170809775Y-68392403D01*
X170830149Y-68468438D01*
X170854033Y-68526099D01*
X170860272Y-68541162D01*
X170860278Y-68541175D01*
X170899624Y-68609322D01*
X170899638Y-68609344D01*
X170947550Y-68671784D01*
X170947556Y-68671791D01*
X171003208Y-68727443D01*
X171003215Y-68727449D01*
X171065655Y-68775361D01*
X171065660Y-68775364D01*
X171065665Y-68775368D01*
X171065675Y-68775374D01*
X171065677Y-68775375D01*
X171133824Y-68814721D01*
X171133832Y-68814724D01*
X171133836Y-68814727D01*
X171206562Y-68844851D01*
X171282597Y-68865225D01*
X171360641Y-68875500D01*
X171360648Y-68875500D01*
X171439352Y-68875500D01*
X171439359Y-68875500D01*
X171517403Y-68865225D01*
X171593438Y-68844851D01*
X171666164Y-68814727D01*
X171666171Y-68814722D01*
X171666175Y-68814721D01*
X171694094Y-68798601D01*
X171734335Y-68775368D01*
X171796786Y-68727448D01*
X171852448Y-68671786D01*
X171900368Y-68609335D01*
X171939727Y-68541164D01*
X171969851Y-68468438D01*
X171990225Y-68392403D01*
X172000500Y-68314359D01*
X172000500Y-68235641D01*
X171990225Y-68157597D01*
X171969851Y-68081562D01*
X171939727Y-68008836D01*
X171939724Y-68008832D01*
X171939721Y-68008824D01*
X171900375Y-67940677D01*
X171900374Y-67940675D01*
X171900368Y-67940665D01*
X171900364Y-67940660D01*
X171900361Y-67940655D01*
X171852449Y-67878215D01*
X171852443Y-67878208D01*
X171796791Y-67822556D01*
X171796784Y-67822550D01*
X171734344Y-67774638D01*
X171734322Y-67774624D01*
X171666175Y-67735278D01*
X171666162Y-67735272D01*
X171651099Y-67729033D01*
X171593438Y-67705149D01*
X171517403Y-67684775D01*
X171517402Y-67684774D01*
X171517399Y-67684774D01*
X171439366Y-67674500D01*
X171439359Y-67674500D01*
X171360641Y-67674500D01*
X171360633Y-67674500D01*
X171282600Y-67684774D01*
X171206565Y-67705148D01*
X171206563Y-67705148D01*
X171206562Y-67705149D01*
X171185263Y-67713971D01*
X171133837Y-67735272D01*
X171133824Y-67735278D01*
X171065677Y-67774624D01*
X171065655Y-67774638D01*
X171003215Y-67822550D01*
X171003208Y-67822556D01*
X170947556Y-67878208D01*
X170947550Y-67878215D01*
X170899638Y-67940655D01*
X170899624Y-67940677D01*
X170860278Y-68008824D01*
X170860272Y-68008837D01*
X170830148Y-68081565D01*
X170809774Y-68157600D01*
X170799500Y-68235633D01*
X158000000Y-68235633D01*
X158000000Y-67260633D01*
X158799500Y-67260633D01*
X158799500Y-67339366D01*
X158809774Y-67417399D01*
X158809775Y-67417403D01*
X158830149Y-67493438D01*
X158854033Y-67551099D01*
X158860272Y-67566162D01*
X158860278Y-67566175D01*
X158899624Y-67634322D01*
X158899638Y-67634344D01*
X158947550Y-67696784D01*
X158947556Y-67696791D01*
X159003208Y-67752443D01*
X159003215Y-67752449D01*
X159065655Y-67800361D01*
X159065660Y-67800364D01*
X159065665Y-67800368D01*
X159065675Y-67800374D01*
X159065677Y-67800375D01*
X159133824Y-67839721D01*
X159133832Y-67839724D01*
X159133836Y-67839727D01*
X159206562Y-67869851D01*
X159282597Y-67890225D01*
X159360641Y-67900500D01*
X159360648Y-67900500D01*
X159439352Y-67900500D01*
X159439359Y-67900500D01*
X159517403Y-67890225D01*
X159593438Y-67869851D01*
X159666164Y-67839727D01*
X159666171Y-67839722D01*
X159666175Y-67839721D01*
X159695915Y-67822550D01*
X159734335Y-67800368D01*
X159796786Y-67752448D01*
X159852448Y-67696786D01*
X159900368Y-67634335D01*
X159939727Y-67566164D01*
X159969851Y-67493438D01*
X159990225Y-67417403D01*
X160000500Y-67339359D01*
X160000500Y-67260641D01*
X159990225Y-67182597D01*
X159969851Y-67106562D01*
X159939727Y-67033836D01*
X159939724Y-67033832D01*
X159939721Y-67033824D01*
X159900375Y-66965677D01*
X159900374Y-66965675D01*
X159900368Y-66965665D01*
X159900364Y-66965660D01*
X159900361Y-66965655D01*
X159852449Y-66903215D01*
X159852443Y-66903208D01*
X159796791Y-66847556D01*
X159796784Y-66847550D01*
X159734344Y-66799638D01*
X159734322Y-66799624D01*
X159666175Y-66760278D01*
X159666162Y-66760272D01*
X159651099Y-66754033D01*
X159593438Y-66730149D01*
X159517403Y-66709775D01*
X159517402Y-66709774D01*
X159517399Y-66709774D01*
X159439366Y-66699500D01*
X159439359Y-66699500D01*
X159360641Y-66699500D01*
X159360633Y-66699500D01*
X159282600Y-66709774D01*
X159206565Y-66730148D01*
X159206563Y-66730148D01*
X159206562Y-66730149D01*
X159185263Y-66738971D01*
X159133837Y-66760272D01*
X159133824Y-66760278D01*
X159065677Y-66799624D01*
X159065655Y-66799638D01*
X159003215Y-66847550D01*
X159003208Y-66847556D01*
X158947556Y-66903208D01*
X158947550Y-66903215D01*
X158899638Y-66965655D01*
X158899624Y-66965677D01*
X158860278Y-67033824D01*
X158860272Y-67033837D01*
X158830148Y-67106565D01*
X158809774Y-67182600D01*
X158799500Y-67260633D01*
X158000000Y-67260633D01*
X158000000Y-66160633D01*
X160499500Y-66160633D01*
X160499500Y-66239366D01*
X160509774Y-66317399D01*
X160509775Y-66317403D01*
X160530149Y-66393438D01*
X160554033Y-66451099D01*
X160560272Y-66466162D01*
X160560278Y-66466175D01*
X160599624Y-66534322D01*
X160599638Y-66534344D01*
X160647550Y-66596784D01*
X160647556Y-66596791D01*
X160703208Y-66652443D01*
X160703215Y-66652449D01*
X160765655Y-66700361D01*
X160765660Y-66700364D01*
X160765665Y-66700368D01*
X160765675Y-66700374D01*
X160765677Y-66700375D01*
X160833824Y-66739721D01*
X160833832Y-66739724D01*
X160833836Y-66739727D01*
X160906562Y-66769851D01*
X160982597Y-66790225D01*
X161060641Y-66800500D01*
X161060648Y-66800500D01*
X161139352Y-66800500D01*
X161139359Y-66800500D01*
X161217403Y-66790225D01*
X161293438Y-66769851D01*
X161366164Y-66739727D01*
X161366171Y-66739722D01*
X161366175Y-66739721D01*
X161394094Y-66723601D01*
X161434335Y-66700368D01*
X161496786Y-66652448D01*
X161552448Y-66596786D01*
X161600368Y-66534335D01*
X161639727Y-66466164D01*
X161669851Y-66393438D01*
X161690225Y-66317403D01*
X161700500Y-66239359D01*
X161700500Y-66160641D01*
X161690225Y-66082597D01*
X161669851Y-66006562D01*
X161639727Y-65933836D01*
X161639724Y-65933832D01*
X161639721Y-65933824D01*
X161600375Y-65865677D01*
X161600374Y-65865675D01*
X161600368Y-65865665D01*
X161600364Y-65865660D01*
X161600361Y-65865655D01*
X161552449Y-65803215D01*
X161552443Y-65803208D01*
X161496791Y-65747556D01*
X161496784Y-65747550D01*
X161434344Y-65699638D01*
X161434322Y-65699624D01*
X161366175Y-65660278D01*
X161366162Y-65660272D01*
X161351099Y-65654033D01*
X161293438Y-65630149D01*
X161217403Y-65609775D01*
X161217402Y-65609774D01*
X161217399Y-65609774D01*
X161139366Y-65599500D01*
X161139359Y-65599500D01*
X161060641Y-65599500D01*
X161060633Y-65599500D01*
X160982600Y-65609774D01*
X160906565Y-65630148D01*
X160906563Y-65630148D01*
X160906562Y-65630149D01*
X160885263Y-65638971D01*
X160833837Y-65660272D01*
X160833824Y-65660278D01*
X160765677Y-65699624D01*
X160765655Y-65699638D01*
X160703215Y-65747550D01*
X160703208Y-65747556D01*
X160647556Y-65803208D01*
X160647550Y-65803215D01*
X160599638Y-65865655D01*
X160599624Y-65865677D01*
X160560278Y-65933824D01*
X160560272Y-65933837D01*
X160545355Y-65969851D01*
X160532661Y-66000499D01*
X160530148Y-66006565D01*
X160509774Y-66082600D01*
X160499500Y-66160633D01*
X158000000Y-66160633D01*
X158000000Y-65360633D01*
X169299500Y-65360633D01*
X169299500Y-65439366D01*
X169307061Y-65496791D01*
X169309775Y-65517403D01*
X169330149Y-65593438D01*
X169354033Y-65651099D01*
X169360272Y-65666162D01*
X169360278Y-65666175D01*
X169399624Y-65734322D01*
X169399638Y-65734344D01*
X169447550Y-65796784D01*
X169447556Y-65796791D01*
X169503208Y-65852443D01*
X169503215Y-65852449D01*
X169565655Y-65900361D01*
X169565660Y-65900364D01*
X169565665Y-65900368D01*
X169565675Y-65900374D01*
X169565677Y-65900375D01*
X169633824Y-65939721D01*
X169633832Y-65939724D01*
X169633836Y-65939727D01*
X169706562Y-65969851D01*
X169782597Y-65990225D01*
X169860641Y-66000500D01*
X169860648Y-66000500D01*
X169939352Y-66000500D01*
X169939359Y-66000500D01*
X170017403Y-65990225D01*
X170093438Y-65969851D01*
X170166164Y-65939727D01*
X170166171Y-65939722D01*
X170166175Y-65939721D01*
X170194094Y-65923601D01*
X170234335Y-65900368D01*
X170296786Y-65852448D01*
X170352448Y-65796786D01*
X170400368Y-65734335D01*
X170425835Y-65690225D01*
X170439721Y-65666175D01*
X170439722Y-65666171D01*
X170439727Y-65666164D01*
X170469851Y-65593438D01*
X170490225Y-65517403D01*
X170500500Y-65439359D01*
X170500500Y-65360641D01*
X170490225Y-65282597D01*
X170469851Y-65206562D01*
X170439727Y-65133836D01*
X170400368Y-65065665D01*
X170400363Y-65065659D01*
X170400361Y-65065655D01*
X170396507Y-65060633D01*
X173099500Y-65060633D01*
X173099500Y-65139366D01*
X173108348Y-65206565D01*
X173109775Y-65217403D01*
X173130149Y-65293438D01*
X173154033Y-65351099D01*
X173160272Y-65366162D01*
X173160278Y-65366175D01*
X173199624Y-65434322D01*
X173199638Y-65434344D01*
X173247550Y-65496784D01*
X173247556Y-65496791D01*
X173303208Y-65552443D01*
X173303215Y-65552449D01*
X173365655Y-65600361D01*
X173365660Y-65600364D01*
X173365665Y-65600368D01*
X173365675Y-65600374D01*
X173365677Y-65600375D01*
X173433824Y-65639721D01*
X173433832Y-65639724D01*
X173433836Y-65639727D01*
X173506562Y-65669851D01*
X173582597Y-65690225D01*
X173660641Y-65700500D01*
X173660648Y-65700500D01*
X173739352Y-65700500D01*
X173739359Y-65700500D01*
X173817403Y-65690225D01*
X173893438Y-65669851D01*
X173966164Y-65639727D01*
X173966171Y-65639722D01*
X173966175Y-65639721D01*
X173994094Y-65623601D01*
X174034335Y-65600368D01*
X174096786Y-65552448D01*
X174152448Y-65496786D01*
X174200368Y-65434335D01*
X174239727Y-65366164D01*
X174269851Y-65293438D01*
X174290225Y-65217403D01*
X174300500Y-65139359D01*
X174300500Y-65060641D01*
X174290225Y-64982597D01*
X174269851Y-64906562D01*
X174239727Y-64833836D01*
X174239724Y-64833832D01*
X174239721Y-64833824D01*
X174200375Y-64765677D01*
X174200374Y-64765675D01*
X174200368Y-64765665D01*
X174200364Y-64765660D01*
X174200361Y-64765655D01*
X174152449Y-64703215D01*
X174152443Y-64703208D01*
X174096791Y-64647556D01*
X174096784Y-64647550D01*
X174034344Y-64599638D01*
X174034322Y-64599624D01*
X173966175Y-64560278D01*
X173966162Y-64560272D01*
X173951099Y-64554033D01*
X173893438Y-64530149D01*
X173817403Y-64509775D01*
X173817402Y-64509774D01*
X173817399Y-64509774D01*
X173739366Y-64499500D01*
X173739359Y-64499500D01*
X173660641Y-64499500D01*
X173660633Y-64499500D01*
X173582600Y-64509774D01*
X173506565Y-64530148D01*
X173506563Y-64530148D01*
X173506562Y-64530149D01*
X173485263Y-64538971D01*
X173433837Y-64560272D01*
X173433824Y-64560278D01*
X173365677Y-64599624D01*
X173365655Y-64599638D01*
X173303215Y-64647550D01*
X173303208Y-64647556D01*
X173247556Y-64703208D01*
X173247550Y-64703215D01*
X173199638Y-64765655D01*
X173199624Y-64765677D01*
X173160278Y-64833824D01*
X173160272Y-64833837D01*
X173149323Y-64860272D01*
X173133020Y-64899632D01*
X173130148Y-64906565D01*
X173109774Y-64982600D01*
X173099500Y-65060633D01*
X170396507Y-65060633D01*
X170352449Y-65003215D01*
X170352443Y-65003208D01*
X170296791Y-64947556D01*
X170296784Y-64947550D01*
X170234344Y-64899638D01*
X170234322Y-64899624D01*
X170166175Y-64860278D01*
X170166162Y-64860272D01*
X170151099Y-64854033D01*
X170093438Y-64830149D01*
X170017403Y-64809775D01*
X170017402Y-64809774D01*
X170017399Y-64809774D01*
X169939366Y-64799500D01*
X169939359Y-64799500D01*
X169860641Y-64799500D01*
X169860633Y-64799500D01*
X169782600Y-64809774D01*
X169706565Y-64830148D01*
X169706563Y-64830148D01*
X169706562Y-64830149D01*
X169685263Y-64838971D01*
X169633837Y-64860272D01*
X169633824Y-64860278D01*
X169565677Y-64899624D01*
X169565655Y-64899638D01*
X169503215Y-64947550D01*
X169503208Y-64947556D01*
X169447556Y-65003208D01*
X169447550Y-65003215D01*
X169399638Y-65065655D01*
X169399624Y-65065677D01*
X169360278Y-65133824D01*
X169360272Y-65133837D01*
X169330148Y-65206565D01*
X169309774Y-65282600D01*
X169299500Y-65360633D01*
X158000000Y-65360633D01*
X158000000Y-64347908D01*
X158006069Y-64309590D01*
X158023682Y-64275023D01*
X158051115Y-64247590D01*
X158085682Y-64229977D01*
X158124000Y-64223908D01*
X158162318Y-64229977D01*
X158196885Y-64247590D01*
X158199946Y-64250037D01*
X158199993Y-64249977D01*
X158265655Y-64300361D01*
X158265660Y-64300364D01*
X158265665Y-64300368D01*
X158265675Y-64300374D01*
X158265677Y-64300375D01*
X158333824Y-64339721D01*
X158333832Y-64339724D01*
X158333836Y-64339727D01*
X158406562Y-64369851D01*
X158482597Y-64390225D01*
X158560641Y-64400500D01*
X158560648Y-64400500D01*
X158639352Y-64400500D01*
X158639359Y-64400500D01*
X158717403Y-64390225D01*
X158793438Y-64369851D01*
X158866164Y-64339727D01*
X158866171Y-64339722D01*
X158866175Y-64339721D01*
X158918362Y-64309590D01*
X158934335Y-64300368D01*
X158996786Y-64252448D01*
X159052448Y-64196786D01*
X159100368Y-64134335D01*
X159139727Y-64066164D01*
X159169851Y-63993438D01*
X159171880Y-63985867D01*
X163649500Y-63985867D01*
X163649500Y-64064600D01*
X163658683Y-64134344D01*
X163659775Y-64142637D01*
X163680149Y-64218672D01*
X163694140Y-64252449D01*
X163710272Y-64291396D01*
X163710278Y-64291409D01*
X163749624Y-64359556D01*
X163749638Y-64359578D01*
X163797550Y-64422018D01*
X163797556Y-64422025D01*
X163853208Y-64477677D01*
X163853215Y-64477683D01*
X163915655Y-64525595D01*
X163915660Y-64525598D01*
X163915665Y-64525602D01*
X163915675Y-64525608D01*
X163915677Y-64525609D01*
X163983824Y-64564955D01*
X163983832Y-64564958D01*
X163983836Y-64564961D01*
X164056562Y-64595085D01*
X164132597Y-64615459D01*
X164210641Y-64625734D01*
X164210648Y-64625734D01*
X164289352Y-64625734D01*
X164289359Y-64625734D01*
X164367403Y-64615459D01*
X164443438Y-64595085D01*
X164516164Y-64564961D01*
X164516171Y-64564956D01*
X164516175Y-64564955D01*
X164576459Y-64530149D01*
X164584335Y-64525602D01*
X164646786Y-64477682D01*
X164702448Y-64422020D01*
X164750368Y-64359569D01*
X164789727Y-64291398D01*
X164819851Y-64218672D01*
X164840225Y-64142637D01*
X164850500Y-64064593D01*
X164850500Y-63985875D01*
X164840225Y-63907831D01*
X164819851Y-63831796D01*
X164789727Y-63759070D01*
X164789724Y-63759066D01*
X164789721Y-63759058D01*
X164750375Y-63690911D01*
X164750374Y-63690909D01*
X164750368Y-63690899D01*
X164750364Y-63690894D01*
X164750361Y-63690889D01*
X164702449Y-63628449D01*
X164702443Y-63628442D01*
X164646791Y-63572790D01*
X164646784Y-63572784D01*
X164584344Y-63524872D01*
X164584322Y-63524858D01*
X164516175Y-63485512D01*
X164516162Y-63485506D01*
X164501099Y-63479267D01*
X164443438Y-63455383D01*
X164367403Y-63435009D01*
X164367402Y-63435008D01*
X164367399Y-63435008D01*
X164329311Y-63429994D01*
X164289366Y-63424734D01*
X164289359Y-63424734D01*
X164210641Y-63424734D01*
X164210633Y-63424734D01*
X164132600Y-63435008D01*
X164056565Y-63455382D01*
X164056563Y-63455382D01*
X164056562Y-63455383D01*
X164035263Y-63464205D01*
X163983837Y-63485506D01*
X163983824Y-63485512D01*
X163915677Y-63524858D01*
X163915655Y-63524872D01*
X163853215Y-63572784D01*
X163853208Y-63572790D01*
X163797556Y-63628442D01*
X163797550Y-63628449D01*
X163749638Y-63690889D01*
X163749624Y-63690911D01*
X163710278Y-63759058D01*
X163710272Y-63759071D01*
X163680148Y-63831799D01*
X163659774Y-63907834D01*
X163649500Y-63985867D01*
X159171880Y-63985867D01*
X159190225Y-63917403D01*
X159200500Y-63839359D01*
X159200500Y-63760641D01*
X159190225Y-63682597D01*
X159169851Y-63606562D01*
X159139727Y-63533836D01*
X159112396Y-63486498D01*
X159098494Y-63450281D01*
X159096463Y-63411539D01*
X159106504Y-63374065D01*
X159127633Y-63341528D01*
X159157783Y-63317112D01*
X159173429Y-63311106D01*
X165495514Y-63311106D01*
X165495514Y-63389839D01*
X165505565Y-63466175D01*
X165505789Y-63467876D01*
X165526163Y-63543911D01*
X165548067Y-63596791D01*
X165556286Y-63616635D01*
X165556292Y-63616648D01*
X165595638Y-63684795D01*
X165595652Y-63684817D01*
X165643564Y-63747257D01*
X165643570Y-63747264D01*
X165699222Y-63802916D01*
X165699229Y-63802922D01*
X165761669Y-63850834D01*
X165761674Y-63850837D01*
X165761679Y-63850841D01*
X165761689Y-63850847D01*
X165761691Y-63850848D01*
X165829838Y-63890194D01*
X165829846Y-63890197D01*
X165829850Y-63890200D01*
X165902576Y-63920324D01*
X165978611Y-63940698D01*
X166056655Y-63950973D01*
X166056662Y-63950973D01*
X166135366Y-63950973D01*
X166135373Y-63950973D01*
X166213417Y-63940698D01*
X166289452Y-63920324D01*
X166362178Y-63890200D01*
X166362185Y-63890195D01*
X166362189Y-63890194D01*
X166390108Y-63874074D01*
X166430349Y-63850841D01*
X166492800Y-63802921D01*
X166548462Y-63747259D01*
X166596382Y-63684808D01*
X166628922Y-63628448D01*
X166635735Y-63616648D01*
X166635736Y-63616644D01*
X166635741Y-63616637D01*
X166665865Y-63543911D01*
X166686239Y-63467876D01*
X166696514Y-63389832D01*
X166696514Y-63311114D01*
X166686239Y-63233070D01*
X166666829Y-63160633D01*
X173099500Y-63160633D01*
X173099500Y-63239366D01*
X173109774Y-63317399D01*
X173109775Y-63317403D01*
X173130149Y-63393438D01*
X173137647Y-63411539D01*
X173160272Y-63466162D01*
X173160278Y-63466175D01*
X173199624Y-63534322D01*
X173199638Y-63534344D01*
X173247550Y-63596784D01*
X173247556Y-63596791D01*
X173303208Y-63652443D01*
X173303215Y-63652449D01*
X173365655Y-63700361D01*
X173365660Y-63700364D01*
X173365665Y-63700368D01*
X173365675Y-63700374D01*
X173365677Y-63700375D01*
X173433824Y-63739721D01*
X173433832Y-63739724D01*
X173433836Y-63739727D01*
X173506562Y-63769851D01*
X173582597Y-63790225D01*
X173660641Y-63800500D01*
X173660648Y-63800500D01*
X173739352Y-63800500D01*
X173739359Y-63800500D01*
X173817403Y-63790225D01*
X173893438Y-63769851D01*
X173966164Y-63739727D01*
X173966171Y-63739722D01*
X173966175Y-63739721D01*
X173994094Y-63723601D01*
X174034335Y-63700368D01*
X174096786Y-63652448D01*
X174152448Y-63596786D01*
X174200368Y-63534335D01*
X174239727Y-63466164D01*
X174269851Y-63393438D01*
X174290225Y-63317403D01*
X174300500Y-63239359D01*
X174300500Y-63160641D01*
X174290225Y-63082597D01*
X174269851Y-63006562D01*
X174239727Y-62933836D01*
X174239724Y-62933832D01*
X174239721Y-62933824D01*
X174200375Y-62865677D01*
X174200374Y-62865675D01*
X174200368Y-62865665D01*
X174200364Y-62865660D01*
X174200361Y-62865655D01*
X174152449Y-62803215D01*
X174152443Y-62803208D01*
X174096791Y-62747556D01*
X174096784Y-62747550D01*
X174034344Y-62699638D01*
X174034322Y-62699624D01*
X173966175Y-62660278D01*
X173966162Y-62660272D01*
X173951099Y-62654033D01*
X173893438Y-62630149D01*
X173817403Y-62609775D01*
X173817402Y-62609774D01*
X173817399Y-62609774D01*
X173739366Y-62599500D01*
X173739359Y-62599500D01*
X173660641Y-62599500D01*
X173660633Y-62599500D01*
X173582600Y-62609774D01*
X173506565Y-62630148D01*
X173506563Y-62630148D01*
X173506562Y-62630149D01*
X173485263Y-62638971D01*
X173433837Y-62660272D01*
X173433824Y-62660278D01*
X173365677Y-62699624D01*
X173365655Y-62699638D01*
X173303215Y-62747550D01*
X173303208Y-62747556D01*
X173247556Y-62803208D01*
X173247550Y-62803215D01*
X173199638Y-62865655D01*
X173199624Y-62865677D01*
X173160278Y-62933824D01*
X173160272Y-62933837D01*
X173130148Y-63006565D01*
X173109774Y-63082600D01*
X173099500Y-63160633D01*
X166666829Y-63160633D01*
X166665865Y-63157035D01*
X166635741Y-63084309D01*
X166635738Y-63084305D01*
X166635735Y-63084297D01*
X166596389Y-63016150D01*
X166596388Y-63016148D01*
X166596382Y-63016138D01*
X166596378Y-63016133D01*
X166596375Y-63016128D01*
X166548463Y-62953688D01*
X166548457Y-62953681D01*
X166492805Y-62898029D01*
X166492798Y-62898023D01*
X166430358Y-62850111D01*
X166430336Y-62850097D01*
X166362189Y-62810751D01*
X166362176Y-62810745D01*
X166343980Y-62803208D01*
X166289452Y-62780622D01*
X166213417Y-62760248D01*
X166213416Y-62760247D01*
X166213413Y-62760247D01*
X166135380Y-62749973D01*
X166135373Y-62749973D01*
X166056655Y-62749973D01*
X166056647Y-62749973D01*
X165978614Y-62760247D01*
X165902579Y-62780621D01*
X165902577Y-62780621D01*
X165902576Y-62780622D01*
X165881277Y-62789444D01*
X165829851Y-62810745D01*
X165829838Y-62810751D01*
X165761691Y-62850097D01*
X165761669Y-62850111D01*
X165699229Y-62898023D01*
X165699222Y-62898029D01*
X165643570Y-62953681D01*
X165643564Y-62953688D01*
X165595652Y-63016128D01*
X165595638Y-63016150D01*
X165556292Y-63084297D01*
X165556286Y-63084310D01*
X165526162Y-63157038D01*
X165505788Y-63233073D01*
X165495514Y-63311106D01*
X159173429Y-63311106D01*
X159194002Y-63303209D01*
X159219784Y-63300499D01*
X159516209Y-63300499D01*
X159516210Y-63300499D01*
X159536407Y-63298665D01*
X159582892Y-63284179D01*
X159624561Y-63258990D01*
X159658990Y-63224561D01*
X159684179Y-63182892D01*
X159698665Y-63136407D01*
X159698665Y-63136403D01*
X159698666Y-63136402D01*
X159700499Y-63116219D01*
X159700500Y-63116211D01*
X159700499Y-62083790D01*
X159700498Y-62083780D01*
X160299500Y-62083780D01*
X160299500Y-63116208D01*
X160301335Y-63136408D01*
X160301336Y-63136413D01*
X160315821Y-63182893D01*
X160341007Y-63224558D01*
X160375441Y-63258992D01*
X160417107Y-63284179D01*
X160432603Y-63289007D01*
X160463593Y-63298665D01*
X160463595Y-63298665D01*
X160463597Y-63298666D01*
X160479287Y-63300090D01*
X160483789Y-63300500D01*
X161516210Y-63300499D01*
X161536407Y-63298665D01*
X161582892Y-63284179D01*
X161624561Y-63258990D01*
X161658990Y-63224561D01*
X161684179Y-63182892D01*
X161698665Y-63136407D01*
X161698665Y-63136403D01*
X161698666Y-63136402D01*
X161700499Y-63116219D01*
X161700500Y-63116211D01*
X161700499Y-62083790D01*
X161698665Y-62063593D01*
X161684179Y-62017108D01*
X161684178Y-62017106D01*
X161658992Y-61975441D01*
X161624558Y-61941007D01*
X161582892Y-61915820D01*
X161536404Y-61901334D01*
X161536402Y-61901333D01*
X161516219Y-61899500D01*
X160483791Y-61899500D01*
X160463591Y-61901335D01*
X160463586Y-61901336D01*
X160417106Y-61915821D01*
X160375441Y-61941007D01*
X160341007Y-61975441D01*
X160315820Y-62017107D01*
X160301334Y-62063595D01*
X160301333Y-62063597D01*
X160299500Y-62083780D01*
X159700498Y-62083780D01*
X159698665Y-62063593D01*
X159684179Y-62017108D01*
X159684178Y-62017106D01*
X159658992Y-61975441D01*
X159624558Y-61941007D01*
X159582892Y-61915820D01*
X159536404Y-61901334D01*
X159536402Y-61901333D01*
X159516219Y-61899500D01*
X158483791Y-61899500D01*
X158463591Y-61901335D01*
X158463586Y-61901336D01*
X158417106Y-61915821D01*
X158375441Y-61941007D01*
X158341007Y-61975441D01*
X158315820Y-62017107D01*
X158301334Y-62063595D01*
X158301333Y-62063597D01*
X158299500Y-62083780D01*
X158299500Y-63116208D01*
X158301335Y-63136408D01*
X158301337Y-63136417D01*
X158309760Y-63163446D01*
X158312219Y-63180287D01*
X158315331Y-63197027D01*
X158315015Y-63199433D01*
X158315366Y-63201835D01*
X158312501Y-63218606D01*
X158310287Y-63235493D01*
X158309242Y-63237686D01*
X158308834Y-63240077D01*
X158300928Y-63255139D01*
X158293603Y-63270519D01*
X158291932Y-63272279D01*
X158290805Y-63274429D01*
X158266912Y-63298674D01*
X158266864Y-63298710D01*
X158266862Y-63298713D01*
X158266549Y-63298953D01*
X158265665Y-63299631D01*
X158265665Y-63299632D01*
X158203214Y-63347552D01*
X158202991Y-63347774D01*
X158199537Y-63350428D01*
X158185952Y-63357812D01*
X158172869Y-63366055D01*
X158168977Y-63367040D01*
X158165452Y-63368957D01*
X158150252Y-63371782D01*
X158135260Y-63375579D01*
X158131255Y-63375313D01*
X158127310Y-63376047D01*
X158111974Y-63374036D01*
X158096549Y-63373014D01*
X158092824Y-63371524D01*
X158088844Y-63371003D01*
X158074880Y-63364351D01*
X158060525Y-63358613D01*
X158057441Y-63356045D01*
X158053818Y-63354319D01*
X158042594Y-63343679D01*
X158030715Y-63333785D01*
X158028575Y-63330389D01*
X158025663Y-63327628D01*
X158018278Y-63314043D01*
X158010036Y-63300960D01*
X158009050Y-63297068D01*
X158007134Y-63293543D01*
X158004308Y-63278343D01*
X158000512Y-63263351D01*
X158000184Y-63256159D01*
X158000044Y-63255401D01*
X158000123Y-63254797D01*
X158000000Y-63252091D01*
X158000000Y-60324000D01*
X158006069Y-60285682D01*
X158023682Y-60251115D01*
X158051115Y-60223682D01*
X158085682Y-60206069D01*
X158124000Y-60200000D01*
X171938802Y-60200000D01*
X171977120Y-60206069D01*
G37*
%TD.AperFunction*%
%TD*%
M02*
