%TF.GenerationSoftware,KiCad,Pcbnew,9.0.4*%
%TF.CreationDate,2025-09-30T01:46:27+09:00*%
%TF.ProjectId,vibration_module,76696272-6174-4696-9f6e-5f6d6f64756c,rev?*%
%TF.SameCoordinates,Original*%
%TF.FileFunction,Copper,L2,Bot*%
%TF.FilePolarity,Positive*%
%FSLAX46Y46*%
G04 Gerber Fmt 4.6, Leading zero omitted, Abs format (unit mm)*
G04 Created by KiCad (PCBNEW 9.0.4) date 2025-09-30 01:46:27*
%MOMM*%
%LPD*%
G01*
G04 APERTURE LIST*
%TA.AperFunction,ComponentPad*%
%ADD10R,1.000000X1.000000*%
%TD*%
%TA.AperFunction,ComponentPad*%
%ADD11C,1.000000*%
%TD*%
%TA.AperFunction,ComponentPad*%
%ADD12C,2.200000*%
%TD*%
%TA.AperFunction,ViaPad*%
%ADD13C,0.800000*%
%TD*%
%TA.AperFunction,Conductor*%
%ADD14C,0.250000*%
%TD*%
%TA.AperFunction,Conductor*%
%ADD15C,0.500000*%
%TD*%
G04 APERTURE END LIST*
D10*
%TO.P,TP4,1,1*%
%TO.N,Net-(U2-OUT+)*%
X189000000Y-81250000D03*
%TD*%
D11*
%TO.P,TP2,1,1*%
%TO.N,Net-(U3-PA13)*%
X175750000Y-71250000D03*
%TD*%
%TO.P,TP1,1,1*%
%TO.N,Net-(U3-PA14)*%
X175750000Y-73500000D03*
%TD*%
D10*
%TO.P,TP3,1,1*%
%TO.N,Net-(U2-OUT-)*%
X187000000Y-81250000D03*
%TD*%
D12*
%TO.P,SW2,1,A*%
%TO.N,Net-(SW2-A)*%
X184500000Y-67100000D03*
%TO.P,SW2,2,B*%
%TO.N,GND*%
X179500000Y-69200000D03*
%TD*%
D13*
%TO.N,GND*%
X192500000Y-66000000D03*
X180750000Y-69000000D03*
X187000000Y-76750000D03*
X178250000Y-77750000D03*
X180000000Y-68000000D03*
X184000000Y-75500000D03*
X191750000Y-76000000D03*
X192000000Y-68750000D03*
X178000000Y-76000000D03*
%TO.N,+3.3V*%
X189175500Y-75074500D03*
X190750000Y-71250000D03*
X186690000Y-74250000D03*
%TO.N,Net-(U2-IN{slash}TRIG)*%
X187755167Y-80285000D03*
X187750000Y-73500000D03*
%TO.N,Net-(U2-OUT+)*%
X189000000Y-76250000D03*
X189764209Y-78978687D03*
%TO.N,Net-(U2-EN)*%
X189250000Y-79750000D03*
X187500000Y-72500000D03*
%TO.N,Net-(U3-PA13)*%
X179456856Y-70870568D03*
X185021313Y-70235791D03*
%TO.N,Net-(U3-PA14)*%
X184250000Y-70750000D03*
X179750000Y-71750000D03*
%TD*%
D14*
%TO.N,+3.3V*%
X187228275Y-71844000D02*
X187844000Y-71844000D01*
X186690000Y-72382275D02*
X187228275Y-71844000D01*
D15*
X189623970Y-75074500D02*
X189175500Y-75074500D01*
X190750000Y-72051530D02*
X191201000Y-72502530D01*
D14*
X188924000Y-74823000D02*
X189175500Y-75074500D01*
X187844000Y-71844000D02*
X188924000Y-72924000D01*
X188924000Y-72924000D02*
X188924000Y-74823000D01*
D15*
X191201000Y-72502530D02*
X191201000Y-73497470D01*
X191201000Y-73497470D02*
X189623970Y-75074500D01*
D14*
X186690000Y-74250000D02*
X186690000Y-72382275D01*
D15*
X190750000Y-71250000D02*
X190750000Y-72051530D01*
D14*
%TO.N,Net-(U2-IN{slash}TRIG)*%
X187755167Y-73505167D02*
X187750000Y-73500000D01*
X187755167Y-80285000D02*
X187755167Y-73505167D01*
%TO.N,Net-(U2-OUT+)*%
X189000000Y-78250000D02*
X189500000Y-78750000D01*
X189728687Y-78978687D02*
X189764209Y-78978687D01*
X189500000Y-78750000D02*
X189728687Y-78978687D01*
X189000000Y-76250000D02*
X189000000Y-78250000D01*
%TO.N,Net-(U2-EN)*%
X188250000Y-73927725D02*
X188406000Y-73771725D01*
X187677725Y-72500000D02*
X187500000Y-72500000D01*
X188250000Y-78750000D02*
X188250000Y-73927725D01*
X189250000Y-79750000D02*
X188250000Y-78750000D01*
X188406000Y-73228275D02*
X187677725Y-72500000D01*
X188406000Y-73771725D02*
X188406000Y-73228275D01*
%TO.N,Net-(U3-PA13)*%
X179955424Y-70372000D02*
X183700275Y-70372000D01*
X184072275Y-70000000D02*
X184785522Y-70000000D01*
X183700275Y-70372000D02*
X184072275Y-70000000D01*
X179456856Y-70870568D02*
X179955424Y-70372000D01*
X184785522Y-70000000D02*
X185021313Y-70235791D01*
%TO.N,Net-(U3-PA14)*%
X179750000Y-71750000D02*
X180750000Y-70750000D01*
X180750000Y-70750000D02*
X184250000Y-70750000D01*
%TD*%
%TA.AperFunction,Conductor*%
%TO.N,GND*%
G36*
X192943039Y-65019685D02*
G01*
X192988794Y-65072489D01*
X193000000Y-65124000D01*
X193000000Y-81876000D01*
X192980315Y-81943039D01*
X192927511Y-81988794D01*
X192876000Y-82000000D01*
X190116815Y-82000000D01*
X190049776Y-81980315D01*
X190004021Y-81927511D01*
X189993525Y-81862746D01*
X189994091Y-81857483D01*
X190000500Y-81797873D01*
X190000499Y-80702128D01*
X189994091Y-80642517D01*
X189943796Y-80507669D01*
X189931996Y-80491906D01*
X189907580Y-80426441D01*
X189922432Y-80358168D01*
X189943581Y-80329917D01*
X189949464Y-80324035D01*
X190048013Y-80176547D01*
X190115894Y-80012666D01*
X190146571Y-79858446D01*
X190148530Y-79848595D01*
X190180915Y-79786684D01*
X190201256Y-79769684D01*
X190338244Y-79678151D01*
X190463673Y-79552722D01*
X190562222Y-79405234D01*
X190630103Y-79241353D01*
X190664709Y-79067378D01*
X190664709Y-78889996D01*
X190664709Y-78889993D01*
X190664708Y-78889991D01*
X190630105Y-78716028D01*
X190630102Y-78716019D01*
X190562225Y-78552146D01*
X190562218Y-78552133D01*
X190463673Y-78404652D01*
X190463670Y-78404648D01*
X190338247Y-78279225D01*
X190338243Y-78279222D01*
X190190762Y-78180677D01*
X190190749Y-78180670D01*
X190026876Y-78112793D01*
X190026867Y-78112790D01*
X189852903Y-78078187D01*
X189852900Y-78078187D01*
X189764139Y-78078187D01*
X189734698Y-78069542D01*
X189704712Y-78063019D01*
X189699696Y-78059264D01*
X189697100Y-78058502D01*
X189676458Y-78041868D01*
X189661819Y-78027229D01*
X189628334Y-77965906D01*
X189625500Y-77939548D01*
X189625500Y-76949361D01*
X189645185Y-76882322D01*
X189661820Y-76861679D01*
X189699461Y-76824038D01*
X189699464Y-76824035D01*
X189798013Y-76676547D01*
X189865894Y-76512666D01*
X189900500Y-76338691D01*
X189900500Y-76161309D01*
X189900500Y-76161306D01*
X189900499Y-76161304D01*
X189865896Y-75987341D01*
X189865894Y-75987336D01*
X189865894Y-75987334D01*
X189842384Y-75930576D01*
X189842090Y-75927845D01*
X189840458Y-75925631D01*
X189838378Y-75893313D01*
X189834916Y-75861111D01*
X189836147Y-75858650D01*
X189835971Y-75855906D01*
X189851692Y-75827596D01*
X189866191Y-75798631D01*
X189868965Y-75796491D01*
X189869892Y-75794823D01*
X189878718Y-75788971D01*
X189898296Y-75773874D01*
X189903750Y-75770946D01*
X189979465Y-75739584D01*
X190045159Y-75695689D01*
X190102386Y-75657452D01*
X191783951Y-73975886D01*
X191866084Y-73852965D01*
X191870493Y-73842322D01*
X191902599Y-73764809D01*
X191922658Y-73716383D01*
X191944633Y-73605911D01*
X191951500Y-73571390D01*
X191951500Y-72428609D01*
X191922659Y-72283622D01*
X191922658Y-72283621D01*
X191922658Y-72283617D01*
X191913579Y-72261698D01*
X191866087Y-72147041D01*
X191866080Y-72147028D01*
X191783952Y-72024115D01*
X191743376Y-71983539D01*
X191679416Y-71919579D01*
X191573904Y-71814067D01*
X191540419Y-71752744D01*
X191545403Y-71683052D01*
X191547024Y-71678934D01*
X191548013Y-71676547D01*
X191615894Y-71512666D01*
X191650500Y-71338691D01*
X191650500Y-71161309D01*
X191650500Y-71161306D01*
X191650499Y-71161304D01*
X191615896Y-70987341D01*
X191615893Y-70987332D01*
X191548016Y-70823459D01*
X191548009Y-70823446D01*
X191449464Y-70675965D01*
X191449461Y-70675961D01*
X191324038Y-70550538D01*
X191324034Y-70550535D01*
X191176553Y-70451990D01*
X191176540Y-70451983D01*
X191012667Y-70384106D01*
X191012658Y-70384103D01*
X190838694Y-70349500D01*
X190838691Y-70349500D01*
X190661309Y-70349500D01*
X190661306Y-70349500D01*
X190487341Y-70384103D01*
X190487332Y-70384106D01*
X190323459Y-70451983D01*
X190323446Y-70451990D01*
X190175965Y-70550535D01*
X190175961Y-70550538D01*
X190050538Y-70675961D01*
X190050535Y-70675965D01*
X189951990Y-70823446D01*
X189951983Y-70823459D01*
X189884106Y-70987332D01*
X189884103Y-70987341D01*
X189849500Y-71161304D01*
X189849500Y-71338695D01*
X189884103Y-71512658D01*
X189884106Y-71512667D01*
X189951984Y-71676542D01*
X189951985Y-71676543D01*
X189951987Y-71676547D01*
X189978602Y-71716378D01*
X189984252Y-71734424D01*
X189994477Y-71750334D01*
X189998928Y-71781293D01*
X189999480Y-71783055D01*
X189999500Y-71785269D01*
X189999500Y-71929213D01*
X189979815Y-71996252D01*
X189927011Y-72042007D01*
X189899692Y-72050830D01*
X189722754Y-72086025D01*
X189722748Y-72086027D01*
X189549771Y-72157676D01*
X189549762Y-72157681D01*
X189394095Y-72261695D01*
X189394090Y-72261699D01*
X189357870Y-72297919D01*
X189296547Y-72331404D01*
X189226855Y-72326418D01*
X189182509Y-72297918D01*
X188339850Y-71455260D01*
X188329859Y-71445269D01*
X188329858Y-71445267D01*
X188242733Y-71358142D01*
X188190817Y-71323453D01*
X188151401Y-71297115D01*
X188140285Y-71289687D01*
X188100822Y-71273342D01*
X188059792Y-71256347D01*
X188026452Y-71242537D01*
X187966029Y-71230518D01*
X187961306Y-71229578D01*
X187961304Y-71229578D01*
X187905610Y-71218500D01*
X187905607Y-71218500D01*
X187905606Y-71218500D01*
X187289882Y-71218500D01*
X187166668Y-71218500D01*
X187166664Y-71218500D01*
X187115874Y-71228602D01*
X187115868Y-71228604D01*
X187106246Y-71230518D01*
X187045823Y-71242537D01*
X186998672Y-71262067D01*
X186931990Y-71289688D01*
X186920875Y-71297115D01*
X186908721Y-71305235D01*
X186908718Y-71305237D01*
X186829543Y-71358140D01*
X186792499Y-71395185D01*
X186742417Y-71445267D01*
X186204144Y-71983539D01*
X186204138Y-71983547D01*
X186169914Y-72034766D01*
X186169913Y-72034768D01*
X186154759Y-72057446D01*
X186101145Y-72102249D01*
X186031820Y-72110955D01*
X185968794Y-72080798D01*
X185944273Y-72050554D01*
X185937779Y-72039307D01*
X185800084Y-71859859D01*
X185800078Y-71859852D01*
X185640147Y-71699921D01*
X185640140Y-71699915D01*
X185460692Y-71562220D01*
X185264809Y-71449127D01*
X185264794Y-71449120D01*
X185091951Y-71377527D01*
X185075546Y-71364307D01*
X185056540Y-71355214D01*
X185048886Y-71342823D01*
X185037547Y-71333686D01*
X185030893Y-71313696D01*
X185019821Y-71295771D01*
X185020081Y-71281210D01*
X185015482Y-71267392D01*
X185020692Y-71246976D01*
X185021069Y-71225913D01*
X185031786Y-71203511D01*
X185032761Y-71199693D01*
X185036301Y-71194075D01*
X185040997Y-71187047D01*
X185094609Y-71142242D01*
X185119908Y-71134321D01*
X185283971Y-71101687D01*
X185283974Y-71101685D01*
X185283979Y-71101685D01*
X185447860Y-71033804D01*
X185595348Y-70935255D01*
X185720777Y-70809826D01*
X185819326Y-70662338D01*
X185887207Y-70498457D01*
X185892299Y-70472861D01*
X185914079Y-70363364D01*
X185921813Y-70324482D01*
X185921813Y-70147100D01*
X185921813Y-70147097D01*
X185921812Y-70147095D01*
X185887209Y-69973132D01*
X185887206Y-69973123D01*
X185819329Y-69809250D01*
X185819322Y-69809237D01*
X185720777Y-69661756D01*
X185720774Y-69661752D01*
X185595351Y-69536329D01*
X185595347Y-69536326D01*
X185447866Y-69437781D01*
X185447853Y-69437774D01*
X185283980Y-69369897D01*
X185283971Y-69369894D01*
X185110007Y-69335291D01*
X185110004Y-69335291D01*
X184932622Y-69335291D01*
X184932619Y-69335291D01*
X184752672Y-69371085D01*
X184752540Y-69370426D01*
X184725079Y-69374500D01*
X184010663Y-69374500D01*
X183889830Y-69398535D01*
X183889822Y-69398537D01*
X183775991Y-69445687D01*
X183673542Y-69514141D01*
X183582629Y-69605055D01*
X183477502Y-69710182D01*
X183416182Y-69743666D01*
X183389823Y-69746500D01*
X180023165Y-69746500D01*
X180023145Y-69746499D01*
X180017031Y-69746499D01*
X179893818Y-69746499D01*
X179793021Y-69766548D01*
X179793016Y-69766548D01*
X179772972Y-69770536D01*
X179772968Y-69770537D01*
X179727800Y-69789248D01*
X179727797Y-69789249D01*
X179659138Y-69817688D01*
X179659136Y-69817689D01*
X179556691Y-69886141D01*
X179556687Y-69886144D01*
X179509085Y-69933748D01*
X179447762Y-69967234D01*
X179421403Y-69970068D01*
X179368162Y-69970068D01*
X179194197Y-70004671D01*
X179194188Y-70004674D01*
X179030315Y-70072551D01*
X179030302Y-70072558D01*
X178882821Y-70171103D01*
X178882817Y-70171106D01*
X178757394Y-70296529D01*
X178757391Y-70296533D01*
X178658846Y-70444014D01*
X178658839Y-70444027D01*
X178590962Y-70607900D01*
X178590959Y-70607909D01*
X178556356Y-70781872D01*
X178556356Y-70959263D01*
X178590959Y-71133226D01*
X178590962Y-71133235D01*
X178658839Y-71297108D01*
X178658846Y-71297121D01*
X178757390Y-71444601D01*
X178757391Y-71444602D01*
X178757392Y-71444603D01*
X178823306Y-71510517D01*
X178856790Y-71571838D01*
X178857242Y-71622387D01*
X178849500Y-71661309D01*
X178849500Y-71838691D01*
X178853711Y-71859859D01*
X178867810Y-71930743D01*
X178861582Y-72000335D01*
X178818718Y-72055512D01*
X178770384Y-72076551D01*
X178722754Y-72086025D01*
X178722748Y-72086027D01*
X178549771Y-72157676D01*
X178549762Y-72157681D01*
X178394092Y-72261697D01*
X178394088Y-72261700D01*
X178261700Y-72394088D01*
X178261697Y-72394092D01*
X178157681Y-72549762D01*
X178157676Y-72549771D01*
X178086027Y-72722748D01*
X178086025Y-72722756D01*
X178049500Y-72906379D01*
X178049500Y-73093620D01*
X178086025Y-73277243D01*
X178086027Y-73277251D01*
X178157676Y-73450228D01*
X178157681Y-73450237D01*
X178261697Y-73605907D01*
X178261700Y-73605911D01*
X178394088Y-73738299D01*
X178394092Y-73738302D01*
X178549762Y-73842318D01*
X178549768Y-73842321D01*
X178549769Y-73842322D01*
X178722749Y-73913973D01*
X178906379Y-73950499D01*
X178906383Y-73950500D01*
X178906384Y-73950500D01*
X179093617Y-73950500D01*
X179093618Y-73950499D01*
X179277251Y-73913973D01*
X179450231Y-73842322D01*
X179605908Y-73738302D01*
X179738302Y-73605908D01*
X179842322Y-73450231D01*
X179913973Y-73277251D01*
X179950500Y-73093616D01*
X179950500Y-72906384D01*
X179921469Y-72760435D01*
X179927696Y-72690845D01*
X179970559Y-72635668D01*
X180007094Y-72617583D01*
X180012650Y-72615896D01*
X180012666Y-72615894D01*
X180172308Y-72549769D01*
X180176540Y-72548016D01*
X180176540Y-72548015D01*
X180176547Y-72548013D01*
X180324035Y-72449464D01*
X180449464Y-72324035D01*
X180548013Y-72176547D01*
X180615894Y-72012666D01*
X180650500Y-71838691D01*
X180650500Y-71785452D01*
X180670185Y-71718413D01*
X180686819Y-71697771D01*
X180972772Y-71411819D01*
X181034095Y-71378334D01*
X181060453Y-71375500D01*
X183417354Y-71375500D01*
X183484393Y-71395185D01*
X183530148Y-71447989D01*
X183540092Y-71517147D01*
X183511067Y-71580703D01*
X183492840Y-71597876D01*
X183359859Y-71699915D01*
X183359852Y-71699921D01*
X183199921Y-71859852D01*
X183199915Y-71859859D01*
X183062220Y-72039307D01*
X182949127Y-72235190D01*
X182949120Y-72235205D01*
X182862567Y-72444165D01*
X182804023Y-72662652D01*
X182774501Y-72886895D01*
X182774500Y-72886911D01*
X182774500Y-73113088D01*
X182774501Y-73113104D01*
X182804023Y-73337347D01*
X182862567Y-73555834D01*
X182949120Y-73764794D01*
X182949127Y-73764809D01*
X183062220Y-73960692D01*
X183199915Y-74140140D01*
X183199921Y-74140147D01*
X183359852Y-74300078D01*
X183359859Y-74300084D01*
X183539307Y-74437779D01*
X183735190Y-74550872D01*
X183735205Y-74550879D01*
X183825259Y-74588180D01*
X183944166Y-74637433D01*
X184162649Y-74695976D01*
X184386905Y-74725500D01*
X184386912Y-74725500D01*
X184613088Y-74725500D01*
X184613095Y-74725500D01*
X184837351Y-74695976D01*
X185055834Y-74637433D01*
X185264806Y-74550874D01*
X185460693Y-74437779D01*
X185604859Y-74327155D01*
X185670026Y-74301963D01*
X185738471Y-74316001D01*
X185788461Y-74364815D01*
X185801961Y-74401341D01*
X185824104Y-74512659D01*
X185824106Y-74512667D01*
X185891983Y-74676540D01*
X185891990Y-74676553D01*
X185990535Y-74824034D01*
X185990538Y-74824038D01*
X186115961Y-74949461D01*
X186115965Y-74949464D01*
X186263446Y-75048009D01*
X186263459Y-75048016D01*
X186386363Y-75098923D01*
X186427334Y-75115894D01*
X186427336Y-75115894D01*
X186427341Y-75115896D01*
X186601304Y-75150499D01*
X186601307Y-75150500D01*
X186601309Y-75150500D01*
X186778693Y-75150500D01*
X186778694Y-75150499D01*
X186844554Y-75137399D01*
X186952658Y-75115896D01*
X186952658Y-75115895D01*
X186952666Y-75115894D01*
X186958214Y-75113595D01*
X187027680Y-75106126D01*
X187090161Y-75137399D01*
X187125814Y-75197487D01*
X187129667Y-75228156D01*
X187129667Y-79585638D01*
X187109982Y-79652677D01*
X187093348Y-79673319D01*
X187055705Y-79710961D01*
X187055702Y-79710965D01*
X186957157Y-79858446D01*
X186957150Y-79858459D01*
X186889273Y-80022332D01*
X186889271Y-80022340D01*
X186863939Y-80149692D01*
X186831554Y-80211603D01*
X186770838Y-80246177D01*
X186742322Y-80249500D01*
X186452130Y-80249500D01*
X186452123Y-80249501D01*
X186392516Y-80255908D01*
X186257671Y-80306202D01*
X186257664Y-80306206D01*
X186142455Y-80392452D01*
X186142452Y-80392455D01*
X186056206Y-80507664D01*
X186056202Y-80507671D01*
X186005908Y-80642517D01*
X185999501Y-80702116D01*
X185999501Y-80702123D01*
X185999500Y-80702135D01*
X185999500Y-81797870D01*
X185999501Y-81797874D01*
X186006475Y-81862746D01*
X185994068Y-81931506D01*
X185946457Y-81982642D01*
X185883185Y-82000000D01*
X174374000Y-82000000D01*
X174306961Y-81980315D01*
X174261206Y-81927511D01*
X174250000Y-81876000D01*
X174250000Y-73598543D01*
X174749499Y-73598543D01*
X174787947Y-73791829D01*
X174787950Y-73791839D01*
X174863364Y-73973907D01*
X174863371Y-73973920D01*
X174972860Y-74137781D01*
X174972863Y-74137785D01*
X175112214Y-74277136D01*
X175112218Y-74277139D01*
X175276079Y-74386628D01*
X175276092Y-74386635D01*
X175458160Y-74462049D01*
X175458165Y-74462051D01*
X175458169Y-74462051D01*
X175458170Y-74462052D01*
X175651456Y-74500500D01*
X175651459Y-74500500D01*
X175848543Y-74500500D01*
X175978582Y-74474632D01*
X176041835Y-74462051D01*
X176223914Y-74386632D01*
X176387782Y-74277139D01*
X176527139Y-74137782D01*
X176636632Y-73973914D01*
X176712051Y-73791835D01*
X176750500Y-73598541D01*
X176750500Y-73401459D01*
X176750500Y-73401456D01*
X176712052Y-73208170D01*
X176712051Y-73208169D01*
X176712051Y-73208165D01*
X176672669Y-73113088D01*
X176636635Y-73026092D01*
X176636628Y-73026079D01*
X176527139Y-72862218D01*
X176527136Y-72862214D01*
X176387785Y-72722863D01*
X176387781Y-72722860D01*
X176223920Y-72613371D01*
X176223907Y-72613364D01*
X176041839Y-72537950D01*
X176041829Y-72537947D01*
X175848543Y-72499500D01*
X175848541Y-72499500D01*
X175651459Y-72499500D01*
X175651457Y-72499500D01*
X175458170Y-72537947D01*
X175458160Y-72537950D01*
X175276092Y-72613364D01*
X175276079Y-72613371D01*
X175112218Y-72722860D01*
X175112214Y-72722863D01*
X174972863Y-72862214D01*
X174972860Y-72862218D01*
X174863371Y-73026079D01*
X174863364Y-73026092D01*
X174787950Y-73208160D01*
X174787947Y-73208170D01*
X174749500Y-73401456D01*
X174749500Y-73401459D01*
X174749500Y-73598541D01*
X174749500Y-73598543D01*
X174749499Y-73598543D01*
X174250000Y-73598543D01*
X174250000Y-71348543D01*
X174749499Y-71348543D01*
X174787947Y-71541829D01*
X174787950Y-71541839D01*
X174863364Y-71723907D01*
X174863371Y-71723920D01*
X174972860Y-71887781D01*
X174972863Y-71887785D01*
X175112214Y-72027136D01*
X175112218Y-72027139D01*
X175276079Y-72136628D01*
X175276092Y-72136635D01*
X175458160Y-72212049D01*
X175458165Y-72212051D01*
X175458169Y-72212051D01*
X175458170Y-72212052D01*
X175651456Y-72250500D01*
X175651459Y-72250500D01*
X175848543Y-72250500D01*
X175978582Y-72224632D01*
X176041835Y-72212051D01*
X176223914Y-72136632D01*
X176387782Y-72027139D01*
X176527139Y-71887782D01*
X176636632Y-71723914D01*
X176639754Y-71716378D01*
X176662564Y-71661309D01*
X176712051Y-71541835D01*
X176744574Y-71378334D01*
X176750500Y-71348543D01*
X176750500Y-71151456D01*
X176712052Y-70958170D01*
X176712051Y-70958169D01*
X176712051Y-70958165D01*
X176712049Y-70958160D01*
X176636635Y-70776092D01*
X176636628Y-70776079D01*
X176527139Y-70612218D01*
X176527136Y-70612214D01*
X176387785Y-70472863D01*
X176387781Y-70472860D01*
X176223920Y-70363371D01*
X176223907Y-70363364D01*
X176041839Y-70287950D01*
X176041829Y-70287947D01*
X175848543Y-70249500D01*
X175848541Y-70249500D01*
X175651459Y-70249500D01*
X175651457Y-70249500D01*
X175458170Y-70287947D01*
X175458160Y-70287950D01*
X175276092Y-70363364D01*
X175276079Y-70363371D01*
X175112218Y-70472860D01*
X175112214Y-70472863D01*
X174972863Y-70612214D01*
X174972860Y-70612218D01*
X174863371Y-70776079D01*
X174863364Y-70776092D01*
X174787950Y-70958160D01*
X174787947Y-70958170D01*
X174749500Y-71151456D01*
X174749500Y-71151459D01*
X174749500Y-71348541D01*
X174749500Y-71348543D01*
X174749499Y-71348543D01*
X174250000Y-71348543D01*
X174250000Y-66974038D01*
X182899500Y-66974038D01*
X182899500Y-67225961D01*
X182938910Y-67474785D01*
X183016760Y-67714383D01*
X183131132Y-67938848D01*
X183279201Y-68142649D01*
X183279205Y-68142654D01*
X183457345Y-68320794D01*
X183457350Y-68320798D01*
X183635117Y-68449952D01*
X183661155Y-68468870D01*
X183804184Y-68541747D01*
X183885616Y-68583239D01*
X183885618Y-68583239D01*
X183885621Y-68583241D01*
X184125215Y-68661090D01*
X184374038Y-68700500D01*
X184374039Y-68700500D01*
X184625961Y-68700500D01*
X184625962Y-68700500D01*
X184874785Y-68661090D01*
X185114379Y-68583241D01*
X185338845Y-68468870D01*
X185542656Y-68320793D01*
X185720793Y-68142656D01*
X185868870Y-67938845D01*
X185983241Y-67714379D01*
X186061090Y-67474785D01*
X186100500Y-67225962D01*
X186100500Y-66974038D01*
X186061090Y-66725215D01*
X185983241Y-66485621D01*
X185983239Y-66485618D01*
X185983239Y-66485616D01*
X185941747Y-66404184D01*
X185868870Y-66261155D01*
X185849952Y-66235117D01*
X185720798Y-66057350D01*
X185720794Y-66057345D01*
X185542654Y-65879205D01*
X185542649Y-65879201D01*
X185338848Y-65731132D01*
X185338847Y-65731131D01*
X185338845Y-65731130D01*
X185268747Y-65695413D01*
X185114383Y-65616760D01*
X184874785Y-65538910D01*
X184625962Y-65499500D01*
X184374038Y-65499500D01*
X184249626Y-65519205D01*
X184125214Y-65538910D01*
X183885616Y-65616760D01*
X183661151Y-65731132D01*
X183457350Y-65879201D01*
X183457345Y-65879205D01*
X183279205Y-66057345D01*
X183279201Y-66057350D01*
X183131132Y-66261151D01*
X183016760Y-66485616D01*
X182938910Y-66725214D01*
X182899500Y-66974038D01*
X174250000Y-66974038D01*
X174250000Y-65124000D01*
X174269685Y-65056961D01*
X174322489Y-65011206D01*
X174374000Y-65000000D01*
X192876000Y-65000000D01*
X192943039Y-65019685D01*
G37*
%TD.AperFunction*%
%TD*%
M02*
