%TF.GenerationSoftware,KiCad,Pcbnew,9.0.4*%
%TF.CreationDate,2025-09-30T01:46:27+09:00*%
%TF.ProjectId,vibration_module,76696272-6174-4696-9f6e-5f6d6f64756c,rev?*%
%TF.SameCoordinates,Original*%
%TF.FileFunction,Copper,L1,Top*%
%TF.FilePolarity,Positive*%
%FSLAX46Y46*%
G04 Gerber Fmt 4.6, Leading zero omitted, Abs format (unit mm)*
G04 Created by KiCad (PCBNEW 9.0.4) date 2025-09-30 01:46:27*
%MOMM*%
%LPD*%
G01*
G04 APERTURE LIST*
G04 Aperture macros list*
%AMRoundRect*
0 Rectangle with rounded corners*
0 $1 Rounding radius*
0 $2 $3 $4 $5 $6 $7 $8 $9 X,Y pos of 4 corners*
0 Add a 4 corners polygon primitive as box body*
4,1,4,$2,$3,$4,$5,$6,$7,$8,$9,$2,$3,0*
0 Add four circle primitives for the rounded corners*
1,1,$1+$1,$2,$3*
1,1,$1+$1,$4,$5*
1,1,$1+$1,$6,$7*
1,1,$1+$1,$8,$9*
0 Add four rect primitives between the rounded corners*
20,1,$1+$1,$2,$3,$4,$5,0*
20,1,$1+$1,$4,$5,$6,$7,0*
20,1,$1+$1,$6,$7,$8,$9,0*
20,1,$1+$1,$8,$9,$2,$3,0*%
%AMFreePoly0*
4,1,6,0.230000,0.054289,0.020711,-0.155000,-0.230000,-0.155000,-0.230000,0.155000,0.230000,0.155000,0.230000,0.054289,0.230000,0.054289,$1*%
%AMFreePoly1*
4,1,6,0.230000,-0.054289,0.230000,-0.155000,-0.230000,-0.155000,-0.230000,0.155000,0.020711,0.155000,0.230000,-0.054289,0.230000,-0.054289,$1*%
%AMFreePoly2*
4,1,6,0.230000,-0.155000,-0.230000,-0.155000,-0.230000,-0.054289,-0.020711,0.155000,0.230000,0.155000,0.230000,-0.155000,0.230000,-0.155000,$1*%
%AMFreePoly3*
4,1,6,0.230000,-0.155000,-0.020711,-0.155000,-0.230000,0.054289,-0.230000,0.155000,0.230000,0.155000,0.230000,-0.155000,0.230000,-0.155000,$1*%
%AMFreePoly4*
4,1,14,0.230680,0.111820,0.364320,-0.021820,0.377500,-0.053640,0.377500,-0.080000,0.364320,-0.111820,0.332500,-0.125000,-0.332500,-0.125000,-0.364320,-0.111820,-0.377500,-0.080000,-0.377500,0.080000,-0.364320,0.111820,-0.332500,0.125000,0.198860,0.125000,0.230680,0.111820,0.230680,0.111820,$1*%
%AMFreePoly5*
4,1,14,0.364320,0.111820,0.377500,0.080000,0.377500,0.053640,0.364320,0.021820,0.230680,-0.111820,0.198860,-0.125000,-0.332500,-0.125000,-0.364320,-0.111820,-0.377500,-0.080000,-0.377500,0.080000,-0.364320,0.111820,-0.332500,0.125000,0.332500,0.125000,0.364320,0.111820,0.364320,0.111820,$1*%
%AMFreePoly6*
4,1,14,0.111820,0.364320,0.125000,0.332500,0.125000,-0.332500,0.111820,-0.364320,0.080000,-0.377500,-0.080000,-0.377500,-0.111820,-0.364320,-0.125000,-0.332500,-0.125000,0.198860,-0.111820,0.230680,0.021820,0.364320,0.053640,0.377500,0.080000,0.377500,0.111820,0.364320,0.111820,0.364320,$1*%
%AMFreePoly7*
4,1,14,-0.021820,0.364320,0.111820,0.230680,0.125000,0.198860,0.125000,-0.332500,0.111820,-0.364320,0.080000,-0.377500,-0.080000,-0.377500,-0.111820,-0.364320,-0.125000,-0.332500,-0.125000,0.332500,-0.111820,0.364320,-0.080000,0.377500,-0.053640,0.377500,-0.021820,0.364320,-0.021820,0.364320,$1*%
%AMFreePoly8*
4,1,14,0.364320,0.111820,0.377500,0.080000,0.377500,-0.080000,0.364320,-0.111820,0.332500,-0.125000,-0.198860,-0.125000,-0.230680,-0.111820,-0.364320,0.021820,-0.377500,0.053640,-0.377500,0.080000,-0.364320,0.111820,-0.332500,0.125000,0.332500,0.125000,0.364320,0.111820,0.364320,0.111820,$1*%
%AMFreePoly9*
4,1,14,0.364320,0.111820,0.377500,0.080000,0.377500,-0.080000,0.364320,-0.111820,0.332500,-0.125000,-0.332500,-0.125000,-0.364320,-0.111820,-0.377500,-0.080000,-0.377500,-0.053640,-0.364320,-0.021820,-0.230680,0.111820,-0.198860,0.125000,0.332500,0.125000,0.364320,0.111820,0.364320,0.111820,$1*%
%AMFreePoly10*
4,1,14,0.111820,0.364320,0.125000,0.332500,0.125000,-0.198860,0.111820,-0.230680,-0.021820,-0.364320,-0.053640,-0.377500,-0.080000,-0.377500,-0.111820,-0.364320,-0.125000,-0.332500,-0.125000,0.332500,-0.111820,0.364320,-0.080000,0.377500,0.080000,0.377500,0.111820,0.364320,0.111820,0.364320,$1*%
%AMFreePoly11*
4,1,14,0.111820,0.364320,0.125000,0.332500,0.125000,-0.332500,0.111820,-0.364320,0.080000,-0.377500,0.053640,-0.377500,0.021820,-0.364320,-0.111820,-0.230680,-0.125000,-0.198860,-0.125000,0.332500,-0.111820,0.364320,-0.080000,0.377500,0.080000,0.377500,0.111820,0.364320,0.111820,0.364320,$1*%
G04 Aperture macros list end*
%TA.AperFunction,SMDPad,CuDef*%
%ADD10RoundRect,0.140000X0.170000X-0.140000X0.170000X0.140000X-0.170000X0.140000X-0.170000X-0.140000X0*%
%TD*%
%TA.AperFunction,SMDPad,CuDef*%
%ADD11RoundRect,0.200000X-0.200000X-0.600000X0.200000X-0.600000X0.200000X0.600000X-0.200000X0.600000X0*%
%TD*%
%TA.AperFunction,SMDPad,CuDef*%
%ADD12RoundRect,0.250001X-0.799999X-1.249999X0.799999X-1.249999X0.799999X1.249999X-0.799999X1.249999X0*%
%TD*%
%TA.AperFunction,SMDPad,CuDef*%
%ADD13FreePoly0,0.000000*%
%TD*%
%TA.AperFunction,SMDPad,CuDef*%
%ADD14FreePoly1,0.000000*%
%TD*%
%TA.AperFunction,SMDPad,CuDef*%
%ADD15FreePoly2,0.000000*%
%TD*%
%TA.AperFunction,SMDPad,CuDef*%
%ADD16FreePoly3,0.000000*%
%TD*%
%TA.AperFunction,SMDPad,CuDef*%
%ADD17RoundRect,0.145000X0.000000X-0.205061X0.205061X0.000000X0.000000X0.205061X-0.205061X0.000000X0*%
%TD*%
%TA.AperFunction,SMDPad,CuDef*%
%ADD18RoundRect,0.135000X-0.135000X-0.185000X0.135000X-0.185000X0.135000X0.185000X-0.135000X0.185000X0*%
%TD*%
%TA.AperFunction,SMDPad,CuDef*%
%ADD19FreePoly4,180.000000*%
%TD*%
%TA.AperFunction,SMDPad,CuDef*%
%ADD20RoundRect,0.062500X0.375000X0.062500X-0.375000X0.062500X-0.375000X-0.062500X0.375000X-0.062500X0*%
%TD*%
%TA.AperFunction,SMDPad,CuDef*%
%ADD21FreePoly5,180.000000*%
%TD*%
%TA.AperFunction,SMDPad,CuDef*%
%ADD22FreePoly6,180.000000*%
%TD*%
%TA.AperFunction,SMDPad,CuDef*%
%ADD23RoundRect,0.062500X0.062500X0.375000X-0.062500X0.375000X-0.062500X-0.375000X0.062500X-0.375000X0*%
%TD*%
%TA.AperFunction,SMDPad,CuDef*%
%ADD24FreePoly7,180.000000*%
%TD*%
%TA.AperFunction,SMDPad,CuDef*%
%ADD25FreePoly8,180.000000*%
%TD*%
%TA.AperFunction,SMDPad,CuDef*%
%ADD26FreePoly9,180.000000*%
%TD*%
%TA.AperFunction,SMDPad,CuDef*%
%ADD27FreePoly10,180.000000*%
%TD*%
%TA.AperFunction,SMDPad,CuDef*%
%ADD28FreePoly11,180.000000*%
%TD*%
%TA.AperFunction,SMDPad,CuDef*%
%ADD29RoundRect,0.140000X0.140000X0.170000X-0.140000X0.170000X-0.140000X-0.170000X0.140000X-0.170000X0*%
%TD*%
%TA.AperFunction,ComponentPad*%
%ADD30R,1.000000X1.000000*%
%TD*%
%TA.AperFunction,SMDPad,CuDef*%
%ADD31RoundRect,0.225000X-0.225000X-0.250000X0.225000X-0.250000X0.225000X0.250000X-0.225000X0.250000X0*%
%TD*%
%TA.AperFunction,ComponentPad*%
%ADD32C,1.000000*%
%TD*%
%TA.AperFunction,SMDPad,CuDef*%
%ADD33RoundRect,0.225000X0.250000X-0.225000X0.250000X0.225000X-0.250000X0.225000X-0.250000X-0.225000X0*%
%TD*%
%TA.AperFunction,SMDPad,CuDef*%
%ADD34RoundRect,0.075000X0.075000X-0.650000X0.075000X0.650000X-0.075000X0.650000X-0.075000X-0.650000X0*%
%TD*%
%TA.AperFunction,SMDPad,CuDef*%
%ADD35RoundRect,0.225000X-0.250000X0.225000X-0.250000X-0.225000X0.250000X-0.225000X0.250000X0.225000X0*%
%TD*%
%TA.AperFunction,ComponentPad*%
%ADD36C,2.200000*%
%TD*%
%TA.AperFunction,ViaPad*%
%ADD37C,0.800000*%
%TD*%
%TA.AperFunction,Conductor*%
%ADD38C,0.250000*%
%TD*%
%TA.AperFunction,Conductor*%
%ADD39C,0.500000*%
%TD*%
%TA.AperFunction,Conductor*%
%ADD40C,0.200000*%
%TD*%
G04 APERTURE END LIST*
D10*
%TO.P,C9,1*%
%TO.N,+3.3V*%
X181250000Y-67730000D03*
%TO.P,C9,2*%
%TO.N,GND*%
X181250000Y-66770000D03*
%TD*%
D11*
%TO.P,J1,1,Pin_1*%
%TO.N,GND*%
X178000000Y-77000000D03*
%TO.P,J1,2,Pin_2*%
%TO.N,/SCL*%
X179250000Y-77000000D03*
%TO.P,J1,3,Pin_3*%
%TO.N,/SDA*%
X180500000Y-77000000D03*
%TO.P,J1,4,Pin_4*%
%TO.N,VBUS*%
X181750000Y-77000000D03*
D12*
%TO.P,J1,MP*%
%TO.N,N/C*%
X175450000Y-79900000D03*
X184300000Y-79900000D03*
%TD*%
D13*
%TO.P,U4,1,OUT*%
%TO.N,+3.3V*%
X181390000Y-68600000D03*
D14*
%TO.P,U4,2,GND*%
%TO.N,GND*%
X181390000Y-69250000D03*
D15*
%TO.P,U4,3,EN*%
%TO.N,VBUS*%
X182250000Y-69250000D03*
D16*
%TO.P,U4,4,IN*%
X182250000Y-68600000D03*
D17*
%TO.P,U4,5,Pad*%
%TO.N,GND*%
X181820000Y-68925000D03*
%TD*%
D18*
%TO.P,R3,1*%
%TO.N,Net-(U2-SDA)*%
X190230000Y-78000000D03*
%TO.P,R3,2*%
%TO.N,GND*%
X191250000Y-78000000D03*
%TD*%
D19*
%TO.P,U3,1,PC14*%
%TO.N,unconnected-(U3-PC14-Pad1)*%
X190310000Y-70500000D03*
D20*
%TO.P,U3,2,PC15*%
%TO.N,unconnected-(U3-PC15-Pad2)*%
X190250000Y-70000000D03*
%TO.P,U3,3,VDD*%
%TO.N,+3.3V*%
X190250000Y-69500000D03*
%TO.P,U3,4,VSS*%
%TO.N,GND*%
X190250000Y-69000000D03*
%TO.P,U3,5,PF2*%
%TO.N,unconnected-(U3-PF2-Pad5)*%
X190250000Y-68500000D03*
%TO.P,U3,6,PA0*%
%TO.N,unconnected-(U3-PA0-Pad6)*%
X190250000Y-68000000D03*
D21*
%TO.P,U3,7,PA1*%
%TO.N,Net-(SW2-A)*%
X190310000Y-67500000D03*
D22*
%TO.P,U3,8,PA2*%
%TO.N,unconnected-(U3-PA2-Pad8)*%
X189812500Y-67002500D03*
D23*
%TO.P,U3,9,PA3*%
%TO.N,unconnected-(U3-PA3-Pad9)*%
X189312500Y-67062500D03*
%TO.P,U3,10,PA4*%
%TO.N,unconnected-(U3-PA4-Pad10)*%
X188812500Y-67062500D03*
%TO.P,U3,11,PA5*%
%TO.N,unconnected-(U3-PA5-Pad11)*%
X188312500Y-67062500D03*
%TO.P,U3,12,PA6*%
%TO.N,unconnected-(U3-PA6-Pad12)*%
X187812500Y-67062500D03*
%TO.P,U3,13,PA7*%
%TO.N,unconnected-(U3-PA7-Pad13)*%
X187312500Y-67062500D03*
D24*
%TO.P,U3,14,PB0*%
%TO.N,unconnected-(U3-PB0-Pad14)*%
X186812500Y-67002500D03*
D25*
%TO.P,U3,15,PB1*%
%TO.N,unconnected-(U3-PB1-Pad15)*%
X186315000Y-67500000D03*
D20*
%TO.P,U3,16,PA8*%
%TO.N,unconnected-(U3-PA8-Pad16)*%
X186375000Y-68000000D03*
%TO.P,U3,17,PC6*%
%TO.N,unconnected-(U3-PC6-Pad17)*%
X186375000Y-68500000D03*
%TO.P,U3,18,PA9/PA11*%
%TO.N,/SCL*%
X186375000Y-69000000D03*
%TO.P,U3,19,PA10/PA12*%
%TO.N,/SDA*%
X186375000Y-69500000D03*
%TO.P,U3,20,PA13*%
%TO.N,Net-(U3-PA13)*%
X186375000Y-70000000D03*
D26*
%TO.P,U3,21,PA14*%
%TO.N,Net-(U3-PA14)*%
X186315000Y-70500000D03*
D27*
%TO.P,U3,22,PA15*%
%TO.N,unconnected-(U3-PA15-Pad22)*%
X186812500Y-70997500D03*
D23*
%TO.P,U3,23,PB3*%
%TO.N,unconnected-(U3-PB3-Pad23)*%
X187312500Y-70937500D03*
%TO.P,U3,24,PB4*%
%TO.N,Net-(U2-EN)*%
X187812500Y-70937500D03*
%TO.P,U3,25,PB5*%
%TO.N,Net-(U2-IN{slash}TRIG)*%
X188312500Y-70937500D03*
%TO.P,U3,26,PB6*%
%TO.N,Net-(U2-SCL)*%
X188812500Y-70937500D03*
%TO.P,U3,27,PB7*%
%TO.N,Net-(U2-SDA)*%
X189312500Y-70937500D03*
D28*
%TO.P,U3,28,PB8*%
%TO.N,unconnected-(U3-PB8-Pad28)*%
X189812500Y-70997500D03*
%TD*%
D29*
%TO.P,C8,1*%
%TO.N,VBUS*%
X182230000Y-70250000D03*
%TO.P,C8,2*%
%TO.N,GND*%
X181270000Y-70250000D03*
%TD*%
D30*
%TO.P,TP4,1,1*%
%TO.N,Net-(U2-OUT+)*%
X189000000Y-81250000D03*
%TD*%
D31*
%TO.P,C2,1*%
%TO.N,+3.3V*%
X190250000Y-75250000D03*
%TO.P,C2,2*%
%TO.N,GND*%
X191800000Y-75250000D03*
%TD*%
D32*
%TO.P,TP2,1,1*%
%TO.N,Net-(U3-PA13)*%
X175750000Y-71250000D03*
%TD*%
%TO.P,TP1,1,1*%
%TO.N,Net-(U3-PA14)*%
X175750000Y-73500000D03*
%TD*%
D33*
%TO.P,C7,1*%
%TO.N,+3.3V*%
X191750000Y-67500000D03*
%TO.P,C7,2*%
%TO.N,GND*%
X191750000Y-65950000D03*
%TD*%
D34*
%TO.P,U2,1,REG*%
%TO.N,Net-(U2-REG)*%
X186750000Y-79150000D03*
%TO.P,U2,2,SCL*%
%TO.N,Net-(U2-SCL)*%
X187250000Y-79150000D03*
%TO.P,U2,3,SDA*%
%TO.N,Net-(U2-SDA)*%
X187750000Y-79150000D03*
%TO.P,U2,4,IN/TRIG*%
%TO.N,Net-(U2-IN{slash}TRIG)*%
X188250000Y-79150000D03*
%TO.P,U2,5,EN*%
%TO.N,Net-(U2-EN)*%
X188750000Y-79150000D03*
%TO.P,U2,6,VDD/NC*%
%TO.N,+3.3V*%
X188750000Y-74750000D03*
%TO.P,U2,7,OUT+*%
%TO.N,Net-(U2-OUT+)*%
X188250000Y-74750000D03*
%TO.P,U2,8,GND*%
%TO.N,GND*%
X187750000Y-74750000D03*
%TO.P,U2,9,OUT-*%
%TO.N,Net-(U2-OUT-)*%
X187250000Y-74750000D03*
%TO.P,U2,10,VDD*%
%TO.N,+3.3V*%
X186750000Y-74750000D03*
%TD*%
D30*
%TO.P,TP3,1,1*%
%TO.N,Net-(U2-OUT-)*%
X187000000Y-81250000D03*
%TD*%
D10*
%TO.P,C6,1*%
%TO.N,+3.3V*%
X191500000Y-69730000D03*
%TO.P,C6,2*%
%TO.N,GND*%
X191500000Y-68770000D03*
%TD*%
D18*
%TO.P,R4,1*%
%TO.N,Net-(U2-SCL)*%
X190240000Y-77000000D03*
%TO.P,R4,2*%
%TO.N,GND*%
X191260000Y-77000000D03*
%TD*%
D35*
%TO.P,C1,1*%
%TO.N,GND*%
X185250000Y-75475000D03*
%TO.P,C1,2*%
%TO.N,Net-(U2-REG)*%
X185250000Y-77025000D03*
%TD*%
D36*
%TO.P,SW2,1,A*%
%TO.N,Net-(SW2-A)*%
X184500000Y-67100000D03*
%TO.P,SW2,2,B*%
%TO.N,GND*%
X179500000Y-69200000D03*
%TD*%
D37*
%TO.N,GND*%
X192500000Y-66000000D03*
X180750000Y-69000000D03*
X187000000Y-76750000D03*
X178250000Y-77750000D03*
X180000000Y-68000000D03*
X184000000Y-75500000D03*
X191750000Y-76000000D03*
X192000000Y-68750000D03*
X178000000Y-76000000D03*
%TO.N,+3.3V*%
X189175500Y-75074500D03*
X190750000Y-71250000D03*
X186690000Y-74250000D03*
%TO.N,Net-(U2-IN{slash}TRIG)*%
X187755167Y-80285000D03*
X187750000Y-73500000D03*
%TO.N,Net-(U2-OUT+)*%
X189000000Y-76250000D03*
X189764209Y-78978687D03*
%TO.N,Net-(U2-EN)*%
X189250000Y-79750000D03*
X187500000Y-72500000D03*
%TO.N,Net-(U3-PA13)*%
X179456856Y-70870568D03*
X185021313Y-70235791D03*
%TO.N,Net-(U3-PA14)*%
X184250000Y-70750000D03*
X179750000Y-71750000D03*
%TD*%
D38*
%TO.N,GND*%
X191500000Y-68770000D02*
X191980000Y-68770000D01*
D39*
X178000000Y-77000000D02*
X178000000Y-76000000D01*
X192450000Y-65950000D02*
X192500000Y-66000000D01*
D38*
X187750000Y-74750000D02*
X187750000Y-76000000D01*
D39*
X191750000Y-65950000D02*
X192450000Y-65950000D01*
X184025000Y-75475000D02*
X184000000Y-75500000D01*
X185250000Y-75475000D02*
X184025000Y-75475000D01*
D38*
X191500000Y-68770000D02*
X191270000Y-69000000D01*
X187750000Y-76000000D02*
X187000000Y-76750000D01*
D39*
X191750000Y-76510000D02*
X191750000Y-76000000D01*
X178000000Y-77500000D02*
X178250000Y-77750000D01*
D38*
X191270000Y-69000000D02*
X190250000Y-69000000D01*
D39*
X191800000Y-75950000D02*
X191750000Y-76000000D01*
X191800000Y-75250000D02*
X191800000Y-75950000D01*
X178000000Y-77000000D02*
X178000000Y-77500000D01*
X191260000Y-77000000D02*
X191750000Y-76510000D01*
X191250000Y-77010000D02*
X191260000Y-77000000D01*
X191250000Y-78000000D02*
X191250000Y-77010000D01*
D38*
X191980000Y-68770000D02*
X192000000Y-68750000D01*
%TO.N,+3.3V*%
X191270000Y-69500000D02*
X191500000Y-69730000D01*
D39*
X190824000Y-66574000D02*
X191750000Y-67500000D01*
D38*
X186750000Y-74310000D02*
X186690000Y-74250000D01*
D39*
X191500000Y-70500000D02*
X190750000Y-71250000D01*
X181559999Y-67730000D02*
X183550999Y-65739000D01*
X183550999Y-65739000D02*
X190140416Y-65739000D01*
X192781000Y-68426499D02*
X192781000Y-69073501D01*
X190140416Y-65739000D02*
X190824000Y-66422584D01*
X190824000Y-66422584D02*
X190824000Y-66574000D01*
D38*
X188851000Y-74750000D02*
X189175500Y-75074500D01*
D39*
X181250000Y-67730000D02*
X181559999Y-67730000D01*
X191854501Y-67500000D02*
X192781000Y-68426499D01*
X189351000Y-75250000D02*
X189175500Y-75074500D01*
X192124501Y-69730000D02*
X191500000Y-69730000D01*
X191500000Y-69730000D02*
X191500000Y-70500000D01*
D38*
X188750000Y-74750000D02*
X188851000Y-74750000D01*
D39*
X191750000Y-67500000D02*
X191854501Y-67500000D01*
D38*
X190250000Y-69500000D02*
X191270000Y-69500000D01*
X186750000Y-74750000D02*
X186750000Y-74310000D01*
D39*
X190250000Y-75250000D02*
X189351000Y-75250000D01*
X192781000Y-69073501D02*
X192124501Y-69730000D01*
D38*
%TO.N,Net-(U2-OUT-)*%
X184750000Y-76250000D02*
X186544178Y-76250000D01*
X186544178Y-76250000D02*
X187250000Y-75544178D01*
X182750000Y-81250000D02*
X182750000Y-78250000D01*
X187250000Y-75544178D02*
X187250000Y-74750000D01*
X183250000Y-81750000D02*
X182750000Y-81250000D01*
X187000000Y-81250000D02*
X186500000Y-81750000D01*
X182750000Y-78250000D02*
X184750000Y-76250000D01*
X186500000Y-81750000D02*
X183250000Y-81750000D01*
%TO.N,Net-(U2-IN{slash}TRIG)*%
X187909178Y-80285000D02*
X187755167Y-80285000D01*
X188250000Y-79944178D02*
X187909178Y-80285000D01*
X188312500Y-72937500D02*
X188312500Y-70937500D01*
X187750000Y-73500000D02*
X188312500Y-72937500D01*
X188250000Y-79150000D02*
X188250000Y-79944178D01*
%TO.N,Net-(U2-OUT+)*%
X188955822Y-76250000D02*
X189000000Y-76250000D01*
X188250000Y-75544178D02*
X188955822Y-76250000D01*
X188250000Y-74750000D02*
X188250000Y-75544178D01*
X189906000Y-79120478D02*
X189906000Y-80344000D01*
X189764209Y-78978687D02*
X189906000Y-79120478D01*
X189906000Y-80344000D02*
X189000000Y-81250000D01*
%TO.N,Net-(U2-SDA)*%
X192576000Y-74054306D02*
X190232694Y-71711000D01*
X187750000Y-78355822D02*
X188105822Y-78000000D01*
X190230000Y-78000000D02*
X190876000Y-78646000D01*
X190876000Y-78646000D02*
X191579694Y-78646000D01*
X188105822Y-78000000D02*
X190230000Y-78000000D01*
X191579694Y-78646000D02*
X192576000Y-77649694D01*
X187750000Y-79150000D02*
X187750000Y-78355822D01*
X189575224Y-71711000D02*
X189312500Y-71448276D01*
X192576000Y-77649694D02*
X192576000Y-74054306D01*
X190232694Y-71711000D02*
X189575224Y-71711000D01*
X189312500Y-71448276D02*
X189312500Y-70937500D01*
D39*
%TO.N,Net-(U2-REG)*%
X185250000Y-77751000D02*
X186649000Y-79150000D01*
X185250000Y-77025000D02*
X185250000Y-77751000D01*
D38*
%TO.N,Net-(U2-SCL)*%
X188571250Y-77000000D02*
X190240000Y-77000000D01*
X190376000Y-74076000D02*
X189554306Y-74076000D01*
X188812500Y-73334194D02*
X188812500Y-70937500D01*
X187250000Y-79150000D02*
X187250000Y-78321250D01*
X191025000Y-74725000D02*
X190376000Y-74076000D01*
X191025000Y-76215000D02*
X191025000Y-74725000D01*
X190240000Y-77000000D02*
X191025000Y-76215000D01*
X189554306Y-74076000D02*
X188812500Y-73334194D01*
X187250000Y-78321250D02*
X188571250Y-77000000D01*
%TO.N,Net-(U2-EN)*%
X187500000Y-72500000D02*
X187812500Y-72187500D01*
X188750000Y-79250000D02*
X189250000Y-79750000D01*
X188750000Y-79150000D02*
X188750000Y-79250000D01*
X187812500Y-72187500D02*
X187812500Y-70937500D01*
%TO.N,Net-(U3-PA13)*%
X185257104Y-70000000D02*
X186375000Y-70000000D01*
X175750000Y-71250000D02*
X179077424Y-71250000D01*
X185021313Y-70235791D02*
X185257104Y-70000000D01*
X179077424Y-71250000D02*
X179456856Y-70870568D01*
%TO.N,/SDA*%
X180500000Y-77000000D02*
X180500000Y-74916863D01*
X182649000Y-72233291D02*
X183594000Y-71288291D01*
X184365313Y-69964066D02*
X184749588Y-69579791D01*
X181628000Y-73788863D02*
X181628000Y-73622000D01*
X181628000Y-73622000D02*
X182649000Y-72601000D01*
X180500000Y-74916863D02*
X181628000Y-73788863D01*
X184920209Y-69579791D02*
X185000000Y-69500000D01*
X183594000Y-71288291D02*
X183594000Y-70478275D01*
X184749588Y-69579791D02*
X184920209Y-69579791D01*
X183978275Y-70094000D02*
X184365313Y-70094000D01*
X182649000Y-72601000D02*
X182649000Y-72233291D01*
X183594000Y-70478275D02*
X183978275Y-70094000D01*
X184365313Y-70094000D02*
X184365313Y-69964066D01*
X185000000Y-69500000D02*
X186375000Y-69500000D01*
%TO.N,Net-(U3-PA14)*%
X184250000Y-70750000D02*
X184500000Y-71000000D01*
X175750000Y-73500000D02*
X177500000Y-71750000D01*
X185750000Y-70500000D02*
X186315000Y-70500000D01*
X184500000Y-71000000D02*
X185250000Y-71000000D01*
X185250000Y-71000000D02*
X185750000Y-70500000D01*
X177500000Y-71750000D02*
X179750000Y-71750000D01*
%TO.N,/SCL*%
X183216000Y-71131719D02*
X183216000Y-70321703D01*
X181250000Y-73465427D02*
X182271000Y-72444428D01*
X181250000Y-73632291D02*
X181250000Y-73465427D01*
X182271000Y-72444428D02*
X182271000Y-72076718D01*
X184078806Y-69716000D02*
X184593016Y-69201791D01*
X184843428Y-69122000D02*
X185628000Y-69122000D01*
X184763636Y-69201791D02*
X184843428Y-69122000D01*
X179250000Y-77000000D02*
X179250000Y-75632291D01*
X184593016Y-69201791D02*
X184763636Y-69201791D01*
X185628000Y-69122000D02*
X185750000Y-69000000D01*
X179250000Y-75632291D02*
X181250000Y-73632291D01*
X185750000Y-69000000D02*
X186375000Y-69000000D01*
X182271000Y-72076718D02*
X183216000Y-71131719D01*
X183216000Y-70321703D02*
X183821703Y-69716000D01*
X183821703Y-69716000D02*
X184078806Y-69716000D01*
D39*
%TO.N,VBUS*%
X177000000Y-75000000D02*
X177500000Y-74500000D01*
X180500000Y-72750000D02*
X182230000Y-71020000D01*
X181750000Y-77000000D02*
X181750000Y-78000000D01*
X180750000Y-79000000D02*
X178250000Y-79000000D01*
X178250000Y-79000000D02*
X177000000Y-77750000D01*
X179500000Y-74500000D02*
X180500000Y-73500000D01*
X181750000Y-78000000D02*
X180750000Y-79000000D01*
X177000000Y-77750000D02*
X177000000Y-75000000D01*
X177500000Y-74500000D02*
X179500000Y-74500000D01*
X180500000Y-73500000D02*
X180500000Y-72750000D01*
X182230000Y-71020000D02*
X182230000Y-70250000D01*
D40*
%TO.N,Net-(SW2-A)*%
X185286000Y-66314000D02*
X190039422Y-66314000D01*
X190039422Y-66314000D02*
X190310000Y-66584578D01*
X184500000Y-67100000D02*
X185286000Y-66314000D01*
X190310000Y-66584578D02*
X190310000Y-67500000D01*
%TD*%
%TA.AperFunction,Conductor*%
%TO.N,+3.3V*%
G36*
X181693039Y-67519685D02*
G01*
X181738794Y-67572489D01*
X181750000Y-67624000D01*
X181750000Y-68198637D01*
X181730315Y-68265676D01*
X181713681Y-68286318D01*
X181387298Y-68612700D01*
X181384491Y-68614232D01*
X181382819Y-68616962D01*
X181354026Y-68630867D01*
X181325975Y-68646185D01*
X181322783Y-68645956D01*
X181319903Y-68647348D01*
X181288178Y-68643482D01*
X181256283Y-68641201D01*
X181252769Y-68639166D01*
X181250546Y-68638896D01*
X181240346Y-68631975D01*
X181220451Y-68620459D01*
X181216017Y-68616781D01*
X181118716Y-68519480D01*
X181052915Y-68481490D01*
X181044834Y-68474787D01*
X181030942Y-68454161D01*
X181013784Y-68436166D01*
X181010947Y-68424474D01*
X181005803Y-68416836D01*
X181005482Y-68401945D01*
X181000000Y-68379347D01*
X181000000Y-67624000D01*
X181019685Y-67556961D01*
X181072489Y-67511206D01*
X181124000Y-67500000D01*
X181626000Y-67500000D01*
X181693039Y-67519685D01*
G37*
%TD.AperFunction*%
%TD*%
%TA.AperFunction,Conductor*%
%TO.N,GND*%
G36*
X181193039Y-66519685D02*
G01*
X181238794Y-66572489D01*
X181250000Y-66624000D01*
X181250000Y-66698638D01*
X181230315Y-66765677D01*
X181213681Y-66786319D01*
X180750000Y-67249999D01*
X180750000Y-67469181D01*
X180746877Y-67491055D01*
X180747266Y-67491107D01*
X180739500Y-67550097D01*
X180739500Y-67909894D01*
X180739501Y-67909900D01*
X180746028Y-67959487D01*
X180746028Y-67959488D01*
X180747267Y-67968895D01*
X180746877Y-67968946D01*
X180750000Y-67990816D01*
X180750000Y-69000000D01*
X181500000Y-69000000D01*
X181662319Y-68837681D01*
X181670264Y-68833342D01*
X181675690Y-68826095D01*
X181700449Y-68816860D01*
X181723642Y-68804196D01*
X181732671Y-68804841D01*
X181741154Y-68801678D01*
X181766974Y-68807294D01*
X181793334Y-68809180D01*
X181802387Y-68814998D01*
X181809427Y-68816530D01*
X181837681Y-68837681D01*
X181912319Y-68912319D01*
X181945804Y-68973642D01*
X181940820Y-69043334D01*
X181912319Y-69087681D01*
X181500000Y-69499999D01*
X181500000Y-70376000D01*
X181480315Y-70443039D01*
X181427511Y-70488794D01*
X181376000Y-70500000D01*
X180801362Y-70500000D01*
X180734323Y-70480315D01*
X180713681Y-70463681D01*
X178832030Y-68582030D01*
X178798545Y-68520707D01*
X178803529Y-68451015D01*
X178826390Y-68412696D01*
X179843751Y-67249999D01*
X180462949Y-66542345D01*
X180521908Y-66504855D01*
X180556268Y-66500000D01*
X181126000Y-66500000D01*
X181193039Y-66519685D01*
G37*
%TD.AperFunction*%
%TD*%
%TA.AperFunction,Conductor*%
%TO.N,VBUS*%
G36*
X183015677Y-68019685D02*
G01*
X183036319Y-68036319D01*
X183213681Y-68213681D01*
X183247166Y-68275004D01*
X183250000Y-68301362D01*
X183250000Y-69698638D01*
X183230315Y-69765677D01*
X183213681Y-69786319D01*
X182211681Y-70788319D01*
X182150358Y-70821804D01*
X182080666Y-70816820D01*
X182024733Y-70774948D01*
X182000316Y-70709484D01*
X182000000Y-70700638D01*
X182000000Y-69490033D01*
X182019685Y-69422994D01*
X182036319Y-69402352D01*
X182048171Y-69390500D01*
X182297994Y-69140677D01*
X182328888Y-69100416D01*
X182370561Y-68985921D01*
X182370561Y-68864079D01*
X182328888Y-68749584D01*
X182328888Y-68749583D01*
X182297994Y-68709323D01*
X182036319Y-68447648D01*
X182021615Y-68420720D01*
X182005023Y-68394902D01*
X182004131Y-68388701D01*
X182002834Y-68386325D01*
X182000000Y-68359967D01*
X182000000Y-68301362D01*
X182019685Y-68234323D01*
X182036319Y-68213681D01*
X182213681Y-68036319D01*
X182275004Y-68002834D01*
X182301362Y-68000000D01*
X182948638Y-68000000D01*
X183015677Y-68019685D01*
G37*
%TD.AperFunction*%
%TD*%
M02*
